<svg width="582" height="1875" xmlns="http://www.w3.org/2000/svg">

 <metadata id="imagebot_34">image/svg+xml</metadata>
 <g id="imagebot_1" label="casa" display="inline">
  <path label="casa" display="inline" id="imagebot_32" d="M-476.19509,-638.13337C-521.22079,-610.50615 -567.54291,-633.81403 -613.17219,-626.40057C-641.36208,-624.89397 -670.57562,-630.49636 -698.34246,-613.68092C-700.37466,-484.45536 -729.28878,107.6711 -736.22766,421.76433C-741.15368,644.74404 -739.73602,886.64852 -739.73602,886.64852C-739.73602,886.64852 -690.00416,888.66176 -665.07515,888.43182C-629.31438,904.76253 -560.17356,876.10208 -526.41834,872.27497C-492.62776,877.536 -459.2825,856.5112 -425.48552,867.33111C-395.07605,880.21004 -336.23403,852.54656 -311.83443,868.03691C-269.54327,857.18312 -253.7879,857.22107 -253.7879,857.22107C-253.7879,857.22107 -262.40496,662.35578 -264.32319,587.69366C-254.29116,338.47368 -253.47054,81.39804 -263.24247,-133.63748C-265.69869,-187.6877 -264.56803,-252.51034 -268.22474,-309.73565C-268.69304,-357.69525 -272.8974,-452.65803 -275.01574,-518.05416C-266.98848,-631.55381 -322.03177,-617.49384 -346.5994,-599.3337C-377.66956,-602.44237 -409.27,-601.73845 -439.05478,-626.53288C-451.36492,-630.89896 -464.69132,-622.15822 -476.19509,-638.13337zM-381.96716,-598.69121L-380.66907,-597.64307L-381.96716,-598.69121zM-348.74719,-601.19198C-341.7853,-587.42019 -342.10847,-623.76906 -348.74719,-601.19198zM-334.78836,-601.00779C-327.31959,-590.78399 -335.52111,-618.08757 -334.78836,-601.00779zM-275.35942,-505.16055C-279.38565,-508.40968 -275.38582,-482.3379 -275.35942,-505.16055zM-264.11324,534.83583C-265.69407,543.96476 -258.65788,535.39461 -264.11324,534.83583zM-263.27882,622.93261L-262.47979,625.61227L-263.27882,622.93261zM-263.99023,654.67944L-261.97457,654.97694zM-262.9065,661.65767L-262.40496,662.35589zM-368.91253,857.04802L-369.41875,857.6152zM-703.01368,-418.42398L-704.25878,-418.6621zM-710.56323,-476.60354L-710.37287,-477.90252zM-713.2659,-538.56243L-713.14522,-539.33265zM-709.24347,-599.50014C-711.09216,-596.50978 -710.87356,-596.86335 -709.24347,-599.50014zM-684.77977,-621.13357C-681.4086,-628.26073 -688.87687,-626.16867 -684.77977,-621.13357zM-664.58451,-617.71343L-663.95347,-619.28209zM-554.7555,-632.06524C-550.96631,-633.11877 -557.01826,-637.46859 -554.7555,-632.06524zM-553.97429,-634.75909C-552.06922,-632.39532 -554.45805,-641.13022 -553.97429,-634.75909zM-553.21635,-635.19122C-551.86828,-617.58947 -547.44031,-649.24995 -553.21635,-635.19122zM-550.08817,-635.84398L-549.99187,-635.82462zM-549.99187,-635.82462C-549.23794,-619.37842 -545.09084,-641.23723 -549.99187,-635.82462zM-521.53566,-623.57823L-521.648,-624.29987zM-517.2905,-624.81022C-515.87633,-618.50516 -515.56666,-633.09089 -517.2905,-624.81022zM-515.92419,-625.0583C-512.04768,-613.79492 -513.54062,-634.43379 -515.92419,-625.0583zM-497.11517,-624.64453C-489.30396,-623.95599 -501.81425,-641.69232 -497.11517,-624.64453zM-632.93706,-625.94089C-630.60836,-632.0885 -632.01143,-619.97041 -632.93706,-625.94089zM-654.28253,-623.05397C-651.85905,-631.41122 -653.09948,-615.11851 -654.28253,-623.05397zM-679.27481,-615.88267C-679.86554,-608.24803 -681.44497,-622.45647 -679.27481,-615.88267zM-705.06151,-440.57241L-705.75416,-439.18341zM-274.00978,-378.24617C-272.00396,-381.38441 -274.03528,-373.21561 -274.00978,-378.24617zM-407.04588,857.36972C-402.20048,860.64229 -411.15657,865.61228 -407.04588,857.36972zM-435.76138,861.35992C-428.01976,858.02314 -438.11296,872.21966 -435.76138,861.35992zM-412.30164,862.29771C-409.13941,868.74213 -419.41365,859.70511 -412.30164,862.29771z" stroke-dashoffset="0" stroke-miterlimit="4" stroke-linejoin="round" stroke-width="8" fill-rule="nonzero" fill="#e9d3c6" transform="rotate(359.19 275.448 1090.12) matrix(1 0 0 1 772.291 962.819)"/>
  <path label="casa" display="inline" id="imagebot_31" d="M322.52539,361.06445C309.22885,360.82248 297.85108,369.53573 284.60942,369.45793C267.15277,372.17516 249.6607,374.10161 232.4726,378.30654C217.17752,380.97803 202.04037,385.2502 187.12396,388.94188C174.88371,388.93078 163.83106,394.92938 152.71258,399.12959C137.05277,408.15807 140.13187,428.07466 131.39804,441.52921C126.95628,456.61159 125.4415,472.48911 118.27491,486.62593C113.1311,501.26641 101.43502,542.9364 101.43502,542.9364C101.43502,542.9364 122.73698,541.93603 135.264,542.8916C149.47488,541.86963 160.8044,538.86299 175.00204,538.89783C187.31981,538.92803 202.65937,540.80098 215.15436,541.00352C225.93254,541.17823 239.05751,540.87875 247.1933,541.4346C267.60306,543.39882 293.30101,540.85782 312.05765,539.97788C322.76083,539.47576 332.0858,540.63607 343.0596,542.5343C354.41576,544.26046 366.31787,541.74918 374.06968,542.91155C382.60503,544.19141 391.70433,540.19409 401.50643,543.61816C401.39572,536.05943 397.95172,524.45117 394.81055,515.80021C386.49763,502.05002 387.13137,487.60174 381.14259,471.22243C378.11158,462.93263 370.78891,447.35976 366.00743,436.16089C362.97379,419.54761 355.87997,404.27151 348.50366,389.19952C344.79613,378.42665 338.93787,362.97176 338.93787,362.97176C338.93787,362.97176 325.70484,361.09089 322.52539,361.06447L322.52539,361.06445z" stroke-dashoffset="0" stroke-miterlimit="4" stroke-linejoin="round" stroke-width="8" fill-rule="nonzero" fill="#d85454" transform="translate(-5.88106 -82.5412) matrix(-1.70205 0 0 1.70205 693.265 -468.52)"/>
  <path label="casa" display="inline" id="imagebot_30" d="M-468.2889,379.27379C-475.50152,381.53749 -483.9331,383.67591 -490.81088,383.0734C-499.39223,384.03852 -505.8985,387.97582 -514.54766,387.04507C-524.08445,383.50043 -531.10989,394.97917 -540.66001,389.72524C-548.1012,395.71823 -558.26317,394.60124 -566.40681,399.66491C-572.56912,406.39404 -574.1128,417.19217 -569.16944,424.1409C-569.6579,431.91605 -563.61307,440.4669 -564.43469,448.9346C-563.52224,456.80111 -561.81963,464.39575 -559.84021,471.95504C-558.41696,479.34242 -555.73614,486.25944 -555.09363,493.86899C-551.32621,503.95238 -559.01155,516.81827 -551.29541,525.08114C-548.20779,533.34454 -545.24726,542.11958 -544.56752,551.01227C-543.57582,559.9584 -542.52824,570.34031 -536.54584,576.69286C-530.09532,581.30735 -522.21659,578.03571 -514.94043,578.84052C-507.95428,580.66863 -500.83498,576.88155 -494.13151,579.20817C-486.1949,581.38743 -479.2878,575.79803 -472.14593,577.52611C-465.6695,580.88061 -456.49577,576.24441 -448.52762,577.53854C-441.7574,571.5945 -426.20749,576.82346 -424.35437,566.78836C-426.08044,560.52438 -419.32045,557.56848 -421.83754,550.44877C-423.54123,541.76248 -424.57343,533.11 -427.25869,524.79466C-428.74603,515.48756 -433.24619,507.31734 -432.37927,496.83944C-436.24365,488.168 -436.55439,480.49534 -436.44734,471.46077C-439.27804,466.74489 -433.72957,463.44699 -439.78316,463.3175C-441.9967,456.4366 -443.25861,449.00338 -446.28832,441.47595C-447.96616,437.1276 -447.31661,428.38723 -448.88718,426.61888C-447.61371,431.20998 -451.83981,420.63455 -451.57299,419.04354C-447.80555,408.15196 -454.78225,398.94436 -458.97296,390.21145C-459.74083,384.22349 -461.75549,377.94052 -468.2889,379.27407L-468.2889,379.27379zM-449.95273,422.17728C-449.63484,421.27481 -449.74472,421.5868 -449.95273,422.17728zM-448.99738,424.42956C-447.34553,424.96231 -449.01174,421.41215 -448.99738,424.42956zM-448.28289,423.35398C-447.97138,422.66736 -449.34828,423.14265 -448.28289,423.35398zM-443.89552,446.89714C-443.94914,448.64623 -443.04635,446.91356 -443.89552,446.89714zM-442.01695,452.09117L-440.98979,451.56691L-442.01695,452.09117zM-443.53025,453.2173C-441.47,455.44026 -442.20018,451.07248 -443.53025,453.2173zM-442.02498,458.8158C-439.1964,458.29911 -443.13668,457.09187 -442.02498,458.8158zM-440.51168,460.20396C-436.94259,461.53821 -442.15806,455.74096 -440.51168,460.20396zM-439.13888,460.92559L-438.63344,461.16742L-439.13888,460.92559zM-439.98985,462.3689C-440.09345,465.39976 -438.29189,463.06453 -439.98985,462.3689zM-430.78966,572.87736C-431.98723,572.30282 -430.33393,573.97827 -430.78966,572.87736zM-454.6331,577.84617C-457.22045,577.44941 -455.25411,579.44495 -454.6331,577.84617zM-460.42939,578.29661C-461.54193,576.42019 -461.67681,580.37181 -460.42939,578.29661zM-461.59748,578.59079C-463.73525,578.95805 -461.00921,583.27768 -461.59748,578.59079zM-496.88099,579.56526L-497.46123,579.75751L-496.88099,579.56526zM-510.95024,578.45289C-513.69972,578.13076 -507.53858,579.6659 -510.95024,578.45289zM-539.79921,572.30282C-541.84628,569.67793 -541.17407,574.05505 -539.79921,572.30282zM-542.46856,564.98982L-542.5427,565.06468L-542.46856,564.98982zM-563.26134,458.08958C-563.83875,456.51435 -563.78342,460.55946 -563.26134,458.08958zM-563.49416,457.64369C-562.40575,456.71445 -564.01469,456.87716 -563.49416,457.64369zM-564.03204,446.23525C-563.50108,446.54098 -564.07032,445.63604 -564.03204,446.23525zM-566.34814,432.07351C-568.43375,430.86568 -569.097,434.61144 -566.34814,432.07351zM-470.33609,381.93514L-470.18914,381.97559L-470.33609,381.93514zM-481.61957,382.43616C-477.91802,381.3929 -481.86056,384.44566 -481.61957,382.43616zM-465.57942,390.74659C-464.30099,390.71677 -465.52882,391.86028 -465.57942,390.74659zM-464.75654,390.76543C-463.35409,390.58916 -465.25723,392.04293 -464.75654,390.76543zM-564.7345,399.95378C-564.42382,400.86483 -565.75345,399.92733 -564.7345,399.95378zM-452.40532,404.2331C-449.75069,405.18574 -454.23666,406.47176 -452.40532,404.2331zM-452.04003,417.62725C-450.83236,419.19941 -454.3954,416.77641 -452.04003,417.62725zM-567.94975,427.90497C-562.20763,430.07974 -572.39412,427.76448 -567.94975,427.90497zM-565.46907,439.27203C-564.50765,440.79634 -566.87245,439.39169 -565.46907,439.27203zM-445.52523,446.4885C-445.22041,446.95402 -446.94302,446.06827 -445.52523,446.4885zM-437.46903,472.16443C-433.61964,473.42503 -438.88724,475.33532 -437.46903,472.16443zM-553.79621,498.8194L-553.42264,498.88967L-553.79621,498.8194zM-541.95474,563.40435C-540.96622,563.50324 -542.38419,564.89358 -541.95474,563.40435zM-529.22618,569.58661C-528.09079,571.2788 -530.71018,570.80234 -529.22618,569.58661zM-442.56283,570.6576C-440.05653,571.15715 -441.90334,574.28933 -442.56283,570.6576zM-437.74196,570.98395C-433.84268,574.43625 -443.74915,571.58358 -437.74196,570.98395zM-431.9256,571.42979C-431.54186,572.79121 -433.62295,571.45937 -431.9256,571.42979zM-443.90354,572.28014C-442.86915,572.72484 -445.36918,572.45808 -443.90354,572.28014zM-437.56937,572.90066C-437.2928,573.35751 -438.20881,572.97505 -437.56937,572.90066zM-442.42636,574.08198C-440.6808,575.63122 -444.13993,574.14561 -442.42636,574.08198zM-523.97179,577.63964C-522.28078,577.62721 -524.53205,578.29364 -523.97179,577.63964zM-531.69885,577.97519C-529.9338,579.20335 -534.51592,578.35953 -531.69885,577.97519z" stroke-width="1px" fill-rule="evenodd" fill="#9788af" transform="translate(-5.88106 -82.5412) matrix(1 0 0 1 682.805 985.761)"/>
  <path label="casa" display="inline" id="imagebot_29" d="M-418.7291,684.97426C-422.98719,687.30588 -428.1908,685.55609 -430.90608,687.30129C-432.20919,686.28913 -435.61507,694.90629 -435.25762,695.33285C-436.07796,698.98464 -434.94958,697.96734 -435.41387,701.32328C-436.68927,704.92702 -433.89516,705.97169 -435.26102,708.70992C-436.68692,712.50986 -434.21314,710.69098 -436.41124,714.93971C-438.14451,716.96543 -435.29396,718.15646 -435.34745,720.2686C-436.39927,721.77398 -438.1159,725.05953 -435.2278,727.52228C-437.09177,728.21978 -435.51368,732.81243 -437.06283,736.51125C-435.67569,740.71776 -438.16828,741.41754 -434.85216,742.24903C-437.88118,743.31347 -435.61294,746.51384 -437.62133,747.302C-434.59506,749.57357 -441.499,748.97062 -437.69453,749.93153C-437.26033,752.67696 -437.61253,752.74796 -438.45249,755.44326C-438.56244,757.59649 -437.19152,762.55384 -439.32013,764.30924C-441.03219,769.6846 -440.81453,773.83938 -441.4344,779.84048C-440.57473,783.35496 -444.13957,787.15827 -443.50546,791.81468C-444.87086,797.05336 -442.98443,799.10427 -445.36708,803.73903C-444.4086,807.58712 -444.78045,811.01757 -445.74938,812.5618C-446.03427,816.25285 -446.06228,821.57078 -446.82645,825.05128C-446.4393,826.80061 -447.34105,832.74613 -446.85305,834.01698C-447.48032,835.4778 -445.82478,838.74901 -447.72402,840.78198C-447.32707,842.2698 -449.24363,848.51002 -446.69348,850.98099C-448.84971,853.44386 -446.86351,857.18091 -448.44872,860.61157C-446.13138,863.93959 -448.11331,866.85395 -448.71467,868.79605C-450.77351,871.8554 -451.23832,876.21577 -450.56631,877.98448C-452.89925,879.85548 -453.57429,882.21499 -452.69722,884.62315C-450.95559,886.32218 -456.40175,888.2095 -453.50169,892.42533C-454.08286,896.50587 -455.7875,898.74514 -455.51291,901.85645C-456.06567,906.39208 -455.74403,907.08189 -456.71299,910.03761C-457.28086,912.77789 -455.71498,915.61047 -458.44497,918.44815C-458.78228,922.35343 -460.29872,923.86298 -458.24884,927.71636C-458.525,932.20365 -455.78101,931.08612 -452.48112,932.57984C-451.68017,930.25812 -451.29316,935.69414 -448.09303,931.94157C-447.66491,932.49853 -447.23635,932.73195 -446.79986,932.78262C-446.75356,933.24577 -445.46167,933.09619 -445.87237,932.64629C-444.76502,932.27296 -443.60828,931.30699 -442.35191,931.68888C-440.9201,932.67126 -439.3822,932.50912 -438.16992,932.34378C-438.15292,932.40358 -437.95697,932.42688 -437.36542,932.30718C-437.37442,932.28008 -437.39742,932.27088 -437.41202,932.25068C-436.69071,932.17508 -436.17143,932.21448 -436.01581,932.76262C-431.80399,933.20608 -428.47604,933.21093 -426.11929,932.81252C-427.1708,933.59817 -423.3655,933.62487 -425.40788,932.67295C-425.20579,932.62665 -424.95263,932.60065 -424.76961,932.54665C-418.38836,935.28965 -412.36972,932.50785 -405.15611,934.99004C-402.05284,932.61424 -395.34663,936.66728 -392.16133,934.88689C-387.86218,934.92039 -387.08546,932.40595 -380.11399,934.95349C-379.4631,933.48702 -374.24285,935.18955 -370.56652,934.33849C-365.1961,935.20914 -359.53374,934.74702 -358.5923,935.02331C-354.44365,933.39118 -352.55609,939.12877 -348.61268,934.27533C-345.12879,934.57746 -337.54951,934.40366 -333.16456,935.6383C-330.40199,937.54763 -332.73544,929.15225 -329.50448,935.31584C-328.73061,931.5011 -324.47474,935.84871 -322.40373,933.78001C-315.946,934.03981 -320.69089,933.31457 -318.55748,932.99547C-312.82997,937.12479 -304.80807,928.15471 -307.77005,923.8702C-309.79676,921.8933 -307.06739,917.76088 -308.9668,917.53071C-306.21911,916.78404 -309.86205,913.3897 -308.15567,911.2976C-308.36084,912.14734 -306.95693,910.88198 -308.12567,911.2677C-308.05747,911.1872 -307.99819,911.10464 -307.91292,911.02834C-307.80382,906.25871 -307.06555,905.7028 -306.13109,901.50082C-308.50207,900.1395 -303.98189,896.48466 -306.58984,894.2139C-306.63954,893.19003 -307.42092,890.30224 -307.05192,887.69158C-306.20329,885.71805 -308.40379,884.67348 -306.43693,884.05477C-309.01655,884.00457 -304.19628,878.70042 -305.67233,875.70741C-305.11905,872.84096 -304.26147,870.131 -305.54928,867.70243C-302.77755,864.60804 -306.3815,862.45799 -302.50088,861.34633C-303.94803,859.92188 -302.95921,856.02402 -303.86385,854.34862C-301.68201,851.5714 -303.42033,848.65058 -302.91974,847.03179C-301.64237,843.97318 -303.67719,840.93372 -303.02612,839.47892C-300.93848,835.56641 -301.33674,830.862 -301.31741,827.21549C-302.40281,824.64102 -298.23099,825.23891 -300.81544,822.56808C-300.36596,819.46745 -298.68837,817.00683 -300.60602,813.66556C-299.10151,811.45866 -299.27234,807.21481 -299.54887,803.7358C-298.42969,799.20559 -301.13943,798.16007 -299.1832,794.28807C-300.03716,792.09309 -299.80251,783.16536 -297.64072,782.44352C-297.83565,778.40313 -299.47148,775.16967 -296.43066,771.96525C-294.00438,766.86293 -297.13541,763.7351 -294.21334,761.61329C-294.55552,756.38799 -295.19592,749.49618 -295.47325,745.31747C-294.6235,743.84143 -294.31654,740.19856 -295.30373,738.83503C-296.3227,731.71658 -293.28569,733.76225 -296.40407,726.82093C-294.61532,721.78668 -294.91922,718.85234 -294.09367,714.88993C-293.13094,711.77382 -295.17191,705.30662 -298.20255,704.78066C-298.15235,703.93428 -302.33011,702.40868 -304.06332,703.14509C-306.74194,703.11939 -313.07967,698.54157 -316.86198,700.88123C-323.20281,702.10027 -327.00267,699.82805 -332.94837,700.19974C-337.52994,698.44588 -339.65375,701.45155 -337.26667,697.32753C-341.00749,697.7806 -347.21551,693.91772 -352.19288,694.28245C-356.1946,691.03325 -363.19089,697.62188 -365.63645,693.54446C-358.45959,691.81459 -373.02438,693.70547 -373.6547,692.31113C-376.4074,690.59924 -382.66858,691.60333 -385.6256,692.53053C-385.74305,692.55403 -385.8412,692.54243 -385.95471,692.55703C-386.80928,691.51598 -387.46767,690.15946 -388.66071,689.60836C-390.62714,688.70009 -399.57284,688.86401 -401.49593,688.8504C-401.8946,688.8606 -401.7369,688.8606 -402.10427,688.8703C-407.00399,686.99586 -413.18502,686.83985 -418.72922,684.9742L-418.7291,684.97426zM-383.74058,691.06775C-383.82178,691.08135 -383.88882,691.13075 -383.93007,691.23404C-381.9102,692.7136 -383.17214,690.97296 -383.74058,691.06775zM-298.10269,704.66091C-298.11289,704.65391 -298.14229,704.65591 -298.20906,704.67791C-298.23496,704.78361 -298.07324,704.68091 -298.10269,704.66091zM-438.66506,762.13512L-438.67526,762.14532L-438.66506,762.13512zM-304.88431,762.31797C-304.80821,762.42639 -304.7633,762.51691 -304.67819,762.63045C-304.76539,762.66295 -304.83563,762.71485 -304.91755,762.75351L-304.88435,762.31802L-304.88431,762.31797zM-310.6088,836.7529C-310.5441,836.7854 -310.5552,836.8179 -310.619,836.8526L-310.6088,836.7529zM-305.55249,868.26747C-305.42688,868.44959 -305.78291,868.39343 -305.55249,868.26747zM-453.12586,885.17831C-453.41053,885.24251 -453.59675,885.56662 -452.83997,885.23481C-452.92557,885.16451 -453.03097,885.15691 -453.12586,885.17831zM-452.12192,891.54107C-451.40788,891.9846 -453.06932,893.26208 -452.12192,891.54107zM-450.48967,920.39952L-450.58937,921.31039C-450.6932,921.15261 -450.75753,921.09546 -450.91183,920.82171C-450.88203,920.55322 -450.71296,920.4449 -450.48963,920.39952zM-315.90777,921.99188C-315.02093,921.97328 -316.86483,922.44355 -315.90777,921.99188zM-314.02952,922.46061C-312.61846,922.60154 -314.68675,923.88871 -314.02952,922.46061zM-398.55045,922.93931L-397.12098,922.93931C-397.52311,923.07956 -397.76667,923.17673 -398.33104,923.35817C-398.39844,923.19715 -398.47691,923.07845 -398.55045,922.93931zM-376.57999,922.93931L-373.58146,922.93931C-374.6359,923.27165 -375.62944,923.17128 -376.57999,922.93931zM-372.22181,922.93931L-368.03981,922.93931C-369.04375,923.69218 -370.09164,924.49817 -372.22181,922.93931zM-364.63237,922.93931L-364.18027,922.93931C-364.26977,922.98191 -364.37818,923.01831 -364.46283,923.06237C-364.52293,923.01177 -364.57414,922.98497 -364.63235,922.93931zM-448.11611,924.13939C-447.03603,924.10929 -448.34445,925.2123 -448.11611,924.13939zM-318.73011,925.92122C-318.42299,925.93892 -318.89266,926.039 -318.73011,925.92122zM-319.04261,926.43316C-318.23541,927.65672 -319.39679,926.7556 -319.04261,926.43316zM-456.36043,931.93492L-456.27073,932.38038L-456.36043,931.93492zM-445.06771,932.77265C-445.27514,932.78455 -445.5464,932.85095 -445.89545,932.99206C-445.32527,935.25785 -443.61562,932.69242 -445.06771,932.77265zM-317.8525,933.41424L-318.22482,933.50734L-317.8525,933.41424zM-369.67205,933.50074C-368.63109,933.80046 -370.16963,933.94828 -369.67205,933.50074zM-326.55226,934.11573C-328.96408,934.10383 -330.82781,935.22914 -325.50508,934.19883C-325.85268,934.14093 -326.20771,934.11743 -326.55226,934.11573zM-387.32088,934.21887C-389.83192,934.78237 -385.15832,934.90984 -387.32088,934.21887zM-358.19648,934.41502C-357.02395,934.47582 -359.44928,935.09518 -358.19648,934.41502zM-402.48645,934.63441L-402.52625,934.66101L-402.48645,934.63441z" stroke-width="1px" fill-rule="evenodd" fill="#c1573a" transform="translate(-5.88106 -82.5412) matrix(1 0 0 1 682.805 985.758)"/>
  <path label="casa" display="inline" id="imagebot_28" d="M-358.92045,80.70244C-350.28006,80.25615 -343.4834,86.17228 -335.75162,87.74273C-328.81934,91.6177 -320.81145,98.58819 -311.88313,100.13647C-304.73113,103.74832 -295.96321,105.9642 -288.70141,111.20846C-280.28289,116.58195 -270.08861,120.23027 -263.41667,127.87559C-265.83223,132.4272 -266.9779,138.77985 -271.64524,144.70076C-276.71672,150.85413 -278.52071,160.40383 -282.5095,167.87109C-285.64808,175.93897 -287.08999,184.58237 -291.6,189.71005C-292.97689,198.40805 -297.59497,205.39014 -298.92489,214.39718C-302.2334,224.57897 -310.7423,231.8683 -313.35256,242.10796C-316.05637,251.40357 -319.48467,261.06071 -323.73258,269.3334C-326.36179,277.82501 -336.11972,281.22933 -342.75596,274.29908C-349.16517,273.58604 -357.50508,275.98779 -365.35328,270.50017C-373.35167,266.33303 -381.99552,263.88891 -390.42433,261.66272C-398.63735,255.95507 -408.0347,252.60884 -416.34388,247.09622C-424.07268,246.7121 -438.34841,242.96427 -432.4819,232.666C-431.27088,223.74137 -427.16928,215.92817 -424.33659,207.34946C-419.54284,201.07375 -414.2175,196.34219 -410.80579,187.52625C-408.76176,179.34806 -403.07859,173.05099 -399.70191,165.46679C-394.78859,158.36376 -395.45185,149.71828 -389.99096,143.03412C-384.0378,134.6336 -379.31166,126.00626 -376.91359,115.71687C-374.46587,109.52117 -371.52831,101.96629 -368.20587,96.92412C-368.45626,89.62954 -364.72628,81.56979 -358.92045,80.70244zM-375.61096,113.56432L-376.06362,113.37655L-375.61096,113.56432zM-425.29609,210.05962C-425.89883,211.97055 -426.83755,208.97345 -425.29609,210.05962zM-426.61994,215.07672C-427.56217,215.09812 -426.16169,214.57988 -426.61994,215.07672zM-426.97434,214.86608C-429.22022,214.2609 -425.80004,214.11191 -426.97434,214.86608zM-427.03674,214.88198L-427.38996,214.67119L-427.03674,214.88198zM-427.39589,214.65501C-428.07707,213.97282 -427.78793,214.26238 -427.39589,214.65501zM-427.13117,214.90983L-427.08417,214.94923zM-427.08417,214.94923L-426.80848,215.12756zM-427.63651,215.88916C-427.942,214.71627 -426.51389,215.85416 -427.63651,215.88916zM-431.67006,229.35445C-432.10304,228.89821 -430.67038,228.64161 -431.67006,229.35445zM-431.48141,228.89511C-431.38471,228.31341 -430.19781,228.71198 -431.48141,228.89511zM-431.58365,231.11526C-430.94729,231.42882 -432.34796,231.3991 -431.58365,231.11526zM-417.91187,246.93377C-417.31683,246.97107 -418.44355,247.53096 -417.91187,246.93377zM-413.22637,248.72224C-413.53097,249.18869 -413.53281,248.05737 -413.22637,248.72224zM-413.39479,248.823C-412.05821,250.36436 -414.80961,249.28999 -413.39479,248.823zM-412.04818,249.73172C-411.27936,251.15332 -412.8876,249.15017 -412.04818,249.73172zM-343.6762,273.96589C-341.62229,274.52007 -345.31017,276.13092 -343.6762,273.96589zM-341.53678,275.0622C-340.79807,275.94766 -342.86369,275.65555 -341.53678,275.0622zM-340.91978,275.18098L-340.82058,275.29618zM-312.21469,238.01692C-313.34731,237.02253 -310.74741,237.53588 -312.21469,238.01692zM-267.08818,135.64572C-266.07086,135.87804 -267.35206,136.02608 -267.08818,135.64572zM-266.82096,135.89036L-266.52199,136.3382zM-266.72246,135.91536C-267.83144,134.16928 -265.15732,135.79026 -266.72246,135.91536zM-265.71314,134.01338C-267.73611,132.69064 -262.90401,133.36752 -265.71314,134.01338zM-265.5438,133.08194C-267.16849,133.69144 -264.52129,132.37986 -265.5438,133.08194zM-264.41713,130.86663C-264.04125,130.63424 -264.54867,131.74694 -264.41713,130.86663zM-352.66733,81.32973C-353.0493,80.9974 -352.11277,80.85467 -352.66733,81.32973zM-352.80071,81.08728L-352.90061,81.19912zM-359.81261,91.0309C-360.54253,92.88468 -356.10485,90.65285 -359.81261,91.0309zM-354.58814,91.72043L-354.64874,92.00554zM-354.76454,92.04536C-355.55704,92.52202 -354.15993,92.27329 -354.76454,92.04536zM-354.64336,92.05877C-354.87528,92.58326 -353.87065,91.95944 -354.64336,92.05877zM-355.82221,92.36372C-354.75465,93.70467 -354.417,92.17344 -355.82221,92.36372zM-355.31235,92.35802C-351.85303,92.25777 -356.82241,92.99594 -355.31235,92.35802zM-352.76265,93.49358C-354.97556,96.74633 -354.86794,98.16331 -352.76265,93.49358zM-264.06908,128.55303C-265.82702,128.01832 -263.25283,130.55307 -264.06908,128.55303zM-392.53265,149.62467C-392.99274,150.47232 -392.00053,149.71607 -392.53265,149.62467zM-425.13063,210.60647C-425.93704,210.80432 -424.43118,211.28143 -425.13063,210.60647z" stroke-width="1px" fill-rule="evenodd" fill="#ff7f2a" transform="translate(-5.88106 -82.5412) matrix(1 0 0 1 716.183 2.285)"/>
  <path label="casa" display="inline" d="M-468.2889,379.27379C-475.50152,381.53749 -483.9331,383.67591 -490.81088,383.0734C-499.39223,384.03852 -505.8985,387.97582 -514.54766,387.04507C-524.08445,383.50043 -531.10989,394.97917 -540.66001,389.72524C-548.1012,395.71823 -558.26317,394.60124 -566.40681,399.66491C-572.56912,406.39404 -574.1128,417.19217 -569.16944,424.1409C-569.6579,431.91605 -563.61307,440.4669 -564.43469,448.9346C-563.52224,456.80111 -561.81963,464.39575 -559.84021,471.95504C-558.41696,479.34242 -555.73614,486.25944 -555.09363,493.86899C-551.32621,503.95238 -559.01155,516.81827 -551.29541,525.08114C-548.20779,533.34454 -545.24726,542.11958 -544.56752,551.01227C-543.57582,559.9584 -542.52824,570.34031 -536.54584,576.69286C-530.09532,581.30735 -522.21659,578.03571 -514.94043,578.84052C-507.95428,580.66863 -500.83498,576.88155 -494.13151,579.20817C-486.1949,581.38743 -479.2878,575.79803 -472.14593,577.52611C-465.6695,580.88061 -456.49577,576.24441 -448.52762,577.53854C-441.7574,571.5945 -426.20749,576.82346 -424.35437,566.78836C-426.08044,560.52438 -419.32045,557.56848 -421.83754,550.44877C-423.54123,541.76248 -424.57343,533.11 -427.25869,524.79466C-428.74603,515.48756 -433.24619,507.31734 -432.37927,496.83944C-436.24365,488.168 -436.55439,480.49534 -436.44734,471.46077C-439.27804,466.74489 -433.72957,463.44699 -439.78316,463.3175C-441.9967,456.4366 -443.25861,449.00338 -446.28832,441.47595C-447.96616,437.1276 -447.31661,428.38723 -448.88718,426.61888C-447.61371,431.20998 -451.83981,420.63455 -451.57299,419.04354C-447.80555,408.15196 -454.78225,398.94436 -458.97296,390.21145C-459.74083,384.22349 -461.75549,377.94052 -468.2889,379.27407L-468.2889,379.27379zM-449.95273,422.17728C-449.63484,421.27481 -449.74472,421.5868 -449.95273,422.17728zM-448.99738,424.42956C-447.34553,424.96231 -449.01174,421.41215 -448.99738,424.42956zM-448.28289,423.35398C-447.97138,422.66736 -449.34828,423.14265 -448.28289,423.35398zM-443.89552,446.89714C-443.94914,448.64623 -443.04635,446.91356 -443.89552,446.89714zM-442.01695,452.09117L-440.98979,451.56691L-442.01695,452.09117zM-443.53025,453.2173C-441.47,455.44026 -442.20018,451.07248 -443.53025,453.2173zM-442.02498,458.8158C-439.1964,458.29911 -443.13668,457.09187 -442.02498,458.8158zM-440.51168,460.20396C-436.94259,461.53821 -442.15806,455.74096 -440.51168,460.20396zM-439.13888,460.92559L-438.63344,461.16742L-439.13888,460.92559zM-439.98985,462.3689C-440.09345,465.39976 -438.29189,463.06453 -439.98985,462.3689zM-430.78966,572.87736C-431.98723,572.30282 -430.33393,573.97827 -430.78966,572.87736zM-454.6331,577.84617C-457.22045,577.44941 -455.25411,579.44495 -454.6331,577.84617zM-460.42939,578.29661C-461.54193,576.42019 -461.67681,580.37181 -460.42939,578.29661zM-461.59748,578.59079C-463.73525,578.95805 -461.00921,583.27768 -461.59748,578.59079zM-496.88099,579.56526L-497.46123,579.75751L-496.88099,579.56526zM-510.95024,578.45289C-513.69972,578.13076 -507.53858,579.6659 -510.95024,578.45289zM-539.79921,572.30282C-541.84628,569.67793 -541.17407,574.05505 -539.79921,572.30282zM-542.46856,564.98982L-542.5427,565.06468L-542.46856,564.98982zM-563.26134,458.08958C-563.83875,456.51435 -563.78342,460.55946 -563.26134,458.08958zM-563.49416,457.64369C-562.40575,456.71445 -564.01469,456.87716 -563.49416,457.64369zM-564.03204,446.23525C-563.50108,446.54098 -564.07032,445.63604 -564.03204,446.23525zM-566.34814,432.07351C-568.43375,430.86568 -569.097,434.61144 -566.34814,432.07351zM-470.33609,381.93514L-470.18914,381.97559L-470.33609,381.93514zM-481.61957,382.43616C-477.91802,381.3929 -481.86056,384.44566 -481.61957,382.43616zM-465.57942,390.74659C-464.30099,390.71677 -465.52882,391.86028 -465.57942,390.74659zM-464.75654,390.76543C-463.35409,390.58916 -465.25723,392.04293 -464.75654,390.76543zM-564.7345,399.95378C-564.42382,400.86483 -565.75345,399.92733 -564.7345,399.95378zM-452.40532,404.2331C-449.75069,405.18574 -454.23666,406.47176 -452.40532,404.2331zM-452.04003,417.62725C-450.83236,419.19941 -454.3954,416.77641 -452.04003,417.62725zM-567.94975,427.90497C-562.20763,430.07974 -572.39412,427.76448 -567.94975,427.90497zM-565.46907,439.27203C-564.50765,440.79634 -566.87245,439.39169 -565.46907,439.27203zM-445.52523,446.4885C-445.22041,446.95402 -446.94302,446.06827 -445.52523,446.4885zM-437.46903,472.16443C-433.61964,473.42503 -438.88724,475.33532 -437.46903,472.16443zM-553.79621,498.8194L-553.42264,498.88967L-553.79621,498.8194zM-541.95474,563.40435C-540.96622,563.50324 -542.38419,564.89358 -541.95474,563.40435zM-529.22618,569.58661C-528.09079,571.2788 -530.71018,570.80234 -529.22618,569.58661zM-442.56283,570.6576C-440.05653,571.15715 -441.90334,574.28933 -442.56283,570.6576zM-437.74196,570.98395C-433.84268,574.43625 -443.74915,571.58358 -437.74196,570.98395zM-431.9256,571.42979C-431.54186,572.79121 -433.62295,571.45937 -431.9256,571.42979zM-443.90354,572.28014C-442.86915,572.72484 -445.36918,572.45808 -443.90354,572.28014zM-437.56937,572.90066C-437.2928,573.35751 -438.20881,572.97505 -437.56937,572.90066zM-442.42636,574.08198C-440.6808,575.63122 -444.13993,574.14561 -442.42636,574.08198zM-523.97179,577.63964C-522.28078,577.62721 -524.53205,578.29364 -523.97179,577.63964zM-531.69885,577.97519C-529.9338,579.20335 -534.51592,578.35953 -531.69885,577.97519z" stroke-width="1px" fill-rule="evenodd" fill="#9788af" transform="translate(-5.88106 -82.5412) matrix(1 0 0 1 909.302 967.881)" id="imagebot_27"/>
  <path label="casa" display="inline" id="imagebot_26" d="M-385.17619,385.3097C-410.41607,391.66486 -437.07018,382.8219 -462.16276,388.7545C-485.61023,396.93635 -510.38464,403.02463 -535.2456,398.44535C-565.95986,406.37514 -597.84608,405.30419 -628.52243,413.37332C-650.82981,419.59484 -674.66003,415.15357 -696.62284,421.01778C-709.21515,435.45045 -703.47399,459.77897 -701.92377,478.98308C-702.14341,492.93899 -696.08661,509.70581 -697.45535,511.03866C-695.34877,524.11608 -698.4756,541.62475 -692.07913,550.18498C-700.16641,571.90683 -686.29696,587.17863 -669.07391,577.02465C-646.41065,574.2762 -622.37015,579.82302 -600.79499,569.32096C-574.77381,571.12595 -549.38288,564.27325 -524.12879,559.01053C-514.54341,557.23256 -495.7944,552.67046 -499.26938,557.04467C-472.20698,560.02337 -448.47101,541.64115 -421.78557,541.2793C-404.27952,536.25897 -389.68052,548.05408 -371.46853,539.22705C-353.1295,544.35492 -333.51748,523.58279 -313.36558,534.96785C-297.22622,525.05077 -276.56469,532.07306 -256.54442,530.63233C-236.47473,526.56889 -216.2338,521.6461 -195.44538,528.61833C-170.16745,535.80764 -180.64712,498.98344 -181.43644,482.87287C-183.98801,463.50828 -189.26401,444.93456 -188.28328,428.15985C-189.79884,409.09647 -185.37054,385.90356 -197.11106,368.80827C-217.58793,369.31336 -237.58638,375.21273 -257.96026,376.23478C-274.86512,379.83923 -292.14849,373.96913 -308.31966,377.11214C-344.05332,386.33311 -348.3813,365.57898 -385.17619,385.30964L-385.17619,385.3097zM-299.93558,401.51776C-281.88578,402.94183 -269.21168,404.02198 -251.55583,397.1106C-238.39608,399.27539 -202.8604,383.76879 -209.71357,413.36601C-206.33112,436.27494 -209.48803,456.59631 -206.26534,479.8117C-209.15786,490.51323 -193.57113,505.69973 -211.6059,496.83159C-219.61342,495.81094 -236.97812,497.44165 -226.4137,484.49244C-239.63559,470.33837 -237.55157,424.91547 -242.40927,403.76534C-241.19299,385.26661 -269.57671,376.96153 -260.87688,403.13483C-247.37774,421.72346 -253.34932,462.6797 -246.10743,482.48931C-251.37091,492.15747 -236.77181,497.34735 -251.23077,501.91287C-268.28242,505.49469 -295.74885,503.32887 -290.249,473.11316C-283.80015,455.75436 -297.08632,444.74202 -297.55642,424.41085C-298.59644,416.8072 -299.20795,409.15488 -299.93551,401.51774L-299.93558,401.51776zM-427.52417,416.05471C-414.61864,414.09403 -434.97616,437.69132 -423.64201,448.72342C-415.19021,467.47326 -412.05016,489.41343 -413.84276,510.20042C-424.34533,519.39515 -446.05771,508.84935 -458.23362,521.92397C-451.36574,508.60162 -459.63488,497.82092 -458.23184,483.22707C-460.89812,463.9547 -465.74746,439.67591 -466.0119,423.60904C-454.13305,417.07645 -440.147,419.34329 -427.52493,416.05471zM-384.03694,411.71175C-366.84891,405.16777 -367.06157,434.38765 -362.32052,448.00778C-362.41787,457.54718 -362.4483,474.06463 -359.1409,471.36159C-357.67808,480.15229 -355.35412,491.63895 -355.82452,505.26048C-367.02954,510.82756 -392.05273,520.75254 -398.48239,506.61488C-400.12648,486.34954 -403.72624,465.22954 -406.67311,443.76435C-425.12616,416.16023 -399.96678,415.05267 -384.03694,411.71175zM-361.16271,472.18899C-361.23568,474.58376 -361.21006,473.74199 -361.16271,472.18899zM-314.59856,406.95295C-315.97401,429.59183 -303.75772,450.94147 -301.41074,472.28182C-302.95753,488.89975 -297.68241,508.52263 -317.90376,505.97672C-325.90527,511.18862 -325.19185,516.14162 -332.64393,508.17121C-337.73854,509.61545 -352.72677,514.87939 -341.54768,507.45287C-343.5103,484.88686 -343.16716,461.74535 -350.49307,439.69045C-351.88739,426.33385 -360.10778,406.0752 -342.1091,412.62304C-332.9988,410.41776 -323.90629,407.97568 -314.59856,406.95295zM-681.96079,447.44715C-665.38036,445.95954 -645.1313,446.53185 -643.92947,472.56711C-650.48653,487.31005 -649.68577,516.93661 -638.8157,532.12452C-638.96948,540.94039 -665.47017,556.77336 -672.97546,537.84417C-678.91732,528.34367 -673.39421,502.40222 -680.01387,501.99483C-669.34924,494.59143 -689.37047,472.00405 -676.72294,463.73377C-677.32739,457.98678 -679.15119,452.24513 -681.96079,447.44715zM-482.74535,426.53395C-477.54726,443.24478 -477.70458,462.95896 -475.03944,478.08698C-467.65284,484.49256 -473.99296,528.46763 -482.04912,529.29384C-490.35761,531.94572 -506.97388,527.31896 -511.52794,526.19017C-518.22831,504.08369 -517.09065,481.32231 -518.46228,458.24371C-523.61811,443.46336 -526.1076,428.3888 -508.20983,433.66736C-498.45913,435.94051 -491.00429,430.79327 -482.74535,426.53395zM-472.16838,524.71969C-473.77768,522.92241 -473.50907,523.22241 -472.16838,524.71969zM-473.49686,523.23601C-474.78997,521.10759 -474.56765,521.47347 -473.49686,523.23601zM-472.09076,482.97891C-480.56435,479.2369 -472.96884,487.22508 -472.09076,482.97891zM-615.86492,441.62301C-594.2081,432.89228 -583.94231,461.75471 -593.31686,481.82456C-584.5317,499.63466 -583.90061,518.35394 -584.95476,535.9059C-575.23466,544.13179 -562.1789,530.21282 -572.64517,523.1525C-563.9549,517.36299 -578.82168,494.80851 -573.98965,480.74153C-578.83978,462.3258 -584.97944,435.17421 -562.34004,437.65765C-554.79309,429.59891 -536.82832,441.44692 -539.32636,437.75233C-537.31056,440.28265 -537.99832,472.40182 -534.89824,486.00159C-533.17279,498.44893 -531.77716,518.23034 -527.4035,521.5003C-523.02052,544.20996 -537.7748,524.08714 -545.50931,532.73888C-531.09046,543.5736 -560.02426,531.45167 -566.7268,537.34163C-584.59184,537.1843 -600.87917,534.46481 -617.6353,541.72124C-631.65599,542.57537 -624.33199,528.1231 -629.5713,519.28431C-624.3867,494.68747 -638.54482,467.28021 -632.95279,444.48438C-627.70888,441.34347 -621.42946,443.37988 -615.86492,441.62295zM-628.48629,540.20347C-626.19316,540.99549 -629.12637,541.88069 -628.48629,540.20347z" stroke-dashoffset="0" stroke-miterlimit="4" stroke-linejoin="round" stroke-width="8" fill-rule="nonzero" fill="#b5c1c1" transform="translate(-5.88106 -82.5412) matrix(1 0 0 1 730.488 1063.25)"/>
  <title label="casa" display="inline"/>
  <path label="casa" display="inline" d="M-468.2889,379.27379C-475.50152,381.53749 -483.9331,383.67591 -490.81088,383.0734C-499.39223,384.03852 -505.8985,387.97582 -514.54766,387.04507C-524.08445,383.50043 -531.10989,394.97917 -540.66001,389.72524C-548.1012,395.71823 -558.26317,394.60124 -566.40681,399.66491C-572.56912,406.39404 -574.1128,417.19217 -569.16944,424.1409C-569.6579,431.91605 -563.61307,440.4669 -564.43469,448.9346C-563.52224,456.80111 -561.81963,464.39575 -559.84021,471.95504C-558.41696,479.34242 -555.73614,486.25944 -555.09363,493.86899C-551.32621,503.95238 -559.01155,516.81827 -551.29541,525.08114C-548.20779,533.34454 -545.24726,542.11958 -544.56752,551.01227C-543.57582,559.9584 -542.52824,570.34031 -536.54584,576.69286C-530.09532,581.30735 -522.21659,578.03571 -514.94043,578.84052C-507.95428,580.66863 -500.83498,576.88155 -494.13151,579.20817C-486.1949,581.38743 -479.2878,575.79803 -472.14593,577.52611C-465.6695,580.88061 -456.49577,576.24441 -448.52762,577.53854C-441.7574,571.5945 -426.20749,576.82346 -424.35437,566.78836C-426.08044,560.52438 -419.32045,557.56848 -421.83754,550.44877C-423.54123,541.76248 -424.57343,533.11 -427.25869,524.79466C-428.74603,515.48756 -433.24619,507.31734 -432.37927,496.83944C-436.24365,488.168 -436.55439,480.49534 -436.44734,471.46077C-439.27804,466.74489 -433.72957,463.44699 -439.78316,463.3175C-441.9967,456.4366 -443.25861,449.00338 -446.28832,441.47595C-447.96616,437.1276 -447.31661,428.38723 -448.88718,426.61888C-447.61371,431.20998 -451.83981,420.63455 -451.57299,419.04354C-447.80555,408.15196 -454.78225,398.94436 -458.97296,390.21145C-459.74083,384.22349 -461.75549,377.94052 -468.2889,379.27407L-468.2889,379.27379zM-449.95273,422.17728C-449.63484,421.27481 -449.74472,421.5868 -449.95273,422.17728zM-448.99738,424.42956C-447.34553,424.96231 -449.01174,421.41215 -448.99738,424.42956zM-448.28289,423.35398C-447.97138,422.66736 -449.34828,423.14265 -448.28289,423.35398zM-443.89552,446.89714C-443.94914,448.64623 -443.04635,446.91356 -443.89552,446.89714zM-442.01695,452.09117L-440.98979,451.56691L-442.01695,452.09117zM-443.53025,453.2173C-441.47,455.44026 -442.20018,451.07248 -443.53025,453.2173zM-442.02498,458.8158C-439.1964,458.29911 -443.13668,457.09187 -442.02498,458.8158zM-440.51168,460.20396C-436.94259,461.53821 -442.15806,455.74096 -440.51168,460.20396zM-439.13888,460.92559L-438.63344,461.16742L-439.13888,460.92559zM-439.98985,462.3689C-440.09345,465.39976 -438.29189,463.06453 -439.98985,462.3689zM-430.78966,572.87736C-431.98723,572.30282 -430.33393,573.97827 -430.78966,572.87736zM-454.6331,577.84617C-457.22045,577.44941 -455.25411,579.44495 -454.6331,577.84617zM-460.42939,578.29661C-461.54193,576.42019 -461.67681,580.37181 -460.42939,578.29661zM-461.59748,578.59079C-463.73525,578.95805 -461.00921,583.27768 -461.59748,578.59079zM-496.88099,579.56526L-497.46123,579.75751L-496.88099,579.56526zM-510.95024,578.45289C-513.69972,578.13076 -507.53858,579.6659 -510.95024,578.45289zM-539.79921,572.30282C-541.84628,569.67793 -541.17407,574.05505 -539.79921,572.30282zM-542.46856,564.98982L-542.5427,565.06468L-542.46856,564.98982zM-563.26134,458.08958C-563.83875,456.51435 -563.78342,460.55946 -563.26134,458.08958zM-563.49416,457.64369C-562.40575,456.71445 -564.01469,456.87716 -563.49416,457.64369zM-564.03204,446.23525C-563.50108,446.54098 -564.07032,445.63604 -564.03204,446.23525zM-566.34814,432.07351C-568.43375,430.86568 -569.097,434.61144 -566.34814,432.07351zM-470.33609,381.93514L-470.18914,381.97559L-470.33609,381.93514zM-481.61957,382.43616C-477.91802,381.3929 -481.86056,384.44566 -481.61957,382.43616zM-465.57942,390.74659C-464.30099,390.71677 -465.52882,391.86028 -465.57942,390.74659zM-464.75654,390.76543C-463.35409,390.58916 -465.25723,392.04293 -464.75654,390.76543zM-564.7345,399.95378C-564.42382,400.86483 -565.75345,399.92733 -564.7345,399.95378zM-452.40532,404.2331C-449.75069,405.18574 -454.23666,406.47176 -452.40532,404.2331zM-452.04003,417.62725C-450.83236,419.19941 -454.3954,416.77641 -452.04003,417.62725zM-567.94975,427.90497C-562.20763,430.07974 -572.39412,427.76448 -567.94975,427.90497zM-565.46907,439.27203C-564.50765,440.79634 -566.87245,439.39169 -565.46907,439.27203zM-445.52523,446.4885C-445.22041,446.95402 -446.94302,446.06827 -445.52523,446.4885zM-437.46903,472.16443C-433.61964,473.42503 -438.88724,475.33532 -437.46903,472.16443zM-553.79621,498.8194L-553.42264,498.88967L-553.79621,498.8194zM-541.95474,563.40435C-540.96622,563.50324 -542.38419,564.89358 -541.95474,563.40435zM-529.22618,569.58661C-528.09079,571.2788 -530.71018,570.80234 -529.22618,569.58661zM-442.56283,570.6576C-440.05653,571.15715 -441.90334,574.28933 -442.56283,570.6576zM-437.74196,570.98395C-433.84268,574.43625 -443.74915,571.58358 -437.74196,570.98395zM-431.9256,571.42979C-431.54186,572.79121 -433.62295,571.45937 -431.9256,571.42979zM-443.90354,572.28014C-442.86915,572.72484 -445.36918,572.45808 -443.90354,572.28014zM-437.56937,572.90066C-437.2928,573.35751 -438.20881,572.97505 -437.56937,572.90066zM-442.42636,574.08198C-440.6808,575.63122 -444.13993,574.14561 -442.42636,574.08198zM-523.97179,577.63964C-522.28078,577.62721 -524.53205,578.29364 -523.97179,577.63964zM-531.69885,577.97519C-529.9338,579.20335 -534.51592,578.35953 -531.69885,577.97519z" stroke-width="1px" fill-rule="evenodd" fill="#9788af" transform="translate(-5.88106 -82.5412) matrix(1 0 0 1 682.805 640.054)" id="imagebot_25"/>
  <path label="casa" display="inline" d="M-468.2889,379.27379C-475.50152,381.53749 -483.9331,383.67591 -490.81088,383.0734C-499.39223,384.03852 -505.8985,387.97582 -514.54766,387.04507C-524.08445,383.50043 -531.10989,394.97917 -540.66001,389.72524C-548.1012,395.71823 -558.26317,394.60124 -566.40681,399.66491C-572.56912,406.39404 -574.1128,417.19217 -569.16944,424.1409C-569.6579,431.91605 -563.61307,440.4669 -564.43469,448.9346C-563.52224,456.80111 -561.81963,464.39575 -559.84021,471.95504C-558.41696,479.34242 -555.73614,486.25944 -555.09363,493.86899C-551.32621,503.95238 -559.01155,516.81827 -551.29541,525.08114C-548.20779,533.34454 -545.24726,542.11958 -544.56752,551.01227C-543.57582,559.9584 -542.52824,570.34031 -536.54584,576.69286C-530.09532,581.30735 -522.21659,578.03571 -514.94043,578.84052C-507.95428,580.66863 -500.83498,576.88155 -494.13151,579.20817C-486.1949,581.38743 -479.2878,575.79803 -472.14593,577.52611C-465.6695,580.88061 -456.49577,576.24441 -448.52762,577.53854C-441.7574,571.5945 -426.20749,576.82346 -424.35437,566.78836C-426.08044,560.52438 -419.32045,557.56848 -421.83754,550.44877C-423.54123,541.76248 -424.57343,533.11 -427.25869,524.79466C-428.74603,515.48756 -433.24619,507.31734 -432.37927,496.83944C-436.24365,488.168 -436.55439,480.49534 -436.44734,471.46077C-439.27804,466.74489 -433.72957,463.44699 -439.78316,463.3175C-441.9967,456.4366 -443.25861,449.00338 -446.28832,441.47595C-447.96616,437.1276 -447.31661,428.38723 -448.88718,426.61888C-447.61371,431.20998 -451.83981,420.63455 -451.57299,419.04354C-447.80555,408.15196 -454.78225,398.94436 -458.97296,390.21145C-459.74083,384.22349 -461.75549,377.94052 -468.2889,379.27407L-468.2889,379.27379zM-449.95273,422.17728C-449.63484,421.27481 -449.74472,421.5868 -449.95273,422.17728zM-448.99738,424.42956C-447.34553,424.96231 -449.01174,421.41215 -448.99738,424.42956zM-448.28289,423.35398C-447.97138,422.66736 -449.34828,423.14265 -448.28289,423.35398zM-443.89552,446.89714C-443.94914,448.64623 -443.04635,446.91356 -443.89552,446.89714zM-442.01695,452.09117L-440.98979,451.56691L-442.01695,452.09117zM-443.53025,453.2173C-441.47,455.44026 -442.20018,451.07248 -443.53025,453.2173zM-442.02498,458.8158C-439.1964,458.29911 -443.13668,457.09187 -442.02498,458.8158zM-440.51168,460.20396C-436.94259,461.53821 -442.15806,455.74096 -440.51168,460.20396zM-439.13888,460.92559L-438.63344,461.16742L-439.13888,460.92559zM-439.98985,462.3689C-440.09345,465.39976 -438.29189,463.06453 -439.98985,462.3689zM-430.78966,572.87736C-431.98723,572.30282 -430.33393,573.97827 -430.78966,572.87736zM-454.6331,577.84617C-457.22045,577.44941 -455.25411,579.44495 -454.6331,577.84617zM-460.42939,578.29661C-461.54193,576.42019 -461.67681,580.37181 -460.42939,578.29661zM-461.59748,578.59079C-463.73525,578.95805 -461.00921,583.27768 -461.59748,578.59079zM-496.88099,579.56526L-497.46123,579.75751L-496.88099,579.56526zM-510.95024,578.45289C-513.69972,578.13076 -507.53858,579.6659 -510.95024,578.45289zM-539.79921,572.30282C-541.84628,569.67793 -541.17407,574.05505 -539.79921,572.30282zM-542.46856,564.98982L-542.5427,565.06468L-542.46856,564.98982zM-563.26134,458.08958C-563.83875,456.51435 -563.78342,460.55946 -563.26134,458.08958zM-563.49416,457.64369C-562.40575,456.71445 -564.01469,456.87716 -563.49416,457.64369zM-564.03204,446.23525C-563.50108,446.54098 -564.07032,445.63604 -564.03204,446.23525zM-566.34814,432.07351C-568.43375,430.86568 -569.097,434.61144 -566.34814,432.07351zM-470.33609,381.93514L-470.18914,381.97559L-470.33609,381.93514zM-481.61957,382.43616C-477.91802,381.3929 -481.86056,384.44566 -481.61957,382.43616zM-465.57942,390.74659C-464.30099,390.71677 -465.52882,391.86028 -465.57942,390.74659zM-464.75654,390.76543C-463.35409,390.58916 -465.25723,392.04293 -464.75654,390.76543zM-564.7345,399.95378C-564.42382,400.86483 -565.75345,399.92733 -564.7345,399.95378zM-452.40532,404.2331C-449.75069,405.18574 -454.23666,406.47176 -452.40532,404.2331zM-452.04003,417.62725C-450.83236,419.19941 -454.3954,416.77641 -452.04003,417.62725zM-567.94975,427.90497C-562.20763,430.07974 -572.39412,427.76448 -567.94975,427.90497zM-565.46907,439.27203C-564.50765,440.79634 -566.87245,439.39169 -565.46907,439.27203zM-445.52523,446.4885C-445.22041,446.95402 -446.94302,446.06827 -445.52523,446.4885zM-437.46903,472.16443C-433.61964,473.42503 -438.88724,475.33532 -437.46903,472.16443zM-553.79621,498.8194L-553.42264,498.88967L-553.79621,498.8194zM-541.95474,563.40435C-540.96622,563.50324 -542.38419,564.89358 -541.95474,563.40435zM-529.22618,569.58661C-528.09079,571.2788 -530.71018,570.80234 -529.22618,569.58661zM-442.56283,570.6576C-440.05653,571.15715 -441.90334,574.28933 -442.56283,570.6576zM-437.74196,570.98395C-433.84268,574.43625 -443.74915,571.58358 -437.74196,570.98395zM-431.9256,571.42979C-431.54186,572.79121 -433.62295,571.45937 -431.9256,571.42979zM-443.90354,572.28014C-442.86915,572.72484 -445.36918,572.45808 -443.90354,572.28014zM-437.56937,572.90066C-437.2928,573.35751 -438.20881,572.97505 -437.56937,572.90066zM-442.42636,574.08198C-440.6808,575.63122 -444.13993,574.14561 -442.42636,574.08198zM-523.97179,577.63964C-522.28078,577.62721 -524.53205,578.29364 -523.97179,577.63964zM-531.69885,577.97519C-529.9338,579.20335 -534.51592,578.35953 -531.69885,577.97519z" stroke-width="1px" fill-rule="evenodd" fill="#9788af" transform="translate(-5.88106 -82.5412) matrix(1 0 0 1 885.46 347.991)" id="imagebot_24"/>
  <path label="casa" display="inline" d="M-468.2889,379.27379C-475.50152,381.53749 -483.9331,383.67591 -490.81088,383.0734C-499.39223,384.03852 -505.8985,387.97582 -514.54766,387.04507C-524.08445,383.50043 -531.10989,394.97917 -540.66001,389.72524C-548.1012,395.71823 -558.26317,394.60124 -566.40681,399.66491C-572.56912,406.39404 -574.1128,417.19217 -569.16944,424.1409C-569.6579,431.91605 -563.61307,440.4669 -564.43469,448.9346C-563.52224,456.80111 -561.81963,464.39575 -559.84021,471.95504C-558.41696,479.34242 -555.73614,486.25944 -555.09363,493.86899C-551.32621,503.95238 -559.01155,516.81827 -551.29541,525.08114C-548.20779,533.34454 -545.24726,542.11958 -544.56752,551.01227C-543.57582,559.9584 -542.52824,570.34031 -536.54584,576.69286C-530.09532,581.30735 -522.21659,578.03571 -514.94043,578.84052C-507.95428,580.66863 -500.83498,576.88155 -494.13151,579.20817C-486.1949,581.38743 -479.2878,575.79803 -472.14593,577.52611C-465.6695,580.88061 -456.49577,576.24441 -448.52762,577.53854C-441.7574,571.5945 -426.20749,576.82346 -424.35437,566.78836C-426.08044,560.52438 -419.32045,557.56848 -421.83754,550.44877C-423.54123,541.76248 -424.57343,533.11 -427.25869,524.79466C-428.74603,515.48756 -433.24619,507.31734 -432.37927,496.83944C-436.24365,488.168 -436.55439,480.49534 -436.44734,471.46077C-439.27804,466.74489 -433.72957,463.44699 -439.78316,463.3175C-441.9967,456.4366 -443.25861,449.00338 -446.28832,441.47595C-447.96616,437.1276 -447.31661,428.38723 -448.88718,426.61888C-447.61371,431.20998 -451.83981,420.63455 -451.57299,419.04354C-447.80555,408.15196 -454.78225,398.94436 -458.97296,390.21145C-459.74083,384.22349 -461.75549,377.94052 -468.2889,379.27407L-468.2889,379.27379zM-449.95273,422.17728C-449.63484,421.27481 -449.74472,421.5868 -449.95273,422.17728zM-448.99738,424.42956C-447.34553,424.96231 -449.01174,421.41215 -448.99738,424.42956zM-448.28289,423.35398C-447.97138,422.66736 -449.34828,423.14265 -448.28289,423.35398zM-443.89552,446.89714C-443.94914,448.64623 -443.04635,446.91356 -443.89552,446.89714zM-442.01695,452.09117L-440.98979,451.56691L-442.01695,452.09117zM-443.53025,453.2173C-441.47,455.44026 -442.20018,451.07248 -443.53025,453.2173zM-442.02498,458.8158C-439.1964,458.29911 -443.13668,457.09187 -442.02498,458.8158zM-440.51168,460.20396C-436.94259,461.53821 -442.15806,455.74096 -440.51168,460.20396zM-439.13888,460.92559L-438.63344,461.16742L-439.13888,460.92559zM-439.98985,462.3689C-440.09345,465.39976 -438.29189,463.06453 -439.98985,462.3689zM-430.78966,572.87736C-431.98723,572.30282 -430.33393,573.97827 -430.78966,572.87736zM-454.6331,577.84617C-457.22045,577.44941 -455.25411,579.44495 -454.6331,577.84617zM-460.42939,578.29661C-461.54193,576.42019 -461.67681,580.37181 -460.42939,578.29661zM-461.59748,578.59079C-463.73525,578.95805 -461.00921,583.27768 -461.59748,578.59079zM-496.88099,579.56526L-497.46123,579.75751L-496.88099,579.56526zM-510.95024,578.45289C-513.69972,578.13076 -507.53858,579.6659 -510.95024,578.45289zM-539.79921,572.30282C-541.84628,569.67793 -541.17407,574.05505 -539.79921,572.30282zM-542.46856,564.98982L-542.5427,565.06468L-542.46856,564.98982zM-563.26134,458.08958C-563.83875,456.51435 -563.78342,460.55946 -563.26134,458.08958zM-563.49416,457.64369C-562.40575,456.71445 -564.01469,456.87716 -563.49416,457.64369zM-564.03204,446.23525C-563.50108,446.54098 -564.07032,445.63604 -564.03204,446.23525zM-566.34814,432.07351C-568.43375,430.86568 -569.097,434.61144 -566.34814,432.07351zM-470.33609,381.93514L-470.18914,381.97559L-470.33609,381.93514zM-481.61957,382.43616C-477.91802,381.3929 -481.86056,384.44566 -481.61957,382.43616zM-465.57942,390.74659C-464.30099,390.71677 -465.52882,391.86028 -465.57942,390.74659zM-464.75654,390.76543C-463.35409,390.58916 -465.25723,392.04293 -464.75654,390.76543zM-564.7345,399.95378C-564.42382,400.86483 -565.75345,399.92733 -564.7345,399.95378zM-452.40532,404.2331C-449.75069,405.18574 -454.23666,406.47176 -452.40532,404.2331zM-452.04003,417.62725C-450.83236,419.19941 -454.3954,416.77641 -452.04003,417.62725zM-567.94975,427.90497C-562.20763,430.07974 -572.39412,427.76448 -567.94975,427.90497zM-565.46907,439.27203C-564.50765,440.79634 -566.87245,439.39169 -565.46907,439.27203zM-445.52523,446.4885C-445.22041,446.95402 -446.94302,446.06827 -445.52523,446.4885zM-437.46903,472.16443C-433.61964,473.42503 -438.88724,475.33532 -437.46903,472.16443zM-553.79621,498.8194L-553.42264,498.88967L-553.79621,498.8194zM-541.95474,563.40435C-540.96622,563.50324 -542.38419,564.89358 -541.95474,563.40435zM-529.22618,569.58661C-528.09079,571.2788 -530.71018,570.80234 -529.22618,569.58661zM-442.56283,570.6576C-440.05653,571.15715 -441.90334,574.28933 -442.56283,570.6576zM-437.74196,570.98395C-433.84268,574.43625 -443.74915,571.58358 -437.74196,570.98395zM-431.9256,571.42979C-431.54186,572.79121 -433.62295,571.45937 -431.9256,571.42979zM-443.90354,572.28014C-442.86915,572.72484 -445.36918,572.45808 -443.90354,572.28014zM-437.56937,572.90066C-437.2928,573.35751 -438.20881,572.97505 -437.56937,572.90066zM-442.42636,574.08198C-440.6808,575.63122 -444.13993,574.14561 -442.42636,574.08198zM-523.97179,577.63964C-522.28078,577.62721 -524.53205,578.29364 -523.97179,577.63964zM-531.69885,577.97519C-529.9338,579.20335 -534.51592,578.35953 -531.69885,577.97519z" stroke-width="1px" fill-rule="evenodd" fill="#9788af" transform="translate(-5.88106 -82.5412) matrix(1 0 0 1 670.884 359.912)" id="imagebot_23"/>
  <path label="casa" display="inline" d="M-468.2889,379.27379C-475.50152,381.53749 -483.9331,383.67591 -490.81088,383.0734C-499.39223,384.03852 -505.8985,387.97582 -514.54766,387.04507C-524.08445,383.50043 -531.10989,394.97917 -540.66001,389.72524C-548.1012,395.71823 -558.26317,394.60124 -566.40681,399.66491C-572.56912,406.39404 -574.1128,417.19217 -569.16944,424.1409C-569.6579,431.91605 -563.61307,440.4669 -564.43469,448.9346C-563.52224,456.80111 -561.81963,464.39575 -559.84021,471.95504C-558.41696,479.34242 -555.73614,486.25944 -555.09363,493.86899C-551.32621,503.95238 -559.01155,516.81827 -551.29541,525.08114C-548.20779,533.34454 -545.24726,542.11958 -544.56752,551.01227C-543.57582,559.9584 -542.52824,570.34031 -536.54584,576.69286C-530.09532,581.30735 -522.21659,578.03571 -514.94043,578.84052C-507.95428,580.66863 -500.83498,576.88155 -494.13151,579.20817C-486.1949,581.38743 -479.2878,575.79803 -472.14593,577.52611C-465.6695,580.88061 -456.49577,576.24441 -448.52762,577.53854C-441.7574,571.5945 -426.20749,576.82346 -424.35437,566.78836C-426.08044,560.52438 -419.32045,557.56848 -421.83754,550.44877C-423.54123,541.76248 -424.57343,533.11 -427.25869,524.79466C-428.74603,515.48756 -433.24619,507.31734 -432.37927,496.83944C-436.24365,488.168 -436.55439,480.49534 -436.44734,471.46077C-439.27804,466.74489 -433.72957,463.44699 -439.78316,463.3175C-441.9967,456.4366 -443.25861,449.00338 -446.28832,441.47595C-447.96616,437.1276 -447.31661,428.38723 -448.88718,426.61888C-447.61371,431.20998 -451.83981,420.63455 -451.57299,419.04354C-447.80555,408.15196 -454.78225,398.94436 -458.97296,390.21145C-459.74083,384.22349 -461.75549,377.94052 -468.2889,379.27407L-468.2889,379.27379zM-449.95273,422.17728C-449.63484,421.27481 -449.74472,421.5868 -449.95273,422.17728zM-448.99738,424.42956C-447.34553,424.96231 -449.01174,421.41215 -448.99738,424.42956zM-448.28289,423.35398C-447.97138,422.66736 -449.34828,423.14265 -448.28289,423.35398zM-443.89552,446.89714C-443.94914,448.64623 -443.04635,446.91356 -443.89552,446.89714zM-442.01695,452.09117L-440.98979,451.56691L-442.01695,452.09117zM-443.53025,453.2173C-441.47,455.44026 -442.20018,451.07248 -443.53025,453.2173zM-442.02498,458.8158C-439.1964,458.29911 -443.13668,457.09187 -442.02498,458.8158zM-440.51168,460.20396C-436.94259,461.53821 -442.15806,455.74096 -440.51168,460.20396zM-439.13888,460.92559L-438.63344,461.16742L-439.13888,460.92559zM-439.98985,462.3689C-440.09345,465.39976 -438.29189,463.06453 -439.98985,462.3689zM-430.78966,572.87736C-431.98723,572.30282 -430.33393,573.97827 -430.78966,572.87736zM-454.6331,577.84617C-457.22045,577.44941 -455.25411,579.44495 -454.6331,577.84617zM-460.42939,578.29661C-461.54193,576.42019 -461.67681,580.37181 -460.42939,578.29661zM-461.59748,578.59079C-463.73525,578.95805 -461.00921,583.27768 -461.59748,578.59079zM-496.88099,579.56526L-497.46123,579.75751L-496.88099,579.56526zM-510.95024,578.45289C-513.69972,578.13076 -507.53858,579.6659 -510.95024,578.45289zM-539.79921,572.30282C-541.84628,569.67793 -541.17407,574.05505 -539.79921,572.30282zM-542.46856,564.98982L-542.5427,565.06468L-542.46856,564.98982zM-563.26134,458.08958C-563.83875,456.51435 -563.78342,460.55946 -563.26134,458.08958zM-563.49416,457.64369C-562.40575,456.71445 -564.01469,456.87716 -563.49416,457.64369zM-564.03204,446.23525C-563.50108,446.54098 -564.07032,445.63604 -564.03204,446.23525zM-566.34814,432.07351C-568.43375,430.86568 -569.097,434.61144 -566.34814,432.07351zM-470.33609,381.93514L-470.18914,381.97559L-470.33609,381.93514zM-481.61957,382.43616C-477.91802,381.3929 -481.86056,384.44566 -481.61957,382.43616zM-465.57942,390.74659C-464.30099,390.71677 -465.52882,391.86028 -465.57942,390.74659zM-464.75654,390.76543C-463.35409,390.58916 -465.25723,392.04293 -464.75654,390.76543zM-564.7345,399.95378C-564.42382,400.86483 -565.75345,399.92733 -564.7345,399.95378zM-452.40532,404.2331C-449.75069,405.18574 -454.23666,406.47176 -452.40532,404.2331zM-452.04003,417.62725C-450.83236,419.19941 -454.3954,416.77641 -452.04003,417.62725zM-567.94975,427.90497C-562.20763,430.07974 -572.39412,427.76448 -567.94975,427.90497zM-565.46907,439.27203C-564.50765,440.79634 -566.87245,439.39169 -565.46907,439.27203zM-445.52523,446.4885C-445.22041,446.95402 -446.94302,446.06827 -445.52523,446.4885zM-437.46903,472.16443C-433.61964,473.42503 -438.88724,475.33532 -437.46903,472.16443zM-553.79621,498.8194L-553.42264,498.88967L-553.79621,498.8194zM-541.95474,563.40435C-540.96622,563.50324 -542.38419,564.89358 -541.95474,563.40435zM-529.22618,569.58661C-528.09079,571.2788 -530.71018,570.80234 -529.22618,569.58661zM-442.56283,570.6576C-440.05653,571.15715 -441.90334,574.28933 -442.56283,570.6576zM-437.74196,570.98395C-433.84268,574.43625 -443.74915,571.58358 -437.74196,570.98395zM-431.9256,571.42979C-431.54186,572.79121 -433.62295,571.45937 -431.9256,571.42979zM-443.90354,572.28014C-442.86915,572.72484 -445.36918,572.45808 -443.90354,572.28014zM-437.56937,572.90066C-437.2928,573.35751 -438.20881,572.97505 -437.56937,572.90066zM-442.42636,574.08198C-440.6808,575.63122 -444.13993,574.14561 -442.42636,574.08198zM-523.97179,577.63964C-522.28078,577.62721 -524.53205,578.29364 -523.97179,577.63964zM-531.69885,577.97519C-529.9338,579.20335 -534.51592,578.35953 -531.69885,577.97519z" stroke-width="1px" fill-rule="evenodd" fill="#9788af" transform="translate(-5.88106 -82.5412) matrix(1 0 0 1 885.461 97.6513)" id="imagebot_22"/>
  <path label="casa" display="inline" d="M-468.2889,379.27379C-475.50152,381.53749 -483.9331,383.67591 -490.81088,383.0734C-499.39223,384.03852 -505.8985,387.97582 -514.54766,387.04507C-524.08445,383.50043 -531.10989,394.97917 -540.66001,389.72524C-548.1012,395.71823 -558.26317,394.60124 -566.40681,399.66491C-572.56912,406.39404 -574.1128,417.19217 -569.16944,424.1409C-569.6579,431.91605 -563.61307,440.4669 -564.43469,448.9346C-563.52224,456.80111 -561.81963,464.39575 -559.84021,471.95504C-558.41696,479.34242 -555.73614,486.25944 -555.09363,493.86899C-551.32621,503.95238 -559.01155,516.81827 -551.29541,525.08114C-548.20779,533.34454 -545.24726,542.11958 -544.56752,551.01227C-543.57582,559.9584 -542.52824,570.34031 -536.54584,576.69286C-530.09532,581.30735 -522.21659,578.03571 -514.94043,578.84052C-507.95428,580.66863 -500.83498,576.88155 -494.13151,579.20817C-486.1949,581.38743 -479.2878,575.79803 -472.14593,577.52611C-465.6695,580.88061 -456.49577,576.24441 -448.52762,577.53854C-441.7574,571.5945 -426.20749,576.82346 -424.35437,566.78836C-426.08044,560.52438 -419.32045,557.56848 -421.83754,550.44877C-423.54123,541.76248 -424.57343,533.11 -427.25869,524.79466C-428.74603,515.48756 -433.24619,507.31734 -432.37927,496.83944C-436.24365,488.168 -436.55439,480.49534 -436.44734,471.46077C-439.27804,466.74489 -433.72957,463.44699 -439.78316,463.3175C-441.9967,456.4366 -443.25861,449.00338 -446.28832,441.47595C-447.96616,437.1276 -447.31661,428.38723 -448.88718,426.61888C-447.61371,431.20998 -451.83981,420.63455 -451.57299,419.04354C-447.80555,408.15196 -454.78225,398.94436 -458.97296,390.21145C-459.74083,384.22349 -461.75549,377.94052 -468.2889,379.27407L-468.2889,379.27379zM-449.95273,422.17728C-449.63484,421.27481 -449.74472,421.5868 -449.95273,422.17728zM-448.99738,424.42956C-447.34553,424.96231 -449.01174,421.41215 -448.99738,424.42956zM-448.28289,423.35398C-447.97138,422.66736 -449.34828,423.14265 -448.28289,423.35398zM-443.89552,446.89714C-443.94914,448.64623 -443.04635,446.91356 -443.89552,446.89714zM-442.01695,452.09117L-440.98979,451.56691L-442.01695,452.09117zM-443.53025,453.2173C-441.47,455.44026 -442.20018,451.07248 -443.53025,453.2173zM-442.02498,458.8158C-439.1964,458.29911 -443.13668,457.09187 -442.02498,458.8158zM-440.51168,460.20396C-436.94259,461.53821 -442.15806,455.74096 -440.51168,460.20396zM-439.13888,460.92559L-438.63344,461.16742L-439.13888,460.92559zM-439.98985,462.3689C-440.09345,465.39976 -438.29189,463.06453 -439.98985,462.3689zM-430.78966,572.87736C-431.98723,572.30282 -430.33393,573.97827 -430.78966,572.87736zM-454.6331,577.84617C-457.22045,577.44941 -455.25411,579.44495 -454.6331,577.84617zM-460.42939,578.29661C-461.54193,576.42019 -461.67681,580.37181 -460.42939,578.29661zM-461.59748,578.59079C-463.73525,578.95805 -461.00921,583.27768 -461.59748,578.59079zM-496.88099,579.56526L-497.46123,579.75751L-496.88099,579.56526zM-510.95024,578.45289C-513.69972,578.13076 -507.53858,579.6659 -510.95024,578.45289zM-539.79921,572.30282C-541.84628,569.67793 -541.17407,574.05505 -539.79921,572.30282zM-542.46856,564.98982L-542.5427,565.06468L-542.46856,564.98982zM-563.26134,458.08958C-563.83875,456.51435 -563.78342,460.55946 -563.26134,458.08958zM-563.49416,457.64369C-562.40575,456.71445 -564.01469,456.87716 -563.49416,457.64369zM-564.03204,446.23525C-563.50108,446.54098 -564.07032,445.63604 -564.03204,446.23525zM-566.34814,432.07351C-568.43375,430.86568 -569.097,434.61144 -566.34814,432.07351zM-470.33609,381.93514L-470.18914,381.97559L-470.33609,381.93514zM-481.61957,382.43616C-477.91802,381.3929 -481.86056,384.44566 -481.61957,382.43616zM-465.57942,390.74659C-464.30099,390.71677 -465.52882,391.86028 -465.57942,390.74659zM-464.75654,390.76543C-463.35409,390.58916 -465.25723,392.04293 -464.75654,390.76543zM-564.7345,399.95378C-564.42382,400.86483 -565.75345,399.92733 -564.7345,399.95378zM-452.40532,404.2331C-449.75069,405.18574 -454.23666,406.47176 -452.40532,404.2331zM-452.04003,417.62725C-450.83236,419.19941 -454.3954,416.77641 -452.04003,417.62725zM-567.94975,427.90497C-562.20763,430.07974 -572.39412,427.76448 -567.94975,427.90497zM-565.46907,439.27203C-564.50765,440.79634 -566.87245,439.39169 -565.46907,439.27203zM-445.52523,446.4885C-445.22041,446.95402 -446.94302,446.06827 -445.52523,446.4885zM-437.46903,472.16443C-433.61964,473.42503 -438.88724,475.33532 -437.46903,472.16443zM-553.79621,498.8194L-553.42264,498.88967L-553.79621,498.8194zM-541.95474,563.40435C-540.96622,563.50324 -542.38419,564.89358 -541.95474,563.40435zM-529.22618,569.58661C-528.09079,571.2788 -530.71018,570.80234 -529.22618,569.58661zM-442.56283,570.6576C-440.05653,571.15715 -441.90334,574.28933 -442.56283,570.6576zM-437.74196,570.98395C-433.84268,574.43625 -443.74915,571.58358 -437.74196,570.98395zM-431.9256,571.42979C-431.54186,572.79121 -433.62295,571.45937 -431.9256,571.42979zM-443.90354,572.28014C-442.86915,572.72484 -445.36918,572.45808 -443.90354,572.28014zM-437.56937,572.90066C-437.2928,573.35751 -438.20881,572.97505 -437.56937,572.90066zM-442.42636,574.08198C-440.6808,575.63122 -444.13993,574.14561 -442.42636,574.08198zM-523.97179,577.63964C-522.28078,577.62721 -524.53205,578.29364 -523.97179,577.63964zM-531.69885,577.97519C-529.9338,579.20335 -534.51592,578.35953 -531.69885,577.97519z" stroke-width="1px" fill-rule="evenodd" fill="#9788af" transform="translate(-5.88106 -82.5412) matrix(1 0 0 1 670.884 97.6518)" id="imagebot_21"/>
  <path label="casa" display="inline" d="M-468.2889,379.27379C-475.50152,381.53749 -483.9331,383.67591 -490.81088,383.0734C-499.39223,384.03852 -505.8985,387.97582 -514.54766,387.04507C-524.08445,383.50043 -531.10989,394.97917 -540.66001,389.72524C-548.1012,395.71823 -558.26317,394.60124 -566.40681,399.66491C-572.56912,406.39404 -574.1128,417.19217 -569.16944,424.1409C-569.6579,431.91605 -563.61307,440.4669 -564.43469,448.9346C-563.52224,456.80111 -561.81963,464.39575 -559.84021,471.95504C-558.41696,479.34242 -555.73614,486.25944 -555.09363,493.86899C-551.32621,503.95238 -559.01155,516.81827 -551.29541,525.08114C-548.20779,533.34454 -545.24726,542.11958 -544.56752,551.01227C-543.57582,559.9584 -542.52824,570.34031 -536.54584,576.69286C-530.09532,581.30735 -522.21659,578.03571 -514.94043,578.84052C-507.95428,580.66863 -500.83498,576.88155 -494.13151,579.20817C-486.1949,581.38743 -479.2878,575.79803 -472.14593,577.52611C-465.6695,580.88061 -456.49577,576.24441 -448.52762,577.53854C-441.7574,571.5945 -426.20749,576.82346 -424.35437,566.78836C-426.08044,560.52438 -419.32045,557.56848 -421.83754,550.44877C-423.54123,541.76248 -424.57343,533.11 -427.25869,524.79466C-428.74603,515.48756 -433.24619,507.31734 -432.37927,496.83944C-436.24365,488.168 -436.55439,480.49534 -436.44734,471.46077C-439.27804,466.74489 -433.72957,463.44699 -439.78316,463.3175C-441.9967,456.4366 -443.25861,449.00338 -446.28832,441.47595C-447.96616,437.1276 -447.31661,428.38723 -448.88718,426.61888C-447.61371,431.20998 -451.83981,420.63455 -451.57299,419.04354C-447.80555,408.15196 -454.78225,398.94436 -458.97296,390.21145C-459.74083,384.22349 -461.75549,377.94052 -468.2889,379.27407L-468.2889,379.27379zM-449.95273,422.17728C-449.63484,421.27481 -449.74472,421.5868 -449.95273,422.17728zM-448.99738,424.42956C-447.34553,424.96231 -449.01174,421.41215 -448.99738,424.42956zM-448.28289,423.35398C-447.97138,422.66736 -449.34828,423.14265 -448.28289,423.35398zM-443.89552,446.89714C-443.94914,448.64623 -443.04635,446.91356 -443.89552,446.89714zM-442.01695,452.09117L-440.98979,451.56691L-442.01695,452.09117zM-443.53025,453.2173C-441.47,455.44026 -442.20018,451.07248 -443.53025,453.2173zM-442.02498,458.8158C-439.1964,458.29911 -443.13668,457.09187 -442.02498,458.8158zM-440.51168,460.20396C-436.94259,461.53821 -442.15806,455.74096 -440.51168,460.20396zM-439.13888,460.92559L-438.63344,461.16742L-439.13888,460.92559zM-439.98985,462.3689C-440.09345,465.39976 -438.29189,463.06453 -439.98985,462.3689zM-430.78966,572.87736C-431.98723,572.30282 -430.33393,573.97827 -430.78966,572.87736zM-454.6331,577.84617C-457.22045,577.44941 -455.25411,579.44495 -454.6331,577.84617zM-460.42939,578.29661C-461.54193,576.42019 -461.67681,580.37181 -460.42939,578.29661zM-461.59748,578.59079C-463.73525,578.95805 -461.00921,583.27768 -461.59748,578.59079zM-496.88099,579.56526L-497.46123,579.75751L-496.88099,579.56526zM-510.95024,578.45289C-513.69972,578.13076 -507.53858,579.6659 -510.95024,578.45289zM-539.79921,572.30282C-541.84628,569.67793 -541.17407,574.05505 -539.79921,572.30282zM-542.46856,564.98982L-542.5427,565.06468L-542.46856,564.98982zM-563.26134,458.08958C-563.83875,456.51435 -563.78342,460.55946 -563.26134,458.08958zM-563.49416,457.64369C-562.40575,456.71445 -564.01469,456.87716 -563.49416,457.64369zM-564.03204,446.23525C-563.50108,446.54098 -564.07032,445.63604 -564.03204,446.23525zM-566.34814,432.07351C-568.43375,430.86568 -569.097,434.61144 -566.34814,432.07351zM-470.33609,381.93514L-470.18914,381.97559L-470.33609,381.93514zM-481.61957,382.43616C-477.91802,381.3929 -481.86056,384.44566 -481.61957,382.43616zM-465.57942,390.74659C-464.30099,390.71677 -465.52882,391.86028 -465.57942,390.74659zM-464.75654,390.76543C-463.35409,390.58916 -465.25723,392.04293 -464.75654,390.76543zM-564.7345,399.95378C-564.42382,400.86483 -565.75345,399.92733 -564.7345,399.95378zM-452.40532,404.2331C-449.75069,405.18574 -454.23666,406.47176 -452.40532,404.2331zM-452.04003,417.62725C-450.83236,419.19941 -454.3954,416.77641 -452.04003,417.62725zM-567.94975,427.90497C-562.20763,430.07974 -572.39412,427.76448 -567.94975,427.90497zM-565.46907,439.27203C-564.50765,440.79634 -566.87245,439.39169 -565.46907,439.27203zM-445.52523,446.4885C-445.22041,446.95402 -446.94302,446.06827 -445.52523,446.4885zM-437.46903,472.16443C-433.61964,473.42503 -438.88724,475.33532 -437.46903,472.16443zM-553.79621,498.8194L-553.42264,498.88967L-553.79621,498.8194zM-541.95474,563.40435C-540.96622,563.50324 -542.38419,564.89358 -541.95474,563.40435zM-529.22618,569.58661C-528.09079,571.2788 -530.71018,570.80234 -529.22618,569.58661zM-442.56283,570.6576C-440.05653,571.15715 -441.90334,574.28933 -442.56283,570.6576zM-437.74196,570.98395C-433.84268,574.43625 -443.74915,571.58358 -437.74196,570.98395zM-431.9256,571.42979C-431.54186,572.79121 -433.62295,571.45937 -431.9256,571.42979zM-443.90354,572.28014C-442.86915,572.72484 -445.36918,572.45808 -443.90354,572.28014zM-437.56937,572.90066C-437.2928,573.35751 -438.20881,572.97505 -437.56937,572.90066zM-442.42636,574.08198C-440.6808,575.63122 -444.13993,574.14561 -442.42636,574.08198zM-523.97179,577.63964C-522.28078,577.62721 -524.53205,578.29364 -523.97179,577.63964zM-531.69885,577.97519C-529.9338,579.20335 -534.51592,578.35953 -531.69885,577.97519z" stroke-width="1px" fill-rule="evenodd" fill="#9788af" transform="translate(-5.88106 -82.5412) matrix(1 0 0 1 897.381 628.133)" id="imagebot_20"/>
  <path label="casa" display="inline" d="M-385.17619,385.3097C-410.41607,391.66486 -437.07018,382.8219 -462.16276,388.7545C-485.61023,396.93635 -510.38464,403.02463 -535.2456,398.44535C-565.95986,406.37514 -597.84608,405.30419 -628.52243,413.37332C-650.82981,419.59484 -674.66003,415.15357 -696.62284,421.01778C-709.21515,435.45045 -703.47399,459.77897 -701.92377,478.98308C-702.14341,492.93899 -696.08661,509.70581 -697.45535,511.03866C-695.34877,524.11608 -698.4756,541.62475 -692.07913,550.18498C-700.16641,571.90683 -686.29696,587.17863 -669.07391,577.02465C-646.41065,574.2762 -622.37015,579.82302 -600.79499,569.32096C-574.77381,571.12595 -549.38288,564.27325 -524.12879,559.01053C-514.54341,557.23256 -495.7944,552.67046 -499.26938,557.04467C-472.20698,560.02337 -448.47101,541.64115 -421.78557,541.2793C-404.27952,536.25897 -389.68052,548.05408 -371.46853,539.22705C-353.1295,544.35492 -333.51748,523.58279 -313.36558,534.96785C-297.22622,525.05077 -276.56469,532.07306 -256.54442,530.63233C-236.47473,526.56889 -216.2338,521.6461 -195.44538,528.61833C-170.16745,535.80764 -180.64712,498.98344 -181.43644,482.87287C-183.98801,463.50828 -189.26401,444.93456 -188.28328,428.15985C-189.79884,409.09647 -185.37054,385.90356 -197.11106,368.80827C-217.58793,369.31336 -237.58638,375.21273 -257.96026,376.23478C-274.86512,379.83923 -292.14849,373.96913 -308.31966,377.11214C-344.05332,386.33311 -348.3813,365.57898 -385.17619,385.30964L-385.17619,385.3097zM-299.93558,401.51776C-281.88578,402.94183 -269.21168,404.02198 -251.55583,397.1106C-238.39608,399.27539 -202.8604,383.76879 -209.71357,413.36601C-206.33112,436.27494 -209.48803,456.59631 -206.26534,479.8117C-209.15786,490.51323 -193.57113,505.69973 -211.6059,496.83159C-219.61342,495.81094 -236.97812,497.44165 -226.4137,484.49244C-239.63559,470.33837 -237.55157,424.91547 -242.40927,403.76534C-241.19299,385.26661 -269.57671,376.96153 -260.87688,403.13483C-247.37774,421.72346 -253.34932,462.6797 -246.10743,482.48931C-251.37091,492.15747 -236.77181,497.34735 -251.23077,501.91287C-268.28242,505.49469 -295.74885,503.32887 -290.249,473.11316C-283.80015,455.75436 -297.08632,444.74202 -297.55642,424.41085C-298.59644,416.8072 -299.20795,409.15488 -299.93551,401.51774L-299.93558,401.51776zM-427.52417,416.05471C-414.61864,414.09403 -434.97616,437.69132 -423.64201,448.72342C-415.19021,467.47326 -412.05016,489.41343 -413.84276,510.20042C-424.34533,519.39515 -446.05771,508.84935 -458.23362,521.92397C-451.36574,508.60162 -459.63488,497.82092 -458.23184,483.22707C-460.89812,463.9547 -465.74746,439.67591 -466.0119,423.60904C-454.13305,417.07645 -440.147,419.34329 -427.52493,416.05471zM-384.03694,411.71175C-366.84891,405.16777 -367.06157,434.38765 -362.32052,448.00778C-362.41787,457.54718 -362.4483,474.06463 -359.1409,471.36159C-357.67808,480.15229 -355.35412,491.63895 -355.82452,505.26048C-367.02954,510.82756 -392.05273,520.75254 -398.48239,506.61488C-400.12648,486.34954 -403.72624,465.22954 -406.67311,443.76435C-425.12616,416.16023 -399.96678,415.05267 -384.03694,411.71175zM-361.16271,472.18899C-361.23568,474.58376 -361.21006,473.74199 -361.16271,472.18899zM-314.59856,406.95295C-315.97401,429.59183 -303.75772,450.94147 -301.41074,472.28182C-302.95753,488.89975 -297.68241,508.52263 -317.90376,505.97672C-325.90527,511.18862 -325.19185,516.14162 -332.64393,508.17121C-337.73854,509.61545 -352.72677,514.87939 -341.54768,507.45287C-343.5103,484.88686 -343.16716,461.74535 -350.49307,439.69045C-351.88739,426.33385 -360.10778,406.0752 -342.1091,412.62304C-332.9988,410.41776 -323.90629,407.97568 -314.59856,406.95295zM-681.96079,447.44715C-665.38036,445.95954 -645.1313,446.53185 -643.92947,472.56711C-650.48653,487.31005 -649.68577,516.93661 -638.8157,532.12452C-638.96948,540.94039 -665.47017,556.77336 -672.97546,537.84417C-678.91732,528.34367 -673.39421,502.40222 -680.01387,501.99483C-669.34924,494.59143 -689.37047,472.00405 -676.72294,463.73377C-677.32739,457.98678 -679.15119,452.24513 -681.96079,447.44715zM-482.74535,426.53395C-477.54726,443.24478 -477.70458,462.95896 -475.03944,478.08698C-467.65284,484.49256 -473.99296,528.46763 -482.04912,529.29384C-490.35761,531.94572 -506.97388,527.31896 -511.52794,526.19017C-518.22831,504.08369 -517.09065,481.32231 -518.46228,458.24371C-523.61811,443.46336 -526.1076,428.3888 -508.20983,433.66736C-498.45913,435.94051 -491.00429,430.79327 -482.74535,426.53395zM-472.16838,524.71969C-473.77768,522.92241 -473.50907,523.22241 -472.16838,524.71969zM-473.49686,523.23601C-474.78997,521.10759 -474.56765,521.47347 -473.49686,523.23601zM-472.09076,482.97891C-480.56435,479.2369 -472.96884,487.22508 -472.09076,482.97891zM-615.86492,441.62301C-594.2081,432.89228 -583.94231,461.75471 -593.31686,481.82456C-584.5317,499.63466 -583.90061,518.35394 -584.95476,535.9059C-575.23466,544.13179 -562.1789,530.21282 -572.64517,523.1525C-563.9549,517.36299 -578.82168,494.80851 -573.98965,480.74153C-578.83978,462.3258 -584.97944,435.17421 -562.34004,437.65765C-554.79309,429.59891 -536.82832,441.44692 -539.32636,437.75233C-537.31056,440.28265 -537.99832,472.40182 -534.89824,486.00159C-533.17279,498.44893 -531.77716,518.23034 -527.4035,521.5003C-523.02052,544.20996 -537.7748,524.08714 -545.50931,532.73888C-531.09046,543.5736 -560.02426,531.45167 -566.7268,537.34163C-584.59184,537.1843 -600.87917,534.46481 -617.6353,541.72124C-631.65599,542.57537 -624.33199,528.1231 -629.5713,519.28431C-624.3867,494.68747 -638.54482,467.28021 -632.95279,444.48438C-627.70888,441.34347 -621.42946,443.37988 -615.86492,441.62295zM-628.48629,540.20347C-626.19316,540.99549 -629.12637,541.88069 -628.48629,540.20347z" stroke-dashoffset="0" stroke-miterlimit="4" stroke-linejoin="round" stroke-width="8" fill-rule="nonzero" fill="#b5c1c1" transform="translate(-5.88106 -82.5412) matrix(1 0 0 1 742.408 175.129)" id="imagebot_8"/>
  <path label="casa" display="inline" d="M-385.17619,385.3097C-410.41607,391.66486 -437.07018,382.8219 -462.16276,388.7545C-485.61023,396.93635 -510.38464,403.02463 -535.2456,398.44535C-565.95986,406.37514 -597.84608,405.30419 -628.52243,413.37332C-650.82981,419.59484 -674.66003,415.15357 -696.62284,421.01778C-709.21515,435.45045 -703.47399,459.77897 -701.92377,478.98308C-702.14341,492.93899 -696.08661,509.70581 -697.45535,511.03866C-695.34877,524.11608 -698.4756,541.62475 -692.07913,550.18498C-700.16641,571.90683 -686.29696,587.17863 -669.07391,577.02465C-646.41065,574.2762 -622.37015,579.82302 -600.79499,569.32096C-574.77381,571.12595 -549.38288,564.27325 -524.12879,559.01053C-514.54341,557.23256 -495.7944,552.67046 -499.26938,557.04467C-472.20698,560.02337 -448.47101,541.64115 -421.78557,541.2793C-404.27952,536.25897 -389.68052,548.05408 -371.46853,539.22705C-353.1295,544.35492 -333.51748,523.58279 -313.36558,534.96785C-297.22622,525.05077 -276.56469,532.07306 -256.54442,530.63233C-236.47473,526.56889 -216.2338,521.6461 -195.44538,528.61833C-170.16745,535.80764 -180.64712,498.98344 -181.43644,482.87287C-183.98801,463.50828 -189.26401,444.93456 -188.28328,428.15985C-189.79884,409.09647 -185.37054,385.90356 -197.11106,368.80827C-217.58793,369.31336 -237.58638,375.21273 -257.96026,376.23478C-274.86512,379.83923 -292.14849,373.96913 -308.31966,377.11214C-344.05332,386.33311 -348.3813,365.57898 -385.17619,385.30964L-385.17619,385.3097zM-299.93558,401.51776C-281.88578,402.94183 -269.21168,404.02198 -251.55583,397.1106C-238.39608,399.27539 -202.8604,383.76879 -209.71357,413.36601C-206.33112,436.27494 -209.48803,456.59631 -206.26534,479.8117C-209.15786,490.51323 -193.57113,505.69973 -211.6059,496.83159C-219.61342,495.81094 -236.97812,497.44165 -226.4137,484.49244C-239.63559,470.33837 -237.55157,424.91547 -242.40927,403.76534C-241.19299,385.26661 -269.57671,376.96153 -260.87688,403.13483C-247.37774,421.72346 -253.34932,462.6797 -246.10743,482.48931C-251.37091,492.15747 -236.77181,497.34735 -251.23077,501.91287C-268.28242,505.49469 -295.74885,503.32887 -290.249,473.11316C-283.80015,455.75436 -297.08632,444.74202 -297.55642,424.41085C-298.59644,416.8072 -299.20795,409.15488 -299.93551,401.51774L-299.93558,401.51776zM-427.52417,416.05471C-414.61864,414.09403 -434.97616,437.69132 -423.64201,448.72342C-415.19021,467.47326 -412.05016,489.41343 -413.84276,510.20042C-424.34533,519.39515 -446.05771,508.84935 -458.23362,521.92397C-451.36574,508.60162 -459.63488,497.82092 -458.23184,483.22707C-460.89812,463.9547 -465.74746,439.67591 -466.0119,423.60904C-454.13305,417.07645 -440.147,419.34329 -427.52493,416.05471zM-384.03694,411.71175C-366.84891,405.16777 -367.06157,434.38765 -362.32052,448.00778C-362.41787,457.54718 -362.4483,474.06463 -359.1409,471.36159C-357.67808,480.15229 -355.35412,491.63895 -355.82452,505.26048C-367.02954,510.82756 -392.05273,520.75254 -398.48239,506.61488C-400.12648,486.34954 -403.72624,465.22954 -406.67311,443.76435C-425.12616,416.16023 -399.96678,415.05267 -384.03694,411.71175zM-361.16271,472.18899C-361.23568,474.58376 -361.21006,473.74199 -361.16271,472.18899zM-314.59856,406.95295C-315.97401,429.59183 -303.75772,450.94147 -301.41074,472.28182C-302.95753,488.89975 -297.68241,508.52263 -317.90376,505.97672C-325.90527,511.18862 -325.19185,516.14162 -332.64393,508.17121C-337.73854,509.61545 -352.72677,514.87939 -341.54768,507.45287C-343.5103,484.88686 -343.16716,461.74535 -350.49307,439.69045C-351.88739,426.33385 -360.10778,406.0752 -342.1091,412.62304C-332.9988,410.41776 -323.90629,407.97568 -314.59856,406.95295zM-681.96079,447.44715C-665.38036,445.95954 -645.1313,446.53185 -643.92947,472.56711C-650.48653,487.31005 -649.68577,516.93661 -638.8157,532.12452C-638.96948,540.94039 -665.47017,556.77336 -672.97546,537.84417C-678.91732,528.34367 -673.39421,502.40222 -680.01387,501.99483C-669.34924,494.59143 -689.37047,472.00405 -676.72294,463.73377C-677.32739,457.98678 -679.15119,452.24513 -681.96079,447.44715zM-482.74535,426.53395C-477.54726,443.24478 -477.70458,462.95896 -475.03944,478.08698C-467.65284,484.49256 -473.99296,528.46763 -482.04912,529.29384C-490.35761,531.94572 -506.97388,527.31896 -511.52794,526.19017C-518.22831,504.08369 -517.09065,481.32231 -518.46228,458.24371C-523.61811,443.46336 -526.1076,428.3888 -508.20983,433.66736C-498.45913,435.94051 -491.00429,430.79327 -482.74535,426.53395zM-472.16838,524.71969C-473.77768,522.92241 -473.50907,523.22241 -472.16838,524.71969zM-473.49686,523.23601C-474.78997,521.10759 -474.56765,521.47347 -473.49686,523.23601zM-472.09076,482.97891C-480.56435,479.2369 -472.96884,487.22508 -472.09076,482.97891zM-615.86492,441.62301C-594.2081,432.89228 -583.94231,461.75471 -593.31686,481.82456C-584.5317,499.63466 -583.90061,518.35394 -584.95476,535.9059C-575.23466,544.13179 -562.1789,530.21282 -572.64517,523.1525C-563.9549,517.36299 -578.82168,494.80851 -573.98965,480.74153C-578.83978,462.3258 -584.97944,435.17421 -562.34004,437.65765C-554.79309,429.59891 -536.82832,441.44692 -539.32636,437.75233C-537.31056,440.28265 -537.99832,472.40182 -534.89824,486.00159C-533.17279,498.44893 -531.77716,518.23034 -527.4035,521.5003C-523.02052,544.20996 -537.7748,524.08714 -545.50931,532.73888C-531.09046,543.5736 -560.02426,531.45167 -566.7268,537.34163C-584.59184,537.1843 -600.87917,534.46481 -617.6353,541.72124C-631.65599,542.57537 -624.33199,528.1231 -629.5713,519.28431C-624.3867,494.68747 -638.54482,467.28021 -632.95279,444.48438C-627.70888,441.34347 -621.42946,443.37988 -615.86492,441.62295zM-628.48629,540.20347C-626.19316,540.99549 -629.12637,541.88069 -628.48629,540.20347z" stroke-dashoffset="0" stroke-miterlimit="4" stroke-linejoin="round" stroke-width="8" fill-rule="nonzero" fill="#b5c1c1" transform="translate(-5.88106 -82.5412) matrix(1 0 0 1 742.405 437.39)" id="imagebot_3"/>
  <path label="casa" display="inline" d="M-385.17619,385.3097C-410.41607,391.66486 -437.07018,382.8219 -462.16276,388.7545C-485.61023,396.93635 -510.38464,403.02463 -535.2456,398.44535C-565.95986,406.37514 -597.84608,405.30419 -628.52243,413.37332C-650.82981,419.59484 -674.66003,415.15357 -696.62284,421.01778C-709.21515,435.45045 -703.47399,459.77897 -701.92377,478.98308C-702.14341,492.93899 -696.08661,509.70581 -697.45535,511.03866C-695.34877,524.11608 -698.4756,541.62475 -692.07913,550.18498C-700.16641,571.90683 -686.29696,587.17863 -669.07391,577.02465C-646.41065,574.2762 -622.37015,579.82302 -600.79499,569.32096C-574.77381,571.12595 -549.38288,564.27325 -524.12879,559.01053C-514.54341,557.23256 -495.7944,552.67046 -499.26938,557.04467C-472.20698,560.02337 -448.47101,541.64115 -421.78557,541.2793C-404.27952,536.25897 -389.68052,548.05408 -371.46853,539.22705C-353.1295,544.35492 -333.51748,523.58279 -313.36558,534.96785C-297.22622,525.05077 -276.56469,532.07306 -256.54442,530.63233C-236.47473,526.56889 -216.2338,521.6461 -195.44538,528.61833C-170.16745,535.80764 -180.64712,498.98344 -181.43644,482.87287C-183.98801,463.50828 -189.26401,444.93456 -188.28328,428.15985C-189.79884,409.09647 -185.37054,385.90356 -197.11106,368.80827C-217.58793,369.31336 -237.58638,375.21273 -257.96026,376.23478C-274.86512,379.83923 -292.14849,373.96913 -308.31966,377.11214C-344.05332,386.33311 -348.3813,365.57898 -385.17619,385.30964L-385.17619,385.3097zM-299.93558,401.51776C-281.88578,402.94183 -269.21168,404.02198 -251.55583,397.1106C-238.39608,399.27539 -202.8604,383.76879 -209.71357,413.36601C-206.33112,436.27494 -209.48803,456.59631 -206.26534,479.8117C-209.15786,490.51323 -193.57113,505.69973 -211.6059,496.83159C-219.61342,495.81094 -236.97812,497.44165 -226.4137,484.49244C-239.63559,470.33837 -237.55157,424.91547 -242.40927,403.76534C-241.19299,385.26661 -269.57671,376.96153 -260.87688,403.13483C-247.37774,421.72346 -253.34932,462.6797 -246.10743,482.48931C-251.37091,492.15747 -236.77181,497.34735 -251.23077,501.91287C-268.28242,505.49469 -295.74885,503.32887 -290.249,473.11316C-283.80015,455.75436 -297.08632,444.74202 -297.55642,424.41085C-298.59644,416.8072 -299.20795,409.15488 -299.93551,401.51774L-299.93558,401.51776zM-427.52417,416.05471C-414.61864,414.09403 -434.97616,437.69132 -423.64201,448.72342C-415.19021,467.47326 -412.05016,489.41343 -413.84276,510.20042C-424.34533,519.39515 -446.05771,508.84935 -458.23362,521.92397C-451.36574,508.60162 -459.63488,497.82092 -458.23184,483.22707C-460.89812,463.9547 -465.74746,439.67591 -466.0119,423.60904C-454.13305,417.07645 -440.147,419.34329 -427.52493,416.05471zM-384.03694,411.71175C-366.84891,405.16777 -367.06157,434.38765 -362.32052,448.00778C-362.41787,457.54718 -362.4483,474.06463 -359.1409,471.36159C-357.67808,480.15229 -355.35412,491.63895 -355.82452,505.26048C-367.02954,510.82756 -392.05273,520.75254 -398.48239,506.61488C-400.12648,486.34954 -403.72624,465.22954 -406.67311,443.76435C-425.12616,416.16023 -399.96678,415.05267 -384.03694,411.71175zM-361.16271,472.18899C-361.23568,474.58376 -361.21006,473.74199 -361.16271,472.18899zM-314.59856,406.95295C-315.97401,429.59183 -303.75772,450.94147 -301.41074,472.28182C-302.95753,488.89975 -297.68241,508.52263 -317.90376,505.97672C-325.90527,511.18862 -325.19185,516.14162 -332.64393,508.17121C-337.73854,509.61545 -352.72677,514.87939 -341.54768,507.45287C-343.5103,484.88686 -343.16716,461.74535 -350.49307,439.69045C-351.88739,426.33385 -360.10778,406.0752 -342.1091,412.62304C-332.9988,410.41776 -323.90629,407.97568 -314.59856,406.95295zM-681.96079,447.44715C-665.38036,445.95954 -645.1313,446.53185 -643.92947,472.56711C-650.48653,487.31005 -649.68577,516.93661 -638.8157,532.12452C-638.96948,540.94039 -665.47017,556.77336 -672.97546,537.84417C-678.91732,528.34367 -673.39421,502.40222 -680.01387,501.99483C-669.34924,494.59143 -689.37047,472.00405 -676.72294,463.73377C-677.32739,457.98678 -679.15119,452.24513 -681.96079,447.44715zM-482.74535,426.53395C-477.54726,443.24478 -477.70458,462.95896 -475.03944,478.08698C-467.65284,484.49256 -473.99296,528.46763 -482.04912,529.29384C-490.35761,531.94572 -506.97388,527.31896 -511.52794,526.19017C-518.22831,504.08369 -517.09065,481.32231 -518.46228,458.24371C-523.61811,443.46336 -526.1076,428.3888 -508.20983,433.66736C-498.45913,435.94051 -491.00429,430.79327 -482.74535,426.53395zM-472.16838,524.71969C-473.77768,522.92241 -473.50907,523.22241 -472.16838,524.71969zM-473.49686,523.23601C-474.78997,521.10759 -474.56765,521.47347 -473.49686,523.23601zM-472.09076,482.97891C-480.56435,479.2369 -472.96884,487.22508 -472.09076,482.97891zM-615.86492,441.62301C-594.2081,432.89228 -583.94231,461.75471 -593.31686,481.82456C-584.5317,499.63466 -583.90061,518.35394 -584.95476,535.9059C-575.23466,544.13179 -562.1789,530.21282 -572.64517,523.1525C-563.9549,517.36299 -578.82168,494.80851 -573.98965,480.74153C-578.83978,462.3258 -584.97944,435.17421 -562.34004,437.65765C-554.79309,429.59891 -536.82832,441.44692 -539.32636,437.75233C-537.31056,440.28265 -537.99832,472.40182 -534.89824,486.00159C-533.17279,498.44893 -531.77716,518.23034 -527.4035,521.5003C-523.02052,544.20996 -537.7748,524.08714 -545.50931,532.73888C-531.09046,543.5736 -560.02426,531.45167 -566.7268,537.34163C-584.59184,537.1843 -600.87917,534.46481 -617.6353,541.72124C-631.65599,542.57537 -624.33199,528.1231 -629.5713,519.28431C-624.3867,494.68747 -638.54482,467.28021 -632.95279,444.48438C-627.70888,441.34347 -621.42946,443.37988 -615.86492,441.62295zM-628.48629,540.20347C-626.19316,540.99549 -629.12637,541.88069 -628.48629,540.20347z" stroke-dashoffset="0" stroke-miterlimit="4" stroke-linejoin="round" stroke-width="8" fill-rule="nonzero" fill="#b5c1c1" transform="translate(-5.88106 -82.5412) matrix(1 0 0 1 754.33 735.413)" id="imagebot_2"/>
 </g>
</svg>