<svg width="582" height="1875" xmlns="http://www.w3.org/2000/svg"><path d="M285.273 324.47c-44.63 28.261-91.277 5.61-136.797 13.668-28.166 1.905-57.456-3.284-84.982 13.923-.206 129.241-20.746 721.717-23.244 1035.877-1.773 223.027 3.064 464.887 3.064 464.887s49.755 1.31 74.679.728c35.988 15.824 104.716-13.811 138.414-18.115 33.862 4.782 66.906-16.712 100.853-6.37 30.588 12.447 89.033-16.045 113.65-.902 42.133-11.45 57.887-11.635 57.887-11.635s-11.37-194.724-14.344-269.351c6.508-249.337 3.694-506.399-9.117-721.275-3.22-54.01-3.006-118.842-7.47-176.01-1.147-47.948-6.693-142.842-9.736-208.202 6.422-113.601-48.417-98.765-72.726-80.259-31.11-2.67-62.698-1.519-92.83-25.89-12.37-4.191-25.572 4.737-37.3-11.074zm94.776 38.106 1.313 1.03-1.313-1.03zm33.182-2.97c7.155 13.672 6.318-22.668 0 0zm13.96-.013c7.612 10.117-.975-17.068 0 0zm60.778 94.998c-4.072-3.192.296 22.82 0 0zm25.947 1039.733c-1.452 9.15 5.462.482 0 0zm2.08 88.076.836 2.668-.837-2.668zm-.263 31.754 2.02.269zm1.182 6.962.512.691zm-103.233 196.87-.498.574zM61.583 547.364l-1.248-.22zm-8.371-58.067.172-1.301zm-3.578-61.914.11-.772zm3.16-60.989c-1.806 3.016-1.592 2.66 0 0zm24.156-21.977c3.27-7.174-4.168-4.977 0 0zm20.241 3.134.609-1.577zm109.615-15.903c3.774-1.107-2.339-5.37 0 0zm.743-2.704c1.939 2.336-.573-6.364 0 0zm.752-.443c1.597 17.58 5.577-14.14 0 0zm3.119-.697.096.018zm.096.018c.987 16.434 4.824-5.481 0 0zm28.627 11.843-.123-.72zm4.227-1.292c1.503 6.284 1.607-8.304 0 0zm1.363-.267c4.035 11.207 2.25-9.409 0 0zm18.813.147c7.82.579-4.94-16.98 0 0zm-135.827.624c2.242-6.18 1.01 5.957 0 0zm-21.302 3.189c2.305-8.391 1.295 7.918 0 0zm-24.889 7.524c-.482 7.642-2.263-6.543 0 0zM59.222 525.247l-.673 1.399zm431.89 56.226c1.961-3.166.046 5.03 0 0zM375.557 1818.846c4.891 3.204-3.994 8.3 0 0zm-28.656 4.396c7.693-3.446-2.198 10.892 0 0zm23.47.606c3.253 6.4-7.148-2.492 0 0z" fill="#e9d3c6"/><path d="M138.43 63.489c22.631-.412 41.997 14.418 64.534 14.286 29.713 4.625 59.485 7.903 88.74 15.06 26.033 4.547 51.797 11.819 77.186 18.102 20.833-.019 39.645 10.191 58.57 17.34 26.653 15.367 21.412 49.266 36.278 72.167 7.56 25.67 10.138 52.695 22.336 76.756 8.755 24.92 28.662 95.844 28.662 95.844s-36.257-1.703-57.578-.077c-24.188-1.739-43.471-6.856-67.636-6.797-20.966.051-47.074 3.24-68.342 3.584-18.345.297-40.684-.213-54.531.734-34.739 3.343-78.478-.982-110.403-2.48-18.217-.854-34.089 1.12-52.767 4.351-19.328 2.938-39.586-1.336-52.78.642-14.528 2.179-30.015-4.625-46.7 1.203.19-12.865 6.051-32.623 11.398-47.347 14.149-23.404 13.07-47.996 23.263-75.874 5.16-14.11 17.623-40.616 25.761-59.677 5.163-28.276 17.237-54.277 29.792-79.93 6.31-18.336 16.282-44.641 16.282-44.641s22.523-3.201 27.935-3.246z" fill="#d85454"/><path d="M208.635 1282.494c-7.213 2.263-15.644 4.402-22.522 3.8-8.581.964-15.088 4.902-23.737 3.97-9.537-3.544-16.562 7.935-26.112 2.681-7.441 5.993-17.603 4.876-25.747 9.94-6.162 6.729-7.706 17.527-2.763 24.476-.488 7.775 5.557 16.326 4.735 24.793.913 7.867 2.615 15.462 4.595 23.02 1.423 7.388 4.104 14.305 4.746 21.915 3.768 10.083-3.918 22.95 3.799 31.212 3.087 8.263 6.048 17.038 6.727 25.931.992 8.946 2.04 19.328 8.022 25.68 6.45 4.615 14.33 1.344 21.606 2.148 6.986 1.828 14.105-1.959 20.808.368 7.937 2.18 14.844-3.41 21.986-1.682 6.476 3.354 15.65-1.282 23.618.012 6.77-5.944 22.32-.715 24.174-10.75-1.727-6.264 5.033-9.22 2.516-16.34-1.703-8.686-2.735-17.338-5.42-25.654-1.488-9.307-5.988-17.477-5.121-27.955-3.865-8.671-4.175-16.344-4.068-25.378-2.831-4.716 2.717-8.014-3.336-8.144-2.214-6.88-3.476-14.314-6.505-21.841-1.678-4.349-1.029-13.089-2.6-14.857 1.274 4.59-2.952-5.985-2.685-7.576 3.767-10.891-3.21-20.099-7.4-28.832-.768-5.988-2.783-12.27-9.316-10.937zm18.336 42.903c.318-.902.208-.59 0 0zm.956 2.252c1.651.533-.015-3.017 0 0zm.714-1.075c.312-.687-1.065-.212 0 0zm4.387 23.543c-.053 1.749.85.016 0 0zm1.879 5.194 1.027-.524-1.027.524zm-1.513 1.126c2.06 2.223 1.33-2.145 0 0zm1.505 5.599c2.829-.517-1.112-1.724 0 0zm1.513 1.388c3.57 1.334-1.646-4.463 0 0zm1.373.721.505.242-.505-.242zm-.85 1.444c-.105 3.03 1.697.695 0 0zm9.2 110.508c-1.198-.574.455 1.101 0 0zm-23.844 4.969c-2.588-.397-.621 1.599 0 0zm-5.796.45c-1.113-1.876-1.248 2.076 0 0zm-1.169.295c-2.137.367.589 4.686 0 0zm-35.283.974-.58.192.58-.192zm-14.07-1.112c-2.749-.322 3.412 1.213 0 0zm-28.848-6.15c-2.047-2.625-1.375 1.752 0 0zm-2.67-7.313-.074.074.074-.074zm-20.792-106.9c-.578-1.576-.522 2.47 0 0zm-.233-.447c1.088-.929-.52-.766 0 0zm-.538-11.408c.53.306-.038-.6 0 0zm-2.316-14.162c-2.086-1.208-2.75 2.538 0 0zm96.012-50.138.147.04-.147-.04zm-11.284.501c3.702-1.043-.24 2.01 0 0zm16.04 8.31c1.279-.03.051 1.114 0 0zm.823.02c1.403-.177-.5 1.277 0 0zm-99.978 9.188c.311.91-1.019-.027 0 0zm112.33 4.279c2.654.953-1.832 2.239 0 0zm.365 13.394c1.208 1.572-2.355-.85 0 0zm-115.91 10.278c5.742 2.175-4.444-.14 0 0zm2.48 11.367c.962 1.524-1.403.12 0 0zm119.945 7.216c.305.466-1.418-.42 0 0zm8.056 25.676c3.85 1.26-1.418 3.171 0 0zm-116.327 26.655.373.07-.373-.07zm11.841 64.585c.989.099-.43 1.49 0 0zm12.729 6.182c1.135 1.693-1.484 1.216 0 0zm86.663 1.071c2.506.5.66 3.632 0 0zm4.821.327c3.9 3.452-6.007.6 0 0zm5.816.446c.384 1.361-1.697.03 0 0zm-11.978.85c1.035.445-1.465.178 0 0zm6.335.62c.276.457-.64.075 0 0zm-4.857 1.182c1.745 1.549-1.714.063 0 0zm-81.546 3.557c1.691-.012-.56.654 0 0zm-7.727.336c1.765 1.228-2.817.384 0 0z" fill-rule="evenodd" fill="#9788af"/><path d="M258.195 1588.191c-4.258 2.332-9.462.582-12.177 2.327-1.303-1.012-4.71 7.605-4.352 8.032-.82 3.651.308 2.634-.156 5.99-1.275 3.604 1.519 4.648.153 7.387-1.426 3.8 1.048 1.98-1.15 6.23-1.734 2.025 1.117 3.216 1.063 5.328-1.051 1.506-2.768 4.791.12 7.254-1.864.698-.286 5.29-1.835 8.99 1.387 4.206-1.105 4.905 2.21 5.737-3.028 1.064-.76 4.265-2.768 5.053 3.026 2.271-3.878 1.668-.074 2.63.435 2.745.082 2.816-.758 5.511-.11 2.153 1.261 7.11-.867 8.866-1.712 5.375-1.495 9.53-2.114 15.531.86 3.515-2.706 7.318-2.072 11.974-1.365 5.24.522 7.29-1.861 11.925.958 3.848.586 7.278-.382 8.823-.285 3.69-.313 9.009-1.078 12.49.388 1.748-.514 7.694-.026 8.965-.627 1.46 1.028 4.732-.871 6.765.397 1.488-1.52 7.728 1.03 10.199-2.156 2.463-.17 6.2-1.755 9.63 2.318 3.328.336 6.243-.266 8.185-2.059 3.06-2.523 7.42-1.851 9.188-2.333 1.871-3.008 4.23-2.131 6.639 1.741 1.699-3.705 3.586-.805 7.802-.58 4.08-2.286 6.32-2.011 9.431-.553 4.536-.231 5.226-1.2 8.181-.568 2.74.998 5.573-1.732 8.411-.337 3.905-1.854 5.415.196 9.268-.276 4.487 2.468 3.37 5.768 4.864.8-2.322 1.188 3.114 4.388-.639.428.557.857.79 1.293.841.046.464 1.338.314.928-.136 1.107-.373 2.264-1.34 3.52-.957 1.432.982 2.97.82 4.182.655.017.06.213.083.805-.037-.01-.027-.032-.036-.047-.057.721-.075 1.24-.036 1.396.512 4.212.444 7.54.449 9.897.05-1.052.786 2.753.813.711-.14.202-.046.455-.072.638-.126 6.382 2.743 12.4-.038 19.614 2.444 3.103-2.376 9.81 1.677 12.995-.103 4.299.033 5.075-2.481 12.047.066.65-1.466 5.871.236 9.547-.615 5.37.87 11.033.409 11.975.685 4.148-1.632 6.036 4.106 9.98-.748 3.483.302 11.062.128 15.447 1.363 2.763 1.91.43-6.486 3.66-.322.774-3.815 5.03.533 7.101-1.536 6.458.26 1.713-.466 3.846-.785 5.728 4.13 13.75-4.84 10.788-9.125-2.027-1.977.703-6.11-1.197-6.34 2.748-.746-.895-4.14.811-6.233-.205.85 1.199-.415.03-.03.068-.08.128-.163.213-.239.11-4.77.847-5.325 1.782-9.527-2.371-1.362 2.149-5.017-.459-7.287-.05-1.024-.831-3.912-.462-6.523.849-1.973-1.352-3.018.615-3.636-2.58-.05 2.24-5.355.765-8.348.553-2.866 1.41-5.576.123-8.005 2.771-3.094-.833-5.244 3.048-6.356-1.447-1.424-.458-5.322-1.363-6.998 2.182-2.777.444-5.698.944-7.316 1.278-3.059-.757-6.098-.106-7.553 2.087-3.913 1.69-8.617 1.709-12.264-1.086-2.574 3.086-1.976.501-4.647.45-3.1 2.128-5.561.21-8.903 1.504-2.207 1.334-6.45 1.057-9.93 1.12-4.53-1.59-5.575.366-9.447-.854-2.195-.62-11.123 1.542-11.845-.195-4.04-1.83-7.274 1.21-10.478 2.427-5.102-.704-8.23 2.218-10.352-.343-5.225-.983-12.117-1.26-16.296.85-1.476 1.156-5.119.17-6.482-1.02-7.119 2.017-5.073-1.101-12.014 1.789-5.035 1.485-7.969 2.31-11.931.963-3.116-1.078-9.584-4.109-10.11.05-.846-4.127-2.372-5.86-1.635-2.679-.026-9.017-4.604-12.799-2.264-6.34 1.22-10.14-1.053-16.086-.681-4.582-1.754-6.706 1.251-4.319-2.873-3.74.453-9.949-3.41-14.926-3.045-4.002-3.249-10.998 3.34-13.444-.738 7.177-1.73-7.387.161-8.018-1.233-2.752-1.712-9.014-.708-11.97.22-.118.023-.216.011-.33.026-.854-1.041-1.513-2.398-2.706-2.949-1.966-.908-10.912-.744-12.835-.758-.399.01-.241.01-.608.02-4.9-1.874-11.081-2.03-16.625-3.896zm34.988 6.094c-.08.013-.148.063-.19.166 2.02 1.48.759-.261.19-.166zm85.638 13.593c-.01-.007-.04-.005-.106.017-.026.105.136.003.106-.017zm-140.562 57.474-.01.01.01-.01zm133.78.183c.077.108.122.199.207.312-.087.033-.158.085-.24.123l.034-.435zm-5.724 74.435c.065.032.054.065-.01.1l.01-.1zm5.056 31.514c.126.182-.23.126 0 0zm-147.573 16.911c-.285.064-.47.388.286.057a.326.326 0 0 0-.286-.057zm1.004 6.363c.714.443-.947 1.72 0 0zm1.632 28.858-.1.911c-.103-.158-.168-.215-.322-.488.03-.269.199-.377.422-.423zm134.582 1.593c.887-.019-.957.451 0 0zm1.878.468c1.411.141-.657 1.429 0 0zm-84.52.48h1.429c-.402.14-.646.237-1.21.418-.068-.161-.146-.28-.22-.419zm21.97 0h2.998c-1.054.331-2.048.231-2.998 0zm4.358 0h4.182c-1.004.752-2.052 1.558-4.182 0zm7.59 0h.452c-.09.042-.198.078-.283.122-.06-.05-.111-.077-.17-.123zm-83.484 1.2c1.08-.03-.229 1.072 0 0zm129.386 1.781c.307.018-.163.118 0 0zm-.313.512c.808 1.224-.354.322 0 0zm-137.317 5.502.09.445-.09-.445zm11.292.837c-.207.012-.478.079-.828.22.57 2.266 2.28-.3.828-.22zm127.215.642-.372.093.372-.093zm-51.82.087c1.042.3-.497.447 0 0zm43.12.615c-2.411-.012-4.275 1.113 1.048.083a6.604 6.604 0 0 0-1.047-.083zm-60.768.103c-2.511.563 2.163.69 0 0zm29.124.196c1.173.06-1.252.68 0 0zm-44.29.22-.04.026.04-.027z" fill-rule="evenodd" fill="#c1573a"/><path d="M351.381.446c8.64-.446 15.438 5.47 23.17 7.04 6.932 3.875 14.94 10.846 23.868 12.394 7.152 3.612 15.92 5.828 23.182 11.072 8.418 5.374 18.612 9.022 25.284 16.667-2.415 4.552-3.561 10.905-8.228 16.826-5.072 6.153-6.876 15.703-10.865 23.17-3.138 8.068-4.58 16.711-9.09 21.839-1.377 8.698-5.995 15.68-7.325 24.687-3.308 10.182-11.817 17.471-14.428 27.71-2.703 9.296-6.132 18.954-10.38 27.226-2.629 8.492-12.387 11.896-19.023 4.966-6.41-.713-14.75 1.689-22.597-3.799-7.999-4.167-16.643-6.611-25.071-8.837-8.213-5.708-17.61-9.054-25.92-14.567-7.729-.384-22.004-4.132-16.138-14.43 1.211-8.925 5.313-16.738 8.145-25.317 4.794-6.275 10.12-11.007 13.531-19.823 2.044-8.178 7.727-14.475 11.104-22.06 4.913-7.102 4.25-15.748 9.711-22.432 5.953-8.4 10.68-17.028 13.077-27.317 2.448-6.196 5.386-13.75 8.708-18.793-.25-7.295 3.48-15.354 9.285-16.222zm-16.69 32.862-.453-.188.453.188zm-49.685 96.495c-.603 1.911-1.542-1.086 0 0zm-1.324 5.018c-.942.02.458-.497 0 0zm-.354-.211c-2.246-.605 1.174-.754 0 0zm-.063.016-.353-.211.353.21zm-.359-.227c-.681-.682-.392-.393 0 0zm.265.255.047.039zm.047.039.275.178zm-.553.94c-.305-1.173 1.123-.035 0 0zm-4.033 13.465c-.433-.456 1-.713 0 0zm.189-.46c.096-.58 1.283-.182 0 0zm-.103 2.221c.637.314-.764.284 0 0zm13.672 15.819c.595.037-.532.597 0 0zm4.686 1.788c-.305.466-.307-.665 0 0zm-.169.1c1.337 1.542-1.415.468 0 0zm1.347.91c.769 1.421-.84-.582 0 0zm68.372 24.234c2.054.554-1.634 2.165 0 0zm2.14 1.096c.738.885-1.328.593 0 0zm.616.119.1.115zm28.705-37.164c-1.132-.995 1.468-.481 0 0zM443.214 55.39c1.017.232-.264.38 0 0zm.267.244.299.448zm.098.025c-1.109-1.746 1.566-.125 0 0zm1.01-1.902c-2.023-1.323 2.809-.646 0 0zm.17-.931c-1.626.61 1.022-.702 0 0zm1.126-2.216c.376-.232-.132.88 0 0zm-88.25-49.536c-.382-.333.554-.476 0 0zM357.5.83l-.1.112zm-7.012 9.944c-.73 1.853 3.708-.378 0 0zm5.225.69-.06.284zm-.177.324c-.792.477.605.228 0 0zm.122.014c-.232.524.772-.1 0 0zm-1.18.305c1.068 1.34 1.406-.19 0 0zm.51-.006c3.46-.1-1.51.638 0 0zm2.55 1.135c-2.213 3.253-2.105 4.67 0 0zm88.694 35.06c-1.758-.535.816 2 0 0zM317.769 69.368c-.46.848.532.092 0 0zm-32.598 60.982c-.806.198.7.675 0 0z" fill-rule="evenodd" fill="#ff7f2a"/><path d="M435.132 1264.614c-7.213 2.263-15.644 4.402-22.522 3.8-8.581.964-15.088 4.902-23.737 3.97-9.537-3.544-16.562 7.935-26.112 2.681-7.441 5.993-17.603 4.876-25.747 9.94-6.162 6.729-7.706 17.527-2.763 24.476-.488 7.775 5.557 16.326 4.735 24.793.913 7.867 2.615 15.462 4.595 23.02 1.423 7.388 4.104 14.305 4.746 21.915 3.768 10.083-3.918 22.95 3.799 31.212 3.087 8.263 6.048 17.038 6.727 25.931.992 8.946 2.04 19.328 8.022 25.68 6.45 4.615 14.33 1.344 21.606 2.148 6.986 1.828 14.105-1.959 20.808.368 7.937 2.18 14.844-3.41 21.986-1.682 6.476 3.354 15.65-1.282 23.618.012 6.77-5.944 22.32-.715 24.174-10.75-1.727-6.264 5.033-9.22 2.516-16.34-1.703-8.686-2.735-17.338-5.42-25.654-1.488-9.307-5.988-17.477-5.121-27.955-3.865-8.671-4.175-16.344-4.068-25.378-2.831-4.716 2.717-8.014-3.336-8.144-2.214-6.88-3.476-14.314-6.505-21.841-1.678-4.349-1.029-13.089-2.6-14.857 1.274 4.59-2.952-5.985-2.685-7.576 3.767-10.891-3.21-20.099-7.4-28.832-.768-5.988-2.783-12.27-9.316-10.937zm18.336 42.903c.318-.902.208-.59 0 0zm.956 2.252c1.651.533-.015-3.017 0 0zm.714-1.075c.312-.687-1.065-.212 0 0zm4.387 23.543c-.053 1.749.85.016 0 0zm1.879 5.194 1.027-.524-1.027.524zm-1.513 1.126c2.06 2.223 1.33-2.145 0 0zm1.505 5.599c2.829-.517-1.112-1.724 0 0zm1.513 1.388c3.57 1.334-1.646-4.463 0 0zm1.373.721.505.242-.505-.242zm-.85 1.444c-.105 3.03 1.697.695 0 0zm9.2 110.508c-1.198-.574.455 1.101 0 0zm-23.844 4.969c-2.588-.397-.621 1.599 0 0zm-5.796.45c-1.113-1.876-1.248 2.076 0 0zm-1.169.295c-2.137.367.589 4.686 0 0zm-35.283.974-.58.192.58-.192zm-14.07-1.112c-2.749-.322 3.412 1.213 0 0zm-28.848-6.15c-2.047-2.625-1.375 1.752 0 0zm-2.67-7.313-.074.074.074-.074zm-20.792-106.9c-.578-1.576-.522 2.47 0 0zm-.233-.447c1.088-.929-.52-.766 0 0zm-.538-11.408c.53.306-.038-.6 0 0zm-2.316-14.162c-2.086-1.208-2.75 2.538 0 0zm96.012-50.138.147.04-.147-.04zm-11.284.501c3.702-1.043-.24 2.01 0 0zm16.04 8.31c1.279-.03.051 1.114 0 0zm.823.02c1.403-.177-.5 1.277 0 0zm-99.978 9.188c.311.91-1.019-.027 0 0zm112.33 4.279c2.654.953-1.832 2.239 0 0zm.365 13.394c1.208 1.572-2.355-.85 0 0zm-115.91 10.278c5.742 2.175-4.444-.14 0 0zm2.48 11.367c.962 1.524-1.403.12 0 0zm119.945 7.216c.305.466-1.418-.42 0 0zm8.056 25.676c3.85 1.26-1.418 3.171 0 0zm-116.327 26.655.373.07-.373-.07zm11.841 64.585c.989.099-.43 1.49 0 0zm12.729 6.182c1.135 1.693-1.484 1.216 0 0zm86.663 1.071c2.506.5.66 3.632 0 0zm4.821.327c3.9 3.452-6.007.6 0 0zm5.816.446c.384 1.361-1.697.03 0 0zm-11.978.85c1.035.445-1.465.178 0 0zm6.335.62c.276.457-.64.075 0 0zm-4.857 1.182c1.745 1.549-1.714.063 0 0zm-81.546 3.557c1.691-.012-.56.654 0 0zm-7.727.336c1.765 1.228-2.817.384 0 0z" fill-rule="evenodd" fill="#9788af"/><path d="M339.43 1366.019c-25.24 6.355-51.893-2.488-76.986 3.444-23.447 8.182-48.222 14.27-73.083 9.691-30.714 7.93-62.6 6.859-93.276 14.928-22.308 6.222-46.138 1.78-68.1 7.645-12.593 14.432-6.852 38.76-5.302 57.965-.22 13.956 5.837 30.723 4.469 32.055 2.106 13.078-1.02 30.587 5.376 39.147-8.087 21.722 5.782 36.993 23.005 26.84 22.663-2.749 46.704 2.798 68.279-7.704 26.021 1.805 51.412-5.048 76.666-10.31 9.586-1.779 28.335-6.34 24.86-1.967 27.062 2.98 50.798-15.403 77.483-15.765 17.506-5.02 32.105 6.775 50.317-2.052 18.34 5.128 37.951-15.644 58.103-4.26 16.14-9.916 36.801-2.894 56.822-4.335 20.07-4.063 40.31-8.986 61.099-2.014 25.277 7.19 14.798-29.635 14.008-45.745-2.551-19.365-7.827-37.939-6.846-54.713-1.516-19.064 2.912-42.257-8.828-59.352-20.477.505-40.475 6.405-60.85 7.427-16.904 3.604-34.188-2.266-50.359.877-35.733 9.22-40.061-11.533-76.856 8.197zm85.241 16.208c18.05 1.424 30.724 2.504 48.38-4.408 13.16 2.165 48.696-13.341 41.842 16.256 3.383 22.909.226 43.23 3.449 66.446-2.893 10.701 12.694 25.888-5.341 17.02-8.007-1.021-25.372.61-14.808-12.34-13.222-14.154-11.138-59.577-15.995-80.727 1.216-18.499-27.168-26.804-18.468-.63 13.5 18.588 7.528 59.544 14.77 79.354-5.264 9.668 9.335 14.858-5.124 19.424-17.051 3.581-44.518 1.416-39.018-28.8 6.449-17.359-6.837-28.371-7.307-48.702-1.04-7.604-1.652-15.256-2.38-22.893zm-127.588 14.537c12.905-1.961-7.452 21.636 3.882 32.668 8.452 18.75 11.592 40.69 9.8 61.477-10.503 9.195-32.216-1.35-44.392 11.724 6.868-13.323-1.4-24.103.002-38.697-2.666-19.272-7.516-43.551-7.78-59.618 11.879-6.533 25.865-4.266 38.487-7.554zm43.487-4.343c17.188-6.544 16.975 22.675 21.716 36.296-.097 9.539-.127 26.056 3.18 23.353 1.463 8.791 3.787 20.278 3.316 33.9-11.205 5.566-36.228 15.491-42.657 1.354-1.645-20.266-5.244-41.386-8.191-62.85-18.453-27.605 6.706-28.713 22.636-32.053zm22.874 60.477c-.073 2.395-.047 1.553 0 0zm46.564-65.236c-1.375 22.639 10.841 43.988 13.188 65.329-1.547 16.618 3.729 36.24-16.493 33.695-8.001 5.211-7.288 10.164-14.74 2.194-5.095 1.444-20.083 6.708-8.904-.718-1.962-22.566-1.62-45.708-8.945-67.763-1.394-13.356-9.615-33.615 8.384-27.067 9.11-2.205 18.203-4.648 27.51-5.67zm-367.362 40.494c16.58-1.488 36.83-.915 38.031 25.12-6.557 14.743-5.756 44.37 5.114 59.557-.154 8.816-26.654 24.65-34.16 5.72-5.941-9.5-.418-35.442-7.038-35.85 10.665-7.403-9.357-29.99 3.291-38.26-.604-5.747-2.428-11.49-5.238-16.287zm199.216-20.913c5.198 16.71 5.04 36.425 7.706 51.553 7.386 6.405 1.046 50.38-7.01 51.207-8.309 2.652-24.925-1.975-29.479-3.104-6.7-22.107-5.563-44.868-6.934-67.946-5.156-14.78-7.646-29.855 10.252-24.577 9.75 2.273 17.206-2.874 25.465-7.133zm10.577 98.185c-1.61-1.797-1.341-1.497 0 0zm-1.329-1.483c-1.293-2.129-1.07-1.763 0 0zm1.406-40.257c-8.473-3.742-.878 4.246 0 0zm-143.774-41.356c21.657-8.73 31.923 20.132 22.548 40.201 8.785 17.81 9.416 36.53 8.362 54.082 9.72 8.226 22.776-5.693 12.31-12.754 8.69-5.79-6.177-28.344-1.345-42.41-4.85-18.416-10.99-45.568 11.65-43.085 7.547-8.058 25.512 3.79 23.014.095 2.015 2.53 1.328 34.65 4.428 48.25 1.725 12.447 3.12 32.228 7.494 35.498 4.383 22.71-10.37 2.587-18.105 11.239 14.418 10.834-14.515-1.288-21.218 4.602-17.865-.157-34.152-2.876-50.908 4.38-14.021.854-6.697-13.598-11.936-22.437 5.184-24.597-8.974-52.004-3.382-74.8 5.244-3.14 11.523-1.104 17.088-2.861zm-12.621 98.58c2.293.792-.64 1.677 0 0z" fill="#b5c1c1"/><path d="M208.635 936.787c-7.213 2.263-15.644 4.402-22.522 3.8-8.581.964-15.088 4.902-23.737 3.97-9.537-3.544-16.562 7.935-26.112 2.681-7.441 5.993-17.603 4.876-25.747 9.94-6.162 6.729-7.706 17.527-2.763 24.476-.488 7.775 5.557 16.326 4.735 24.793.913 7.867 2.615 15.462 4.595 23.02 1.423 7.388 4.104 14.305 4.746 21.915 3.768 10.083-3.918 22.95 3.799 31.212 3.087 8.263 6.048 17.038 6.727 25.931.992 8.946 2.04 19.328 8.022 25.68 6.45 4.615 14.33 1.344 21.606 2.148 6.986 1.828 14.105-1.959 20.808.368 7.937 2.18 14.844-3.41 21.986-1.682 6.476 3.354 15.65-1.282 23.618.012 6.77-5.944 22.32-.715 24.174-10.75-1.727-6.264 5.033-9.22 2.516-16.34-1.703-8.686-2.735-17.338-5.42-25.654-1.488-9.307-5.988-17.477-5.121-27.955-3.865-8.671-4.175-16.344-4.068-25.378-2.831-4.716 2.717-8.014-3.336-8.144-2.214-6.88-3.476-14.314-6.505-21.841-1.678-4.349-1.029-13.089-2.6-14.857 1.274 4.59-2.952-5.985-2.685-7.576 3.767-10.891-3.21-20.099-7.4-28.832-.768-5.988-2.783-12.27-9.316-10.937zm18.336 42.903c.318-.902.208-.59 0 0zm.956 2.252c1.651.533-.015-3.017 0 0zm.714-1.075c.312-.687-1.065-.212 0 0zm4.387 23.543c-.053 1.749.85.016 0 0zm1.879 5.194 1.027-.524-1.027.524zm-1.513 1.126c2.06 2.223 1.33-2.145 0 0zm1.505 5.599c2.829-.517-1.112-1.724 0 0zm1.513 1.388c3.57 1.334-1.646-4.463 0 0zm1.373.721.505.242-.505-.242zm-.85 1.444c-.105 3.03 1.697.695 0 0zm9.2 110.508c-1.198-.574.455 1.101 0 0zm-23.844 4.969c-2.588-.397-.621 1.599 0 0zm-5.796.45c-1.113-1.876-1.248 2.076 0 0zm-1.169.295c-2.137.367.589 4.686 0 0zm-35.283.974-.58.192.58-.192zm-14.07-1.112c-2.749-.322 3.412 1.213 0 0zm-28.848-6.15c-2.047-2.625-1.375 1.752 0 0zm-2.67-7.313-.074.074.074-.074zm-20.792-106.9c-.578-1.576-.522 2.47 0 0zm-.233-.447c1.088-.929-.52-.766 0 0zm-.538-11.408c.53.306-.038-.6 0 0zm-2.316-14.162c-2.086-1.208-2.75 2.538 0 0zm96.012-50.138.147.04-.147-.04zm-11.284.501c3.702-1.043-.24 2.01 0 0zm16.04 8.31c1.279-.03.051 1.114 0 0zm.823.02c1.403-.177-.5 1.277 0 0zm-99.978 9.188c.311.91-1.019-.027 0 0zm112.33 4.279c2.654.953-1.832 2.239 0 0zm.365 13.394c1.208 1.572-2.355-.85 0 0zm-115.91 10.278c5.742 2.175-4.444-.14 0 0zm2.48 11.367c.962 1.524-1.403.12 0 0zM231.4 1004c.305.466-1.418-.42 0 0zm8.056 25.676c3.85 1.26-1.418 3.171 0 0zm-116.327 26.655.373.07-.373-.07zm11.841 64.585c.989.099-.43 1.49 0 0zm12.729 6.182c1.135 1.693-1.484 1.216 0 0zm86.663 1.071c2.506.5.66 3.632 0 0zm4.821.327c3.9 3.452-6.007.6 0 0zm5.816.446c.384 1.361-1.697.03 0 0zm-11.978.85c1.035.445-1.465.178 0 0zm6.335.62c.276.457-.64.075 0 0zm-4.857 1.182c1.745 1.549-1.714.063 0 0zm-81.546 3.557c1.691-.012-.56.654 0 0zm-7.727.336c1.765 1.228-2.817.384 0 0zM411.29 644.724c-7.213 2.263-15.644 4.402-22.522 3.8-8.581.964-15.088 4.902-23.737 3.97-9.537-3.544-16.562 7.935-26.112 2.681-7.441 5.993-17.603 4.876-25.747 9.94-6.162 6.729-7.706 17.527-2.763 24.476-.488 7.775 5.557 16.326 4.735 24.793.913 7.867 2.615 15.462 4.595 23.02 1.423 7.388 4.104 14.305 4.746 21.915 3.768 10.083-3.918 22.95 3.799 31.212 3.087 8.263 6.048 17.038 6.727 25.931.992 8.946 2.04 19.328 8.022 25.68 6.45 4.615 14.33 1.344 21.606 2.148 6.986 1.828 14.105-1.959 20.808.368 7.937 2.18 14.844-3.41 21.986-1.682 6.476 3.354 15.65-1.282 23.618.012 6.77-5.944 22.32-.715 24.174-10.75-1.727-6.264 5.033-9.22 2.516-16.34-1.703-8.686-2.735-17.338-5.42-25.654-1.488-9.307-5.988-17.477-5.121-27.955-3.865-8.671-4.175-16.344-4.068-25.378-2.831-4.716 2.717-8.014-3.336-8.144-2.214-6.88-3.476-14.314-6.505-21.841-1.678-4.349-1.029-13.089-2.6-14.857 1.274 4.59-2.952-5.985-2.685-7.576 3.767-10.891-3.21-20.099-7.4-28.832-.768-5.988-2.783-12.27-9.316-10.937zm18.336 42.903c.318-.902.208-.59 0 0zm.956 2.252c1.651.533-.015-3.017 0 0zm.714-1.075c.312-.687-1.065-.212 0 0zm4.387 23.543c-.053 1.749.85.016 0 0zm1.879 5.194 1.027-.524-1.027.524zm-1.513 1.126c2.06 2.223 1.33-2.145 0 0zm1.505 5.599c2.829-.517-1.112-1.724 0 0zm1.513 1.388c3.57 1.334-1.646-4.463 0 0zm1.373.721.505.242-.505-.242zm-.85 1.444c-.105 3.03 1.697.695 0 0zm9.2 110.508c-1.198-.574.455 1.101 0 0zm-23.844 4.969c-2.588-.397-.621 1.599 0 0zm-5.796.45c-1.113-1.876-1.248 2.076 0 0zm-1.169.295c-2.137.367.589 4.686 0 0zm-35.283.974-.58.192.58-.192zm-14.07-1.112c-2.749-.322 3.412 1.213 0 0zm-28.848-6.15c-2.047-2.625-1.375 1.752 0 0zm-2.67-7.313-.074.074.074-.074zm-20.792-106.9c-.578-1.576-.522 2.47 0 0zm-.233-.447c1.088-.929-.52-.766 0 0zm-.538-11.408c.53.306-.038-.6 0 0zm-2.316-14.162c-2.086-1.208-2.75 2.538 0 0zm96.012-50.138.147.04-.147-.04zm-11.284.501c3.702-1.043-.24 2.01 0 0zm16.04 8.31c1.279-.03.051 1.114 0 0zm.823.02c1.403-.177-.5 1.277 0 0zm-99.978 9.188c.311.91-1.019-.027 0 0zm112.33 4.279c2.654.953-1.832 2.239 0 0zm.365 13.394c1.208 1.572-2.355-.85 0 0zm-115.91 10.278c5.742 2.175-4.444-.14 0 0zm2.48 11.367c.962 1.524-1.403.12 0 0zm119.945 7.216c.305.466-1.418-.42 0 0zm8.056 25.676c3.85 1.26-1.418 3.171 0 0zM325.783 764.27l.373.07-.373-.07zm11.841 64.585c.989.099-.43 1.49 0 0zm12.729 6.182c1.135 1.693-1.484 1.216 0 0zm86.663 1.071c2.506.5.66 3.632 0 0zm4.821.327c3.9 3.452-6.007.6 0 0zm5.816.446c.384 1.361-1.697.03 0 0zm-11.978.85c1.035.445-1.465.178 0 0zm6.335.62c.276.457-.64.075 0 0zm-4.857 1.182c1.745 1.549-1.714.063 0 0zm-81.546 3.557c1.691-.012-.56.654 0 0zm-7.727.336c1.765 1.228-2.817.384 0 0zM196.714 656.645c-7.213 2.263-15.644 4.402-22.522 3.8-8.581.964-15.088 4.902-23.737 3.97-9.537-3.544-16.562 7.935-26.112 2.681-7.441 5.993-17.603 4.876-25.747 9.94-6.162 6.729-7.706 17.527-2.763 24.476-.488 7.775 5.557 16.326 4.735 24.793.913 7.867 2.615 15.462 4.595 23.02 1.423 7.388 4.104 14.305 4.746 21.915 3.768 10.083-3.918 22.95 3.799 31.212 3.087 8.263 6.048 17.038 6.727 25.931.992 8.946 2.04 19.328 8.022 25.68 6.45 4.615 14.33 1.344 21.606 2.148 6.986 1.828 14.105-1.959 20.808.368 7.937 2.18 14.844-3.41 21.986-1.682 6.476 3.354 15.65-1.282 23.618.012 6.77-5.944 22.32-.715 24.174-10.75-1.727-6.264 5.033-9.22 2.516-16.34-1.703-8.686-2.735-17.338-5.42-25.654-1.488-9.307-5.988-17.477-5.121-27.955-3.865-8.671-4.175-16.344-4.068-25.378-2.831-4.716 2.717-8.014-3.336-8.144-2.214-6.88-3.476-14.314-6.505-21.841-1.678-4.349-1.029-13.089-2.6-14.857 1.274 4.59-2.952-5.985-2.685-7.576 3.767-10.891-3.21-20.099-7.4-28.832-.768-5.988-2.783-12.27-9.316-10.937zm18.336 42.903c.318-.902.208-.59 0 0zm.956 2.252c1.651.533-.015-3.017 0 0zm.714-1.075c.312-.687-1.065-.212 0 0zm4.387 23.543c-.053 1.749.85.016 0 0zm1.879 5.194 1.027-.524-1.027.524zm-1.513 1.126c2.06 2.223 1.33-2.145 0 0zm1.505 5.599c2.829-.517-1.112-1.724 0 0zm1.513 1.388c3.57 1.334-1.646-4.463 0 0zm1.373.721.505.242-.505-.242zm-.85 1.444c-.105 3.03 1.697.695 0 0zm9.2 110.508c-1.198-.574.455 1.101 0 0zm-23.844 4.969c-2.588-.397-.621 1.599 0 0zm-5.796.45c-1.113-1.876-1.248 2.076 0 0zm-1.169.295c-2.137.367.589 4.686 0 0zm-35.283.974-.58.192.58-.192zm-14.07-1.112c-2.749-.322 3.412 1.213 0 0zm-28.848-6.15c-2.047-2.625-1.375 1.752 0 0zm-2.67-7.313-.074.074.074-.074zm-20.792-106.9c-.578-1.576-.522 2.47 0 0zm-.233-.447c1.088-.929-.52-.766 0 0zm-.538-11.408c.53.306-.038-.6 0 0zm-2.316-14.162c-2.086-1.208-2.75 2.538 0 0zm96.012-50.138.147.04-.147-.04zm-11.284.501c3.702-1.043-.24 2.01 0 0zm16.04 8.31c1.279-.03.051 1.114 0 0zm.823.02c1.403-.177-.5 1.277 0 0zm-99.978 9.188c.311.91-1.019-.027 0 0zm112.33 4.279c2.654.953-1.832 2.239 0 0zm.365 13.394c1.208 1.572-2.355-.85 0 0zm-115.91 10.278c5.742 2.175-4.444-.14 0 0zm2.48 11.367c.962 1.524-1.403.12 0 0zm119.945 7.216c.305.466-1.418-.42 0 0zm8.056 25.676c3.85 1.26-1.418 3.171 0 0zM111.207 776.19l.373.07-.373-.07zm11.841 64.585c.989.099-.43 1.49 0 0zm12.729 6.182c1.135 1.693-1.484 1.216 0 0zm86.663 1.071c2.506.5.66 3.632 0 0zm4.821.327c3.9 3.452-6.007.6 0 0zm5.816.446c.384 1.361-1.697.03 0 0zm-11.978.85c1.035.445-1.465.178 0 0zm6.335.62c.276.457-.64.075 0 0zm-4.857 1.182c1.745 1.549-1.714.063 0 0zm-81.546 3.557c1.691-.012-.56.654 0 0zm-7.727.336c1.765 1.228-2.817.384 0 0zM411.291 394.384c-7.213 2.264-15.644 4.402-22.522 3.8-8.581.965-15.088 4.902-23.737 3.971-9.537-3.544-16.562 7.934-26.112 2.68-7.441 5.993-17.603 4.876-25.747 9.94-6.162 6.73-7.706 17.527-2.763 24.476-.488 7.775 5.557 16.326 4.735 24.794.913 7.866 2.615 15.46 4.595 23.02 1.423 7.388 4.104 14.305 4.746 21.914 3.768 10.083-3.918 22.95 3.799 31.212 3.087 8.264 6.048 17.039 6.727 25.931.992 8.947 2.04 19.328 8.022 25.681 6.45 4.614 14.33 1.343 21.606 2.148 6.986 1.828 14.105-1.96 20.808.367 7.937 2.18 14.844-3.41 21.986-1.682 6.476 3.355 15.65-1.281 23.618.013 6.77-5.944 22.32-.715 24.174-10.75-1.727-6.265 5.033-9.22 2.516-16.34-1.703-8.686-2.735-17.339-5.42-25.654-1.488-9.307-5.988-17.478-5.121-27.955-3.865-8.672-4.175-16.345-4.068-25.38-2.831-4.715 2.717-8.013-3.336-8.142-2.214-6.881-3.476-14.315-6.505-21.842-1.678-4.348-1.029-13.089-2.6-14.857 1.274 4.591-2.952-5.984-2.685-7.575 3.767-10.892-3.21-20.1-7.4-28.832-.768-5.988-2.783-12.271-9.316-10.938zm18.336 42.903c.318-.902.208-.59 0 0zm.956 2.253c1.651.532-.015-3.018 0 0zm.714-1.076c.312-.687-1.065-.211 0 0zm4.387 23.543c-.053 1.75.85.017 0 0zm1.879 5.194 1.027-.524-1.027.524zm-1.513 1.126c2.06 2.223 1.33-2.144 0 0zm1.505 5.599c2.829-.517-1.112-1.724 0 0zm1.513 1.388c3.57 1.334-1.646-4.463 0 0zm1.373.722.505.242-.505-.242zm-.85 1.443c-.105 3.03 1.697.696 0 0zm9.2 110.508c-1.198-.574.455 1.101 0 0zm-23.844 4.97c-2.588-.397-.621 1.598 0 0zm-5.796.45c-1.113-1.877-1.248 2.075 0 0zm-1.169.294c-2.137.367.589 4.687 0 0zm-35.283.974-.58.193.58-.193zm-14.07-1.112c-2.749-.322 3.412 1.213 0 0zm-28.848-6.15c-2.047-2.625-1.375 1.752 0 0zm-2.67-7.313-.074.075.074-.075zM316.32 473.2c-.578-1.576-.522 2.47 0 0zm-.233-.446c1.088-.93-.52-.767 0 0zm-.538-11.409c.53.306-.038-.599 0 0zm-2.316-14.161c-2.086-1.208-2.75 2.538 0 0zm96.012-50.139.147.04-.147-.04zm-11.284.501c3.702-1.043-.24 2.01 0 0zm16.04 8.31c1.279-.03.051 1.114 0 0zm.823.02c1.403-.177-.5 1.277 0 0zm-99.978 9.188c.311.91-1.019-.027 0 0zm112.33 4.28c2.654.952-1.832 2.238 0 0zm.365 13.393c1.208 1.573-2.355-.85 0 0zm-115.91 10.278c5.742 2.175-4.444-.14 0 0zm2.48 11.367c.962 1.524-1.403.12 0 0zm119.945 7.217c.305.465-1.418-.42 0 0zm8.056 25.676c3.85 1.26-1.418 3.17 0 0zm-116.327 26.654.373.07-.373-.07zm11.841 64.585c.989.1-.43 1.49 0 0zm12.729 6.183c1.135 1.692-1.484 1.215 0 0zm86.663 1.07c2.506.5.66 3.632 0 0zm4.821.327c3.9 3.452-6.007.6 0 0zm5.816.446c.384 1.361-1.697.03 0 0zm-11.978.85c1.035.445-1.465.178 0 0zm6.335.62c.276.458-.64.075 0 0zm-4.857 1.182c1.745 1.55-1.714.064 0 0zm-81.546 3.558c1.691-.013-.56.654 0 0zm-7.727.335c1.765 1.228-2.817.385 0 0zM196.714 394.384c-7.213 2.264-15.644 4.403-22.522 3.8-8.581.965-15.088 4.902-23.737 3.972-9.537-3.545-16.562 7.934-26.112 2.68-7.441 5.993-17.603 4.876-25.747 9.94-6.162 6.729-7.706 17.527-2.763 24.475-.488 7.776 5.557 16.327 4.735 24.794.913 7.867 2.615 15.461 4.595 23.02 1.423 7.388 4.104 14.305 4.746 21.915 3.768 10.083-3.918 22.949 3.799 31.212 3.087 8.263 6.048 17.038 6.727 25.93.992 8.947 2.04 19.329 8.022 25.681 6.45 4.615 14.33 1.343 21.606 2.148 6.986 1.828 14.105-1.959 20.808.368 7.937 2.179 14.844-3.41 21.986-1.682 6.476 3.354 15.65-1.282 23.618.012 6.77-5.944 22.32-.715 24.174-10.75-1.727-6.264 5.033-9.22 2.516-16.34-1.703-8.686-2.735-17.338-5.42-25.654-1.488-9.307-5.988-17.477-5.121-27.955-3.865-8.671-4.175-16.344-4.068-25.379-2.831-4.716 2.717-8.013-3.336-8.143-2.214-6.88-3.476-14.314-6.505-21.841-1.678-4.349-1.029-13.09-2.6-14.858 1.274 4.592-2.952-5.984-2.685-7.575 3.767-10.891-3.21-20.099-7.4-28.832-.768-5.988-2.783-12.27-9.316-10.937zm18.336 42.904c.318-.903.208-.59 0 0zm.956 2.252c1.651.533-.015-3.017 0 0zm.714-1.075c.312-.687-1.065-.212 0 0zm4.387 23.543c-.053 1.749.85.016 0 0zm1.879 5.194 1.027-.524-1.027.524zm-1.513 1.126c2.06 2.223 1.33-2.145 0 0zm1.505 5.598c2.829-.516-1.112-1.724 0 0zm1.513 1.389c3.57 1.334-1.646-4.463 0 0zm1.373.721.505.242-.505-.242zm-.85 1.443c-.105 3.031 1.697.696 0 0zm9.2 110.509c-1.198-.575.455 1.1 0 0zm-23.844 4.969c-2.588-.397-.621 1.599 0 0zm-5.796.45c-1.113-1.876-1.248 2.075 0 0zm-1.169.294c-2.137.368.589 4.687 0 0zm-35.283.975-.58.192.58-.192zm-14.07-1.113c-2.749-.322 3.412 1.213 0 0zm-28.848-6.15c-2.047-2.624-1.375 1.753 0 0zm-2.67-7.313-.074.075.074-.075zm-20.792-106.9c-.578-1.575-.522 2.47 0 0zm-.233-.446c1.088-.929-.52-.766 0 0zm-.538-11.408c.53.306-.038-.6 0 0zm-2.316-14.162c-2.086-1.208-2.75 2.538 0 0zm96.012-50.138.147.04-.147-.04zm-11.284.5c3.702-1.043-.24 2.01 0 0zm16.04 8.311c1.279-.03.051 1.114 0 0zm.823.019c1.403-.176-.5 1.278 0 0zm-99.978 9.188c.311.911-1.019-.026 0 0zm112.33 4.28c2.654.952-1.832 2.238 0 0zm.365 13.394c1.208 1.572-2.355-.851 0 0zm-115.91 10.278c5.742 2.174-4.444-.14 0 0zm2.48 11.367c.962 1.524-1.403.12 0 0zm119.945 7.216c.305.466-1.418-.42 0 0zm8.056 25.676c3.85 1.26-1.418 3.17 0 0zM111.207 513.93l.373.07-.373-.07zm11.841 64.585c.989.099-.43 1.49 0 0zm12.729 6.182c1.135 1.692-1.484 1.216 0 0zm86.663 1.071c2.506.5.66 3.632 0 0zm4.821.327c3.9 3.452-6.007.6 0 0zm5.816.445c.384 1.362-1.697.03 0 0zm-11.978.85c1.035.445-1.465.179 0 0zm6.335.621c.276.457-.64.075 0 0zm-4.857 1.182c1.745 1.549-1.714.063 0 0zm-81.546 3.557c1.691-.012-.56.654 0 0zm-7.727.336c1.765 1.228-2.817.384 0 0zM423.211 924.866c-7.213 2.263-15.644 4.402-22.522 3.8-8.581.964-15.088 4.902-23.737 3.97-9.537-3.544-16.562 7.935-26.112 2.681-7.441 5.993-17.603 4.876-25.747 9.94-6.162 6.729-7.706 17.527-2.763 24.476-.488 7.775 5.557 16.326 4.735 24.793.913 7.867 2.615 15.462 4.595 23.02 1.423 7.388 4.104 14.305 4.746 21.915 3.768 10.083-3.918 22.95 3.799 31.212 3.087 8.263 6.048 17.038 6.727 25.931.992 8.946 2.04 19.328 8.022 25.68 6.45 4.615 14.33 1.344 21.606 2.148 6.986 1.828 14.105-1.959 20.808.368 7.937 2.18 14.844-3.41 21.986-1.682 6.476 3.354 15.65-1.282 23.618.012 6.77-5.944 22.32-.715 24.174-10.75-1.727-6.264 5.033-9.22 2.516-16.34-1.703-8.686-2.735-17.338-5.42-25.654-1.488-9.307-5.988-17.477-5.121-27.955-3.865-8.671-4.175-16.344-4.068-25.378-2.831-4.716 2.717-8.014-3.336-8.144-2.214-6.88-3.476-14.314-6.505-21.841-1.678-4.349-1.029-13.089-2.6-14.857 1.274 4.59-2.952-5.985-2.685-7.576 3.767-10.891-3.21-20.099-7.4-28.832-.768-5.988-2.783-12.27-9.316-10.937zm18.336 42.903c.318-.902.208-.59 0 0zm.956 2.252c1.651.533-.015-3.017 0 0zm.714-1.075c.312-.687-1.065-.212 0 0zm4.387 23.543c-.053 1.749.85.016 0 0zm1.879 5.194 1.027-.524-1.027.524zm-1.513 1.126c2.06 2.223 1.33-2.145 0 0zm1.505 5.599c2.829-.517-1.112-1.724 0 0zm1.513 1.388c3.57 1.334-1.646-4.463 0 0zm1.373.721.505.242-.505-.242zm-.85 1.444c-.105 3.03 1.697.695 0 0zm9.2 110.508c-1.198-.574.455 1.101 0 0zm-23.844 4.969c-2.588-.397-.621 1.599 0 0zm-5.796.45c-1.113-1.876-1.248 2.076 0 0zm-1.169.295c-2.137.367.589 4.686 0 0zm-35.283.974-.58.192.58-.192zm-14.07-1.112c-2.749-.322 3.412 1.213 0 0zm-28.848-6.15c-2.047-2.625-1.375 1.752 0 0zm-2.67-7.313-.074.074.074-.074zm-20.792-106.9c-.578-1.576-.522 2.47 0 0zm-.233-.447c1.088-.929-.52-.766 0 0zm-.538-11.408c.53.306-.038-.6 0 0zm-2.316-14.162c-2.086-1.208-2.75 2.538 0 0zm96.012-50.138.147.04-.147-.04zm-11.284.501c3.702-1.043-.24 2.01 0 0zm16.04 8.31c1.279-.03.051 1.114 0 0zm.823.02c1.403-.177-.5 1.277 0 0zm-99.978 9.188c.311.91-1.019-.027 0 0zm112.33 4.279c2.654.953-1.832 2.239 0 0zm.365 13.394c1.208 1.572-2.355-.85 0 0zm-115.91 10.278c5.742 2.175-4.444-.14 0 0zm2.48 11.367c.962 1.524-1.403.12 0 0zm119.945 7.216c.305.466-1.418-.42 0 0zm8.056 25.676c3.85 1.26-1.418 3.171 0 0zm-116.327 26.655.373.07-.373-.07zm11.841 64.585c.989.099-.43 1.49 0 0zm12.729 6.182c1.135 1.693-1.484 1.216 0 0zm86.663 1.071c2.506.5.66 3.632 0 0zm4.821.327c3.9 3.452-6.007.6 0 0zm5.816.446c.384 1.361-1.697.03 0 0zm-11.978.85c1.035.445-1.465.178 0 0zm6.335.62c.276.457-.64.075 0 0zm-4.857 1.182c1.745 1.549-1.714.063 0 0zm-81.546 3.557c1.691-.012-.56.654 0 0zm-7.727.336c1.765 1.228-2.817.384 0 0z" fill-rule="evenodd" fill="#9788af"/><path d="M351.35 477.898c-25.24 6.355-51.893-2.488-76.986 3.444-23.447 8.182-48.222 14.27-73.083 9.691-30.714 7.93-62.6 6.859-93.276 14.928-22.308 6.222-46.138 1.78-68.1 7.645-12.593 14.432-6.852 38.76-5.302 57.965-.22 13.956 5.837 30.723 4.469 32.055 2.106 13.078-1.02 30.587 5.376 39.147-8.087 21.722 5.782 36.993 23.005 26.84 22.663-2.749 46.704 2.798 68.279-7.704 26.021 1.805 51.412-5.048 76.666-10.31 9.586-1.779 28.335-6.34 24.86-1.967 27.062 2.98 50.798-15.403 77.483-15.765 17.506-5.02 32.105 6.775 50.317-2.052 18.34 5.128 37.951-15.644 58.103-4.26 16.14-9.916 36.801-2.894 56.822-4.335 20.07-4.063 40.31-8.986 61.099-2.014 25.277 7.19 14.798-29.635 14.009-45.745-2.552-19.365-7.828-37.939-6.847-54.713-1.516-19.064 2.912-42.257-8.828-59.352-20.477.505-40.475 6.405-60.85 7.427-16.904 3.604-34.188-2.266-50.359.877-35.733 9.22-40.061-11.533-76.856 8.197zm85.241 16.208c18.05 1.424 30.724 2.504 48.38-4.408 13.16 2.165 48.696-13.341 41.842 16.256 3.383 22.909.226 43.23 3.449 66.445-2.893 10.702 12.694 25.889-5.341 17.02-8.007-1.02-25.372.61-14.808-12.339-13.222-14.154-11.138-59.577-15.995-80.727 1.216-18.499-27.168-26.804-18.468-.63 13.5 18.588 7.528 59.545 14.77 79.354-5.264 9.668 9.335 14.858-5.124 19.424-17.051 3.581-44.518 1.416-39.018-28.8 6.449-17.359-6.837-28.371-7.307-48.702-1.04-7.604-1.652-15.256-2.38-22.893zm-127.588 14.537c12.905-1.961-7.452 21.636 3.882 32.668 8.452 18.75 11.592 40.69 9.8 61.477-10.503 9.195-32.216-1.35-44.392 11.724 6.868-13.323-1.4-24.103.002-38.697-2.666-19.273-7.516-43.551-7.78-59.618 11.879-6.533 25.865-4.266 38.487-7.554zm43.487-4.343c17.188-6.544 16.975 22.675 21.716 36.296-.097 9.539-.127 26.056 3.18 23.353 1.463 8.791 3.787 20.278 3.316 33.9-11.205 5.566-36.228 15.491-42.657 1.354-1.645-20.266-5.244-41.386-8.191-62.85-18.453-27.605 6.706-28.713 22.636-32.053zm22.874 60.477c-.073 2.395-.047 1.553 0 0zm46.564-65.236c-1.375 22.639 10.841 43.988 13.188 65.329-1.547 16.618 3.729 36.24-16.493 33.695-8.001 5.211-7.288 10.164-14.74 2.194-5.095 1.444-20.083 6.708-8.904-.718-1.962-22.566-1.62-45.708-8.945-67.763-1.394-13.356-9.615-33.615 8.384-27.067 9.11-2.205 18.203-4.648 27.51-5.67zM54.566 540.035c16.58-1.488 36.83-.915 38.031 25.12-6.557 14.743-5.756 44.37 5.114 59.557-.154 8.816-26.654 24.65-34.16 5.72-5.941-9.5-.418-35.442-7.038-35.85 10.665-7.403-9.357-29.99 3.291-38.26-.604-5.747-2.428-11.49-5.238-16.287zm199.216-20.913c5.198 16.71 5.04 36.425 7.705 51.553 7.387 6.405 1.047 50.38-7.01 51.207-8.308 2.652-24.924-1.975-29.478-3.104-6.7-22.107-5.563-44.868-6.934-67.946-5.156-14.78-7.646-29.855 10.252-24.577 9.75 2.273 17.206-2.874 25.465-7.133zm10.577 98.185c-1.61-1.797-1.341-1.497 0 0zm-1.329-1.483c-1.293-2.129-1.07-1.763 0 0zm1.406-40.257c-8.473-3.742-.878 4.246 0 0zM120.662 534.21c21.657-8.73 31.923 20.132 22.548 40.201 8.785 17.81 9.416 36.53 8.362 54.082 9.72 8.226 22.776-5.693 12.31-12.754 8.69-5.79-6.177-28.344-1.345-42.41-4.85-18.416-10.99-45.568 11.65-43.085 7.547-8.058 25.512 3.79 23.014.095 2.015 2.53 1.328 34.65 4.428 48.25 1.725 12.447 3.12 32.228 7.494 35.498 4.383 22.71-10.37 2.587-18.105 11.239 14.418 10.834-14.515-1.288-21.218 4.602-17.865-.157-34.152-2.876-50.908 4.38-14.021.854-6.697-13.598-11.936-22.437 5.184-24.597-8.974-52.004-3.382-74.8 5.244-3.14 11.523-1.104 17.088-2.861zm-12.621 98.58c2.293.792-.64 1.677 0 0zM351.348 740.159c-25.24 6.355-51.894-2.488-76.987 3.444-23.447 8.182-48.222 14.27-73.083 9.691-30.714 7.93-62.6 6.859-93.276 14.928-22.308 6.222-46.138 1.78-68.1 7.645-12.593 14.432-6.852 38.76-5.302 57.965-.22 13.956 5.837 30.723 4.469 32.055 2.106 13.078-1.02 30.587 5.376 39.147-8.087 21.722 5.782 36.993 23.005 26.84 22.663-2.749 46.704 2.798 68.279-7.704 26.021 1.805 51.412-5.048 76.666-10.31 9.586-1.779 28.335-6.34 24.86-1.967 27.062 2.98 50.798-15.403 77.483-15.765 17.506-5.02 32.105 6.775 50.317-2.052 18.34 5.128 37.951-15.644 58.103-4.26 16.14-9.916 36.801-2.894 56.822-4.335 20.07-4.063 40.31-8.986 61.099-2.014 25.277 7.19 14.798-29.635 14.008-45.745-2.551-19.365-7.827-37.939-6.846-54.713-1.516-19.064 2.912-42.257-8.828-59.352-20.477.505-40.475 6.405-60.85 7.427-16.904 3.604-34.188-2.266-50.359.877-35.733 9.22-40.061-11.533-76.856 8.197zm85.24 16.208c18.05 1.424 30.724 2.504 48.38-4.408 13.16 2.165 48.696-13.341 41.842 16.256 3.383 22.909.226 43.23 3.449 66.445-2.893 10.702 12.694 25.889-5.341 17.02-8.007-1.02-25.372.61-14.808-12.339-13.222-14.154-11.138-59.577-15.995-80.727 1.216-18.499-27.168-26.804-18.468-.63 13.5 18.588 7.528 59.544 14.77 79.354-5.264 9.668 9.335 14.858-5.124 19.424-17.051 3.581-44.518 1.416-39.018-28.8 6.449-17.359-6.837-28.371-7.307-48.702-1.04-7.604-1.652-15.256-2.38-22.893zM309 770.904c12.905-1.961-7.452 21.636 3.882 32.668 8.452 18.75 11.592 40.69 9.8 61.477-10.503 9.195-32.216-1.35-44.392 11.724 6.868-13.323-1.4-24.103.002-38.697-2.666-19.273-7.516-43.551-7.78-59.618 11.879-6.533 25.865-4.266 38.487-7.554zm43.487-4.343c17.188-6.544 16.975 22.675 21.716 36.296-.097 9.539-.127 26.056 3.18 23.353 1.463 8.791 3.787 20.278 3.316 33.9-11.205 5.566-36.228 15.491-42.657 1.354-1.645-20.266-5.244-41.386-8.191-62.85-18.453-27.605 6.706-28.713 22.636-32.053zm22.874 60.477c-.073 2.395-.047 1.553 0 0zm46.564-65.236c-1.375 22.639 10.841 43.988 13.188 65.329-1.547 16.618 3.729 36.24-16.493 33.695-8.001 5.211-7.288 10.164-14.74 2.194-5.095 1.444-20.083 6.708-8.904-.718-1.962-22.566-1.62-45.708-8.945-67.763-1.394-13.356-9.615-33.615 8.384-27.067 9.11-2.205 18.203-4.648 27.51-5.67zM54.563 802.296c16.58-1.488 36.83-.915 38.031 25.12-6.557 14.743-5.756 44.37 5.114 59.557-.154 8.816-26.654 24.65-34.16 5.72-5.941-9.5-.418-35.442-7.038-35.85 10.665-7.403-9.357-29.99 3.291-38.26-.604-5.747-2.428-11.49-5.238-16.287zm199.216-20.913c5.198 16.71 5.04 36.425 7.705 51.553 7.387 6.405 1.047 50.38-7.01 51.207-8.308 2.652-24.924-1.975-29.478-3.104-6.7-22.107-5.563-44.868-6.934-67.946-5.156-14.78-7.646-29.855 10.252-24.577 9.75 2.273 17.206-2.874 25.465-7.133zm10.577 98.185c-1.61-1.797-1.341-1.497 0 0zm-1.329-1.483c-1.293-2.129-1.07-1.763 0 0zm1.406-40.257c-8.473-3.742-.878 4.246 0 0zM120.66 796.472c21.657-8.73 31.923 20.132 22.548 40.201 8.785 17.81 9.416 36.53 8.362 54.082 9.72 8.226 22.776-5.693 12.31-12.754 8.69-5.79-6.177-28.344-1.345-42.41-4.85-18.416-10.99-45.568 11.65-43.085 7.547-8.058 25.512 3.79 23.014.095 2.015 2.53 1.328 34.65 4.428 48.25 1.725 12.447 3.12 32.228 7.494 35.498 4.383 22.71-10.37 2.587-18.105 11.239 14.418 10.834-14.515-1.288-21.218 4.602-17.865-.157-34.152-2.876-50.908 4.38-14.021.854-6.697-13.598-11.936-22.437 5.184-24.597-8.974-52.004-3.382-74.8 5.244-3.14 11.523-1.104 17.088-2.861zm-12.621 98.58c2.293.792-.64 1.677 0 0zM363.273 1038.182c-25.24 6.355-51.894-2.488-76.987 3.444-23.447 8.182-48.222 14.27-73.083 9.691-30.714 7.93-62.6 6.859-93.276 14.928-22.308 6.222-46.138 1.78-68.1 7.645-12.593 14.432-6.852 38.76-5.302 57.965-.22 13.956 5.837 30.723 4.469 32.055 2.106 13.078-1.02 30.587 5.376 39.147-8.087 21.722 5.782 36.993 23.005 26.84 22.663-2.749 46.704 2.798 68.279-7.704 26.021 1.805 51.412-5.048 76.666-10.31 9.586-1.779 28.335-6.34 24.86-1.967 27.062 2.98 50.798-15.403 77.483-15.765 17.506-5.02 32.105 6.775 50.317-2.052 18.34 5.128 37.951-15.644 58.103-4.26 16.14-9.916 36.801-2.894 56.822-4.335 20.07-4.063 40.31-8.986 61.099-2.014 25.277 7.19 14.798-29.635 14.009-45.745-2.552-19.365-7.828-37.939-6.847-54.713-1.516-19.064 2.912-42.257-8.828-59.352-20.477.505-40.475 6.405-60.85 7.427-16.904 3.604-34.188-2.266-50.359.877-35.733 9.22-40.061-11.533-76.856 8.197zm85.24 16.208c18.05 1.424 30.724 2.504 48.38-4.408 13.16 2.165 48.696-13.341 41.842 16.256 3.383 22.909.226 43.23 3.449 66.446-2.893 10.701 12.694 25.888-5.341 17.02-8.007-1.021-25.372.61-14.808-12.34-13.222-14.154-11.138-59.577-15.995-80.727 1.216-18.499-27.168-26.804-18.468-.63 13.5 18.588 7.528 59.544 14.77 79.354-5.264 9.668 9.335 14.858-5.124 19.424-17.051 3.581-44.518 1.416-39.018-28.8 6.449-17.359-6.837-28.371-7.307-48.702-1.04-7.604-1.652-15.256-2.38-22.893zm-127.588 14.537c12.905-1.961-7.452 21.636 3.882 32.668 8.452 18.75 11.592 40.69 9.8 61.477-10.503 9.195-32.216-1.35-44.392 11.724 6.868-13.323-1.4-24.103.002-38.697-2.666-19.272-7.516-43.551-7.78-59.618 11.879-6.533 25.865-4.266 38.487-7.554zm43.487-4.343c17.188-6.544 16.975 22.675 21.716 36.296-.097 9.539-.127 26.056 3.18 23.353 1.463 8.791 3.787 20.278 3.316 33.9-11.205 5.566-36.228 15.491-42.657 1.354-1.645-20.266-5.244-41.386-8.191-62.85-18.453-27.605 6.706-28.713 22.636-32.053zm22.874 60.477c-.073 2.395-.047 1.553 0 0zm46.564-65.236c-1.375 22.639 10.841 43.988 13.188 65.329-1.547 16.618 3.729 36.24-16.493 33.695-8.001 5.211-7.288 10.164-14.74 2.194-5.095 1.444-20.083 6.708-8.904-.718-1.962-22.566-1.62-45.708-8.945-67.763-1.394-13.356-9.615-33.615 8.384-27.067 9.11-2.205 18.203-4.648 27.51-5.67zm-367.362 40.494c16.58-1.488 36.83-.915 38.031 25.12-6.557 14.743-5.756 44.37 5.114 59.557-.154 8.816-26.654 24.65-34.16 5.72-5.941-9.5-.418-35.442-7.038-35.85 10.665-7.403-9.357-29.99 3.291-38.26-.604-5.747-2.428-11.49-5.238-16.287zm199.216-20.913c5.198 16.71 5.04 36.425 7.705 51.553 7.387 6.405 1.047 50.38-7.01 51.207-8.308 2.652-24.924-1.975-29.478-3.104-6.7-22.107-5.563-44.868-6.934-67.946-5.156-14.78-7.646-29.855 10.252-24.577 9.75 2.273 17.206-2.874 25.465-7.133zm10.577 98.185c-1.61-1.797-1.341-1.497 0 0zm-1.329-1.483c-1.293-2.129-1.07-1.763 0 0zm1.406-40.257c-8.473-3.742-.878 4.246 0 0zm-143.774-41.356c21.657-8.73 31.923 20.132 22.548 40.201 8.785 17.81 9.416 36.53 8.362 54.082 9.72 8.226 22.776-5.693 12.31-12.754 8.69-5.79-6.177-28.344-1.345-42.41-4.85-18.416-10.99-45.568 11.65-43.085 7.547-8.058 25.512 3.79 23.014.095 2.015 2.53 1.328 34.65 4.428 48.25 1.725 12.447 3.12 32.228 7.494 35.498 4.383 22.71-10.37 2.587-18.105 11.239 14.418 10.834-14.515-1.288-21.218 4.602-17.865-.157-34.152-2.876-50.908 4.38-14.021.854-6.697-13.598-11.936-22.437 5.184-24.597-8.974-52.004-3.382-74.8 5.244-3.14 11.523-1.104 17.088-2.861zm-12.621 98.58c2.293.792-.64 1.677 0 0z" fill="#b5c1c1"/></svg>
