<?xml version="1.0" encoding="UTF-8" standalone="no"?>
<!-- Created with Inkscape (http://www.inkscape.org/) -->

<svg
   xmlns:dc="http://purl.org/dc/elements/1.1/"
   xmlns:cc="http://creativecommons.org/ns#"
   xmlns:rdf="http://www.w3.org/1999/02/22-rdf-syntax-ns#"
   xmlns:svg="http://www.w3.org/2000/svg"
   xmlns="http://www.w3.org/2000/svg"
   xmlns:sodipodi="http://sodipodi.sourceforge.net/DTD/sodipodi-0.dtd"
   xmlns:inkscape="http://www.inkscape.org/namespaces/inkscape"
   width="297mm"
   height="210mm"
   viewBox="0 0 1052.3622 744.09448"
   id="svg2"
   version="1.1"
   inkscape:version="0.91 r13725"
   sodipodi:docname="Crooked car 01.svg">
  <defs
     id="defs4">
    <filter
       style="color-interpolation-filters:sRGB;"
       inkscape:label="Roughen"
       id="filter4265">
      <feTurbulence
         type="fractalNoise"
         numOctaves="5"
         seed="1"
         baseFrequency="0.013 0.013"
         result="turbulence"
         id="feTurbulence4267" />
      <feDisplacementMap
         in="SourceGraphic"
         in2="turbulence"
         scale="6.6"
         yChannelSelector="G"
         xChannelSelector="R"
         id="feDisplacementMap4269"
         result="fbSourceGraphic" />
      <feColorMatrix
         result="fbSourceGraphicAlpha"
         in="fbSourceGraphic"
         values="0 0 0 -1 0 0 0 0 -1 0 0 0 0 -1 0 0 0 0 1 0"
         id="feColorMatrix4271" />
      <feTurbulence
         id="feTurbulence4273"
         type="fractalNoise"
         numOctaves="5"
         seed="1"
         baseFrequency="0.013 0.013"
         result="turbulence"
         in="fbSourceGraphic" />
      <feDisplacementMap
         id="feDisplacementMap4275"
         in2="turbulence"
         in="fbSourceGraphic"
         scale="8.4"
         yChannelSelector="G"
         xChannelSelector="R" />
    </filter>
    <filter
       style="color-interpolation-filters:sRGB;"
       inkscape:label="Roughen"
       id="filter4293">
      <feTurbulence
         type="fractalNoise"
         numOctaves="5"
         seed="1"
         baseFrequency="0.013 0.013"
         result="turbulence"
         id="feTurbulence4295" />
      <feDisplacementMap
         in="SourceGraphic"
         in2="turbulence"
         scale="15.5"
         yChannelSelector="G"
         xChannelSelector="R"
         id="feDisplacementMap4297" />
    </filter>
    <filter
       style="color-interpolation-filters:sRGB;"
       inkscape:label="Roughen"
       id="filter4307">
      <feTurbulence
         type="fractalNoise"
         numOctaves="5"
         seed="1"
         baseFrequency="0.013 0.013"
         result="turbulence"
         id="feTurbulence4309" />
      <feDisplacementMap
         in="SourceGraphic"
         in2="turbulence"
         scale="15.5"
         yChannelSelector="G"
         xChannelSelector="R"
         id="feDisplacementMap4311" />
    </filter>
    <filter
       style="color-interpolation-filters:sRGB;"
       inkscape:label="Roughen"
       id="filter4313">
      <feTurbulence
         type="fractalNoise"
         numOctaves="5"
         seed="1"
         baseFrequency="0.013 0.013"
         result="turbulence"
         id="feTurbulence4315" />
      <feDisplacementMap
         in="SourceGraphic"
         in2="turbulence"
         scale="15.5"
         yChannelSelector="G"
         xChannelSelector="R"
         id="feDisplacementMap4317" />
    </filter>
    <filter
       inkscape:collect="always"
       style="color-interpolation-filters:sRGB"
       id="filter4372"
       x="-0.018505228"
       width="1.0370105"
       y="-0.034136044"
       height="1.0682721">
      <feGaussianBlur
         inkscape:collect="always"
         stdDeviation="1.0424806"
         id="feGaussianBlur4374" />
    </filter>
    <filter
       inkscape:collect="always"
       style="color-interpolation-filters:sRGB"
       id="filter4380"
       x="-0.019484126"
       width="1.0389683"
       y="-0.031240723"
       height="1.0624814">
      <feGaussianBlur
         inkscape:collect="always"
         stdDeviation="0.92284171"
         id="feGaussianBlur4382" />
    </filter>
  </defs>
  <sodipodi:namedview
     id="base"
     pagecolor="#ffffff"
     bordercolor="#666666"
     borderopacity="1.0"
     inkscape:pageopacity="0.0"
     inkscape:pageshadow="2"
     inkscape:zoom="0.49497475"
     inkscape:cx="521.13009"
     inkscape:cy="394.03981"
     inkscape:document-units="px"
     inkscape:current-layer="layer1"
     showgrid="false"
     inkscape:window-width="1920"
     inkscape:window-height="1017"
     inkscape:window-x="-8"
     inkscape:window-y="-8"
     inkscape:window-maximized="1">
    <inkscape:grid
       type="xygrid"
       id="grid4147" />
  </sodipodi:namedview>
  <metadata
     id="metadata7">
    <rdf:RDF>
      <cc:Work
         rdf:about="">
        <dc:format>image/svg+xml</dc:format>
        <dc:type
           rdf:resource="http://purl.org/dc/dcmitype/StillImage" />
        <dc:title></dc:title>
      </cc:Work>
    </rdf:RDF>
  </metadata>
  <g
     inkscape:groupmode="layer"
     id="layer1"
     inkscape:label="coche">
    <g
       id="g4360">
      <path
         inkscape:connector-curvature="0"
         d="m 860.53556,498.80318 c 4.16872,-1.37395 8.48251,-2.26513 12.82914,-2.84924 1.40921,-0.18937 2.82553,-0.32146 4.23829,-0.48218 6.04516,-0.5248 12.1339,-0.51578 18.19126,-0.20542 3.80559,0.19499 6.10619,0.45612 9.93435,0.81823 8.57633,1.02233 17.10086,2.56565 25.48333,4.65355 1.53748,0.38296 3.06362,0.81033 4.59549,1.21553 9.15173,2.66265 18.03102,6.48172 25.59669,12.377 1.51099,1.1774 2.88723,2.51818 4.3308,3.77727 1.17547,1.33941 2.45731,2.59243 3.52628,4.01826 2.87041,3.82865 4.65719,8.00316 4.89512,12.81539 0.1752,3.54271 -0.35391,4.80115 -1.12918,8.19269 -0.50127,1.31912 -0.92071,2.67236 -1.50408,3.95732 -2.00903,4.42533 -5.12501,8.66603 -8.94403,11.70458 -0.85624,0.68121 -1.79932,1.24531 -2.69901,1.86798 -1.10432,0.56402 -2.17087,1.20909 -3.3129,1.69208 -6.16397,2.60683 -13.53206,3.44274 -20.1622,3.58087 -1.95622,0.0407 -3.91279,-0.0582 -5.86922,-0.0873 -6.58284,-0.42075 -13.29625,-1.25477 -19.35762,-4.03591 -3.46843,-1.59145 -3.83746,-2.16845 -6.93098,-4.5511 -0.78425,-0.89675 -1.64993,-1.72836 -2.3528,-2.69031 -2.64962,-3.62638 -4.02699,-8.19385 -3.97008,-12.67481 0.0138,-1.08998 0.20878,-2.1701 0.31322,-3.25515 0.26269,-1.02905 0.45475,-2.07877 0.78809,-3.08717 0.94904,-2.87091 2.50608,-5.59074 4.41838,-7.92726 1.71956,-2.101 2.37342,-2.5009 4.4436,-4.27751 4.13645,-3.11288 8.96704,-5.0052 14.08099,-5.76742 4.01518,-0.59844 5.32799,-0.39842 9.40036,-0.31805 4.94745,0.48277 9.88882,1.57009 14.28828,3.98057 2.5521,1.39827 4.57192,2.71543 6.13361,5.16634 0.54748,0.85916 0.81125,1.86907 1.21684,2.80361 0.0816,0.98653 0.29804,1.97114 0.24484,2.95964 -0.22002,4.08671 -2.5565,8.61656 -5.15121,11.70332 -0.56814,0.67587 -1.23352,1.26362 -1.85036,1.89542 -2.41818,2.0586 -5.27841,3.39239 -8.40844,3.94271 -2.38097,0.41863 -3.1137,0.29682 -5.54279,0.27244 -4.64352,-0.42193 -9.23071,-1.82152 -12.95624,-4.71765 -0.44068,-0.34253 -0.78546,-0.79307 -1.17821,-1.18961 -0.74127,-1.01666 -1.17769,-2.04781 -0.68162,-3.28885 0.29885,-0.74722 0.69046,-1.01445 1.24227,-1.54153 0.10724,-0.10649 1.61266,1.41085 1.50536,1.51729 l 0,0 c -0.12574,0.10063 -0.85281,0.62861 -0.84665,0.85838 0.0121,0.44845 0.45966,0.78661 0.70541,1.06871 0.36743,0.28258 0.7227,0.58179 1.10235,0.84776 3.14748,2.20488 6.94043,3.2793 10.71076,3.74268 0.86443,0.0397 1.72792,0.12529 2.59321,0.11919 2.85131,-0.0202 5.76024,-0.5456 8.17938,-2.13921 0.55807,-0.36762 1.04747,-0.83017 1.57117,-1.24526 0.52269,-0.57444 1.08705,-1.11362 1.56808,-1.72337 1.11049,-1.40768 2.25906,-3.29242 3.03065,-4.89371 0.6923,-1.43673 1.57325,-3.62047 1.71909,-5.26723 0.064,-0.7226 -0.11673,-1.44614 -0.17503,-2.16921 -0.34529,-0.69506 -0.57225,-1.46267 -1.0357,-2.08515 -1.00019,-1.3434 -2.77323,-2.69543 -4.26025,-3.44686 -4.14046,-2.09215 -8.68758,-3.24239 -13.25732,-3.88542 -1.50661,-0.0677 -3.0118,-0.20962 -4.51997,-0.20305 -5.13372,0.0223 -10.32894,0.95223 -14.8851,3.40559 -0.90713,0.48847 -1.74122,1.10187 -2.61182,1.65279 -1.89298,1.54896 -2.552,1.93257 -4.1067,3.80471 -1.73323,2.08709 -3.14132,4.57507 -3.98867,7.15447 -0.29344,0.89329 -0.45752,1.82399 -0.68625,2.73598 -0.0881,0.95312 -0.25739,1.9022 -0.2643,2.85936 -0.0286,3.96499 1.22539,7.97781 3.6451,11.13393 0.63881,0.83325 1.41895,1.54794 2.12844,2.32193 2.07726,1.69603 2.3068,2.07422 5.03877,3.30115 1.17057,0.52571 2.39221,0.93839 3.62338,1.30001 4.79901,1.40953 9.79721,1.92457 14.7701,2.22092 1.8921,0.0426 3.78369,0.13868 5.67624,0.12757 3.65664,-0.0215 7.36345,-0.23715 10.99273,-0.70054 3.12838,-0.39944 5.45258,-0.79923 8.37661,-1.85952 1.05545,-0.38273 2.05152,-0.91306 3.07715,-1.3696 0.81129,-0.55074 1.66759,-1.04039 2.43388,-1.65225 3.49684,-2.79233 6.22015,-6.87901 8.09618,-10.89634 0.54305,-1.16312 0.95221,-2.38422 1.42831,-3.57635 0.67291,-2.97749 1.15404,-4.11973 0.95574,-7.21907 -0.27416,-4.28396 -2.06044,-7.89286 -4.73764,-11.19062 -1.04728,-1.29001 -2.28178,-2.41603 -3.42261,-3.62409 -1.408,-1.15868 -2.76477,-2.38245 -4.22381,-3.47605 -6.90385,-5.17463 -14.67894,-9.16188 -22.98324,-11.51931 -1.5021,-0.3919 -2.99742,-0.81101 -4.50631,-1.17568 -3.05963,-0.73938 -6.51054,-1.43018 -9.59482,-2.02394 -5.15789,-0.99302 -10.33763,-1.86952 -15.54695,-2.54896 -1.68553,-0.20129 -3.36743,-0.43562 -5.05658,-0.60387 -7.48745,-0.74582 -15.03691,-0.85385 -22.54411,-0.37074 -3.58561,0.31517 -4.53153,0.36408 -8.03726,0.80154 -2.66503,0.33254 -5.30085,0.80654 -7.95312,1.21844 -0.39725,0.0616 -0.796,0.11336 -1.19398,0.17016 -0.13757,0.0481 -0.81815,-1.89731 -0.68058,-1.94544 z"
         id="path4356"
         style="opacity:1;fill:#cccccc;fill-opacity:1;fill-rule:nonzero;stroke:none;stroke-width:0.25025496;stroke-linecap:round;stroke-linejoin:round;stroke-miterlimit:4;stroke-dasharray:none;stroke-opacity:1;filter:url(#filter4380)" />
      <path
         style="opacity:1;fill:#cccccc;fill-opacity:1;fill-rule:nonzero;stroke:none;stroke-width:1.5;stroke-linecap:round;stroke-linejoin:round;stroke-miterlimit:4;stroke-dasharray:none;stroke-opacity:1;filter:url(#filter4372)"
         id="path4358"
         d="m 859.93654,485.90487 c 5.67806,1.94833 11.40971,3.38718 17.0998,4.49553 1.84475,0.35931 3.68302,0.65711 5.52453,0.98565 7.83555,1.22858 15.58166,1.88111 23.20605,2.20239 4.79008,0.20184 7.64696,0.168 12.4204,0.19046 10.6368,-0.17931 21.06627,-0.93108 31.16714,-2.2908 1.85267,-0.24936 3.67882,-0.54834 5.5183,-0.82257 10.9238,-1.90139 21.18706,-5.09052 29.21501,-10.68145 1.60339,-1.11662 2.99083,-2.42566 4.48624,-3.63849 1.13243,-1.32939 2.42352,-2.55321 3.3969,-3.98819 2.61365,-3.85324 3.7545,-8.20067 2.75115,-13.4104 -0.73867,-3.83534 -1.7537,-5.26206 -3.66083,-9.03632 -0.9958,-1.48972 -1.89693,-3.00764 -2.98818,-4.4691 -3.75776,-5.03325 -8.87437,-9.986 -14.55917,-13.70733 -1.27456,-0.83429 -2.62783,-1.55061 -3.9418,-2.32593 -1.55845,-0.73378 -3.09082,-1.55162 -4.67527,-2.20134 -8.55186,-3.50672 -18.15542,-5.21769 -26.63047,-6.08922 -2.50054,-0.25709 -4.96366,-0.36238 -7.44553,-0.54354 -8.26314,-0.25835 -16.58029,-0.0813 -23.53914,2.28521 -3.98198,1.35416 -4.295,1.94177 -7.5851,4.19752 -0.75464,0.89033 -1.63061,1.70095 -2.26397,2.67108 -2.38763,3.65719 -2.90074,8.47668 -1.61206,13.35806 0.31335,1.18737 0.85471,2.38374 1.28213,3.57562 0.6136,1.14817 1.14295,2.31113 1.84086,3.44451 1.98701,3.22674 4.70674,6.35525 7.77453,9.10535 2.75859,2.47292 3.69923,2.97914 6.81597,5.13724 6.10899,3.83674 12.77005,6.42103 19.48497,7.80662 5.27216,1.08787 6.88856,1.01307 12.04928,1.36864 6.1651,0.0129 12.15838,-0.63249 17.10289,-2.77647 2.86829,-1.24366 5.08122,-2.45698 6.40338,-4.95364 0.46354,-0.87519 0.52509,-1.94526 0.78758,-2.9179 -0.16389,-1.06446 -0.15572,-2.11215 -0.49169,-3.19341 -1.38924,-4.4702 -5.59218,-9.65275 -9.73205,-13.29336 -0.90647,-0.79712 -1.91276,-1.50898 -2.86923,-2.26347 -3.63617,-2.50277 -7.63811,-4.26506 -11.77078,-5.20429 -3.14367,-0.71446 -4.04308,-0.66164 -7.12774,-0.89937 -5.79483,-0.046 -11.25263,0.97764 -15.20769,3.7233 -0.46782,0.32473 -0.78432,0.77741 -1.17649,1.1661 -0.6674,1.02547 -0.94291,2.09986 0.0252,3.50406 0.58314,0.84548 1.15403,1.17881 1.99932,1.8123 0.16544,0.12751 1.66935,-1.35955 1.5039,-1.48703 l 0,0 c -0.18732,-0.12316 -1.25591,-0.77669 -1.31043,-1.02599 -0.10631,-0.4866 0.37146,-0.80582 0.60762,-1.08601 0.3909,-0.26748 0.7618,-0.55437 1.17277,-0.80243 3.40702,-2.05648 7.94233,-2.81282 12.6147,-2.90681 1.08929,0.0508 2.16495,0.0517 3.26778,0.15241 3.63406,0.33214 7.47859,1.22022 10.98975,3.2172 0.81,0.46068 1.55835,1.01717 2.33747,1.52574 0.82112,0.68184 1.68565,1.32984 2.46332,2.04558 1.7953,1.65232 3.76855,3.82784 5.18511,5.65394 1.27098,1.63844 2.98481,4.11014 3.61738,5.91766 0.27756,0.79313 0.24397,1.56066 0.36601,2.34101 -0.25075,0.71866 -0.33124,1.52912 -0.75207,2.15594 -0.9082,1.35279 -2.79761,2.63089 -4.48604,3.28668 -4.70131,1.8258 -10.17579,2.5826 -15.81671,2.78512 -1.89897,-0.0903 -3.77594,-0.0996 -5.69703,-0.27079 -6.53923,-0.58269 -13.40311,-2.15962 -19.86722,-5.32446 -1.287,-0.63013 -2.51494,-1.38822 -3.77242,-2.08233 -2.82945,-1.89116 -3.77224,-2.38021 -6.2589,-4.58618 -2.77221,-2.45927 -5.23946,-5.31933 -7.01792,-8.21783 -0.61587,-1.00381 -1.0773,-2.03424 -1.61594,-3.05134 -0.37083,-1.04657 -0.84386,-2.09757 -1.11245,-3.13969 -1.11262,-4.31695 -0.60596,-8.54641 1.61673,-11.71698 0.58677,-0.83707 1.3856,-1.52977 2.07843,-2.29467 2.18317,-1.61929 2.37265,-2.00578 5.51634,-3.04346 1.34698,-0.44462 2.78963,-0.76073 4.25829,-1.02024 5.72465,-1.01147 11.94559,-1.02811 18.19366,-0.80957 2.39637,0.15954 4.77752,0.26072 7.189,0.47869 4.6593,0.4212 9.43514,1.05903 14.17953,1.958 4.08962,0.77489 7.15593,1.46269 11.16485,2.93435 1.44705,0.53122 2.85861,1.21656 4.28773,1.82484 1.18196,0.68745 2.40458,1.31334 3.54585,2.06239 5.20801,3.41838 9.78289,8.16087 13.26087,12.73572 1.00668,1.32453 1.85888,2.69758 2.78837,4.04637 1.66456,3.31265 2.58675,4.60775 3.17569,7.9582 0.81374,4.63107 -0.47979,8.36313 -2.99178,11.65981 -0.9826,1.28957 -2.24798,2.38037 -3.37186,3.57061 -1.47735,1.10745 -2.87186,2.2913 -4.43181,3.3224 -7.38135,4.87889 -16.19372,8.37112 -26.12194,10.0326 -1.80522,0.26296 -3.59437,0.55635 -5.41565,0.78891 -3.69301,0.47159 -7.89716,0.84777 -11.66105,1.15826 -6.29442,0.51929 -12.64829,0.90944 -19.09328,1.08196 -2.09037,0.0356 -4.16718,0.10763 -6.27112,0.10694 -9.32613,-0.003 -18.90429,-0.70679 -28.58912,-2.04906 -4.64862,-0.73296 -5.86568,-0.88908 -10.44582,-1.74638 -3.48177,-0.6517 -6.9648,-1.45414 -10.45189,-2.19081 -0.52227,-0.11028 -1.04376,-0.20992 -1.56564,-0.31501 -0.18815,-0.0673 -0.52621,1.97524 -0.33807,2.04255 z"
         inkscape:connector-curvature="0" />
    </g>
    <path
       sodipodi:nodetypes="cccccccccccccccccccccccccccccccccccccccccccccccccccccccccccccccccccccccccccccccccccccccccccccccccccccccccccc"
       inkscape:connector-curvature="0"
       id="path4321"
       d="m 863.54771,509.42354 c 2.45113,-2.05654 1.65197,-5.11048 2.98819,-7.40218 0.1245,-2.62004 -0.81709,-6.2182 0.8413,-8.8038 0.29641,-2.61465 1.6224,-5.31315 1.2371,-8.3293 -0.13937,-3.3348 0.93613,-6.71789 -0.64839,-10.13694 -2.61169,-0.4395 -5.67539,-1.60905 -9.47115,-1.79971 -4.00247,-0.14299 -8.62943,-1.88062 -12.92085,-2.59524 -4.33067,-1.0646 -8.46863,-2.68511 -11.87811,-2.73336 -4.14472,-1.6492 -8.38938,-2.09538 -12.65636,-3.82715 -5.29496,-1.50661 -10.68964,-1.05106 -15.82744,-2.74539 -4.7514,-1.45463 -9.84939,-2.81107 -14.559,-3.64548 -4.38205,-1.28902 -8.41235,0.36892 -7.12996,3.61512 -1.36389,1.7648 -4.58749,3.29815 -4.24947,6.51659 -0.27586,2.95338 -1.47011,5.67318 -2.70305,8.28932 0.3385,3.36003 -0.66,6.47481 -0.4315,9.81416 -1.85171,2.01912 -3.9497,6.44481 2.06415,7.33898 4.20004,1.7426 8.67145,2.50827 13.14453,3.76642 3.98317,0.24036 7.43322,-0.006 12.16083,1.16194 4.09277,1.36341 8.31756,1.38648 12.49999,2.28079 4.3744,0.40014 7.96336,2.54705 12.29855,2.71439 5.21065,0.43764 10.19948,1.23383 15.30347,2.99258 3.33554,0.80821 7.39049,1.80555 10.45256,2.13088 3.10896,1.73418 7.59061,2.64923 9.48459,1.39738 z m -18.66013,-3.36043 -0.0366,0.15612 z m -54.96983,-9.69883 c -0.98903,-0.28732 0.0701,0.63406 0,0 z m -2.52909,-0.81892 c -0.25543,0.23048 0.33591,-7.1e-4 0,0 z m -9.3e-4,0.13681 c -0.32332,0.69982 0.63492,-0.1206 0,0 z m -0.023,0.0118 -5.9e-4,0.13654 z m 0.005,0.14174 c 0.11895,0.32653 0.0684,0.18792 0,0 z m -0.0426,-0.12457 -0.004,-0.0206 z m -0.004,-0.0206 -0.006,-0.10979 z m -0.55328,-0.0774 c 0.4306,0.34509 0.30842,-0.27247 0,0 z m -6.91328,-2.0779 c 0.0854,0.21271 0.57134,-0.0864 0,0 z m 0.24914,0.0581 c 0.2784,0.10916 0.41511,-0.2787 0,0 z m -0.99283,-0.48324 c 0.0294,-0.2309 -0.32319,0.12594 0,0 z m -3.3125,-7.04094 c 0.1392,-0.15719 -0.39876,-0.004 0,0 z m 0.44568,-1.5805 c -0.28258,-0.0306 0.20929,0.22892 0,0 z m -0.0877,0.019 c -0.32164,-0.68717 -0.57282,0.24648 0,0 z m -0.0438,-0.54469 c -0.41781,-0.51787 0.0337,0.34297 0,0 z m 7.31348,-22.63653 c 0.29532,-0.64018 -1.36897,-0.0878 0,0 z m 0.0817,-0.78576 c -0.19227,-0.38747 -0.60478,0.19554 0,0 z m 0.10958,-0.18137 -0.0249,-0.0512 z m 23.67055,1.34437 c 0.13685,0.51087 0.59262,-0.25636 0,0 z m 56.33611,12.18434 c 0.16455,-0.30745 -0.23448,-0.0213 0,0 z m -0.0361,-0.12281 -0.11659,-0.17731 z m 0.0152,-0.0304 c 0.47017,0.67722 0.46329,-0.36239 0,0 z m 1.09131,0.18372 c 0.0473,0.80855 1.01488,-0.55388 0,0 z m 0.44959,0.17113 c -0.68962,0.26626 0.57262,-0.0946 0,0 z m 1.25834,0.22615 c 0.19933,-0.0407 -0.41748,-0.1689 0,0 z m -1.49493,33.40156 c 0.0437,0.17155 0.35159,-0.0297 0,0 z m 0.0706,0.0889 -0.0748,-4e-4 z m -6.15875,-0.52672 c -0.99736,-0.24245 1.13302,-0.83978 0,0 z m 1.06465,-1.46339 -0.13971,-0.0502 z m -0.18748,-0.0304 c -0.41443,0.0888 0.0594,-0.20315 0,0 z m 0.0259,-0.0333 c -0.2889,-0.0621 0.24506,-0.17029 0,0 z m -0.44064,0.22465 c -0.30469,-0.57401 0.44985,-0.30746 0,0 z m 0.13558,-0.12611 c 0.94722,-0.84133 -0.67203,0.23113 0,0 z m 0.17182,-0.89725 c -1.99349,-0.19254 -2.58205,-0.54412 0,0 z m 7.91089,-30.19471 c -0.22666,0.56176 -0.65715,-0.66228 0,0 z m -42.72561,27.2684 c -0.48909,-0.0792 0.0994,-0.15388 0,0 z m -35.0522,-5.82984 c -0.29671,0.15616 -0.11105,-0.32944 0,0 z"
       style="fill:#006680;fill-opacity:1;fill-rule:evenodd;stroke:none;stroke-width:1px;stroke-linecap:butt;stroke-linejoin:miter;stroke-opacity:1" />
    <path
       style="fill:#d4aa00;fill-opacity:1;fill-rule:evenodd;stroke:none;stroke-width:1px;stroke-linecap:butt;stroke-linejoin:miter;stroke-opacity:1;filter:url(#filter4265)"
       d="m 229.85714,346.39579 c 19.87481,-33.7594 14.29725,-100.20181 40.76504,-138.4699 12.98731,-18.77753 54.84522,-28.67254 86.37781,-34.54569 45.70358,-8.51259 89.26515,-7.7928 135.75019,-7.14285 45.13709,0.6311 94.81997,-0.54204 138.53553,10.71428 10.62895,2.73685 22.17491,5.87514 30,13.57143 17.08499,16.80376 21.6037,42.83561 30.71428,64.99999 17.65955,31.30513 20.37688,74.5377 39.96411,99.70415 31.14312,22.19041 65.80115,30.99658 89.32161,58.86729 14.60013,17.30051 33.47735,49.17401 25.71428,62.85715 -9.07574,15.99684 -55.28912,7.40217 -85.45431,8.48477 -97.86826,3.51241 -195.16744,-8.91157 -293.06635,-11.42857 -114.25689,-2.93757 -259.62836,9.18892 -347.90791,-2.77048 -13.99543,-1.89599 6.56822,-40.54462 15.71429,-58.57144 7.73916,-15.25382 21.7344,-31.43875 35.17332,-42.02031 22.76802,-17.92711 50.77477,-11.3008 58.39811,-24.24982 z"
       id="path4170"
       inkscape:connector-curvature="0"
       sodipodi:nodetypes="ssssssccssssssss" />
    <ellipse
       style="opacity:1;fill:#c1573a;fill-opacity:1;fill-rule:nonzero;stroke:none;stroke-width:0.30000001;stroke-linecap:round;stroke-linejoin:round;stroke-miterlimit:4;stroke-dasharray:none;stroke-opacity:1;filter:url(#filter4293)"
       id="path4289"
       cx="60.397915"
       cy="632.40564"
       rx="75"
       ry="81.428574"
       transform="matrix(0.84187132,-0.53967831,0.53967831,0.84187132,-34,-14)" />
    <ellipse
       transform="matrix(0.84187132,-0.53967831,0.53967831,0.84187132,-35.428571,-19.714286)"
       ry="81.428574"
       rx="75"
       cy="797.1767"
       cx="285.66757"
       id="ellipse4291"
       style="opacity:1;fill:#c1573a;fill-opacity:1;fill-rule:nonzero;stroke:none;stroke-width:0.30000001;stroke-linecap:round;stroke-linejoin:round;stroke-miterlimit:4;stroke-dasharray:none;stroke-opacity:1;filter:url(#filter4307)" />
    <ellipse
       style="opacity:1;fill:#ff7f2a;fill-opacity:1;fill-rule:nonzero;stroke:none;stroke-width:0.30000001;stroke-linecap:round;stroke-linejoin:round;stroke-miterlimit:4;stroke-dasharray:none;stroke-opacity:1;filter:url(#filter4313)"
       id="ellipse4305"
       cx="-273.34439"
       cy="706.08606"
       rx="48.755932"
       ry="52.935017"
       transform="matrix(0.84187132,-0.53967831,0.53967831,0.84187132,196,-245.42857)" />
    <ellipse
       transform="matrix(0.84187132,-0.53967831,0.53967831,0.84187132,496,-232.57143)"
       ry="52.935017"
       rx="48.755932"
       cy="706.08606"
       cx="-273.34439"
       id="ellipse4319"
       style="opacity:1;fill:#ff7f2a;fill-opacity:1;fill-rule:nonzero;stroke:none;stroke-width:0.30000001;stroke-linecap:round;stroke-linejoin:round;stroke-miterlimit:4;stroke-dasharray:none;stroke-opacity:1;filter:url(#filter4313)" />
    <path
       style="opacity:1;fill:#ffd42a;fill-opacity:1;fill-rule:nonzero;stroke:none;stroke-width:8;stroke-linecap:butt;stroke-linejoin:round;stroke-miterlimit:4;stroke-dasharray:none;stroke-dashoffset:0"
       d="m 174.50195,388.79712 c -5.93539,0.23095 -11.89276,1.07683 -17.7368,1.71392 -4.64007,-0.62969 -9.13717,1.0793 -13.56724,2.10334 -6.39872,2.62244 -6.24944,10.33087 -10.24859,14.98542 -2.45498,5.49115 -3.84096,11.43339 -7.28076,16.42674 -2.69859,5.28773 -5.39308,10.51512 -8.5957,15.53798 -2.75651,6.69309 7.45988,5.65995 12.16044,6.66265 5.44009,0.33901 9.88912,-0.22173 15.27013,0.51728 4.66849,0.64119 10.38852,2.13542 15.11539,2.85097 4.0774,0.61718 9.06877,1.17467 12.12494,1.80129"
       id="path4336"
       inkscape:connector-curvature="0" />
    <path
       style="opacity:1;fill:#d85454;fill-opacity:1;fill-rule:nonzero;stroke:none;stroke-width:8;stroke-linecap:butt;stroke-linejoin:round;stroke-miterlimit:4;stroke-dasharray:none;stroke-dashoffset:0"
       d="m 806.14845,460.27802 c 7.26804,0.69947 8.21647,2.25545 14.89581,1.94209 3.81144,-0.17881 7.13214,0.2344 11.04001,0.91037 4.044,0.6147 8.28238,-0.27959 11.04293,0.13434 3.03943,0.45577 6.27977,-0.96771 9.7704,0.25163 -0.0398,-2.69172 -1.26586,-6.8255 -2.38444,-9.90617 -2.96037,-4.89653 -2.73462,-10.04166 -4.86732,-15.87444 -1.07933,-2.95206 -3.68701,-8.49767 -5.38969,-12.48566 -1.08034,-5.9161 -3.60649,-11.35602 -6.23327,-16.72326 -1.32024,-3.83629 -1.35886,-7.78155 -5.94252,-9.33988 -1.03821,-0.46059 -2.17629,-0.66979 -3.30848,-0.6792 l 0,-10e-6 c -4.73501,-0.0861 -8.78665,3.01668 -13.50215,2.98897 -6.21646,0.96762 -3.01222,0.83336 -9.133,2.33077"
       id="path4325"
       inkscape:connector-curvature="0" />
    <g
       id="g4338"
       transform="matrix(1,0,0,0.91461134,0,16.044158)">
      <path
         sodipodi:nodetypes="ccccccssscsc"
         inkscape:connector-curvature="0"
         id="path4332"
         d="m 369.18262,191.59297 c -16.46049,-0.0115 -45.26354,6.89585 -60.2156,11.23219 -21.05908,9.3211 -19.41011,22.28411 -31.15524,36.17474 -5.97323,15.57122 5.96332,33.32585 -3.67426,47.92086 -6.91734,15.11499 2.75128,26.75379 -6.04627,41.34219 -6.45862,18.89448 14.50453,21.28287 31.35067,22.26944 19.11068,-1.05509 34.34647,-4.15918 53.43927,-4.12321 16.56478,0.0312 37.19322,1.96484 53.99642,2.17394 8.84415,0.11006 34.19607,9.63429 43.09955,-9.27655 5.68809,-12.08139 4.07584,-41.70062 1.95853,-74.27682 2.26137,-38.06594 9.48817,-58.90739 -2.72829,-63.96535 -16.09122,-6.66221 -71.14256,-11.15906 -80.02478,-9.47143 z"
         style="opacity:1;fill:#80b3ff;fill-opacity:1;fill-rule:nonzero;stroke:none;stroke-width:8;stroke-linecap:butt;stroke-linejoin:round;stroke-miterlimit:4;stroke-dasharray:none;stroke-dashoffset:0" />
      <path
         sodipodi:nodetypes="cscsccsccccc"
         inkscape:connector-curvature="0"
         id="path4328"
         d="m 491.54545,347.65429 c 30.6337,1.80614 44.98808,3.32394 73.14063,2.51481 16.06475,-0.46171 30.06085,0.60523 46.53182,2.3507 17.0449,1.58725 34.90914,-0.72194 46.54415,0.34689 12.81096,1.17687 26.46837,-2.49878 41.18073,0.64975 -0.16615,-6.95046 -5.33548,-17.62456 -10.05006,-25.57934 -12.47722,-12.64366 -10.0974,-27.3578 -19.08622,-42.41901 -4.54928,-7.62269 -3.34654,-25.80965 -10.52328,-36.1073 -4.55327,-15.27635 -4.53709,-25.45584 -15.60845,-39.31493 -11.01423,-6.14353 -37.01354,-15.06496 -58.99158,-14.44239 -19.95731,-0.2225 -41.32023,-2.21043 -61.19513,-2.28197 -26.20132,2.49856 -12.69601,2.15188 -38.49424,6.01842"
         style="opacity:1;fill:#80b3ff;fill-opacity:1;fill-rule:nonzero;stroke:none;stroke-width:8;stroke-linecap:butt;stroke-linejoin:round;stroke-miterlimit:4;stroke-dasharray:none;stroke-dashoffset:0" />
    </g>
  </g>
</svg>
