<svg xmlns="http://www.w3.org/2000/svg" width="297mm" height="210mm" viewBox="0 0 1052.362 744.094">
  <defs>
    <filter style="color-interpolation-filters:sRGB" id="c">
      <feTurbulence type="fractalNoise" numOctaves="5" seed="1" baseFrequency="0.013 0.013" result="turbulence"/>
      <feDisplacementMap in="SourceGraphic" in2="turbulence" scale="6.6" yChannelSelector="G" xChannelSelector="R" result="fbSourceGraphic"/>
      <feColorMatrix result="fbSourceGraphicAlpha" in="fbSourceGraphic" values="0 0 0 -1 0 0 0 0 -1 0 0 0 0 -1 0 0 0 0 1 0"/>
      <feTurbulence type="fractalNoise" numOctaves="5" seed="1" baseFrequency="0.013 0.013" result="turbulence"/>
      <feDisplacementMap in2="turbulence" in="fbSourceGraphic" scale="8.4" yChannelSelector="G" xChannelSelector="R"/>
    </filter>
    <filter style="color-interpolation-filters:sRGB" id="d">
      <feTurbulence type="fractalNoise" numOctaves="5" seed="1" baseFrequency="0.013 0.013" result="turbulence"/>
      <feDisplacementMap in="SourceGraphic" in2="turbulence" scale="15.5" yChannelSelector="G" xChannelSelector="R"/>
    </filter>
    <filter style="color-interpolation-filters:sRGB" id="e">
      <feTurbulence type="fractalNoise" numOctaves="5" seed="1" baseFrequency="0.013 0.013" result="turbulence"/>
      <feDisplacementMap in="SourceGraphic" in2="turbulence" scale="15.5" yChannelSelector="G" xChannelSelector="R"/>
    </filter>
    <filter style="color-interpolation-filters:sRGB" id="f">
      <feTurbulence type="fractalNoise" numOctaves="5" seed="1" baseFrequency="0.013 0.013" result="turbulence"/>
      <feDisplacementMap in="SourceGraphic" in2="turbulence" scale="15.5" yChannelSelector="G" xChannelSelector="R"/>
    </filter>
    <filter style="color-interpolation-filters:sRGB" id="b" x="-.019" width="1.037" y="-.034" height="1.068">
      <feGaussianBlur stdDeviation="1.042"/>
    </filter>
    <filter style="color-interpolation-filters:sRGB" id="a" x="-.019" width="1.039" y="-.031" height="1.062">
      <feGaussianBlur stdDeviation=".923"/>
    </filter>
  </defs>
  <path d="M860.536 498.803c4.168-1.374 8.482-2.265 12.829-2.85 1.409-.188 2.825-.32 4.238-.481 6.045-.525 12.134-.516 18.191-.206 3.806.195 6.106.456 9.935.819a206.734 206.734 0 0 1 25.483 4.653c1.537.383 3.064.81 4.595 1.216 9.152 2.662 18.031 6.481 25.597 12.377 1.511 1.177 2.887 2.518 4.33 3.777 1.176 1.34 2.458 2.592 3.527 4.018 2.87 3.829 4.657 8.003 4.895 12.816.176 3.542-.354 4.8-1.129 8.192-.501 1.32-.92 2.673-1.504 3.958-2.009 4.425-5.125 8.666-8.944 11.704-.856.681-1.8 1.245-2.699 1.868-1.104.564-2.17 1.21-3.313 1.692-6.164 2.607-13.532 3.443-20.162 3.581-1.956.04-3.913-.058-5.87-.087-6.582-.421-13.296-1.255-19.357-4.036-3.468-1.592-3.837-2.169-6.93-4.551-.785-.897-1.65-1.729-2.354-2.69-2.65-3.627-4.027-8.194-3.97-12.675.014-1.09.209-2.17.313-3.255.263-1.03.455-2.08.789-3.088.949-2.87 2.506-5.59 4.418-7.927 1.72-2.1 2.373-2.5 4.444-4.277 4.136-3.113 8.967-5.006 14.08-5.768 4.016-.598 5.328-.398 9.4-.318 4.948.483 9.89 1.57 14.29 3.98 2.551 1.399 4.571 2.716 6.133 5.167.547.86.811 1.87 1.217 2.804.081.986.298 1.97.244 2.96-.22 4.086-2.556 8.616-5.15 11.703-.569.675-1.234 1.263-1.851 1.895a17.55 17.55 0 0 1-8.409 3.943c-2.38.418-3.113.297-5.542.272-4.644-.422-9.231-1.821-12.957-4.718-.44-.342-.785-.793-1.178-1.19-.741-1.016-1.178-2.047-.681-3.288.298-.747.69-1.014 1.242-1.541.107-.107 1.612 1.41 1.505 1.517-.126.1-.853.628-.846.858.012.449.46.787.705 1.069.367.282.723.582 1.102.848 3.148 2.205 6.94 3.279 10.711 3.742.864.04 1.728.126 2.593.12 2.852-.02 5.76-.546 8.18-2.14.558-.367 1.047-.83 1.57-1.245.524-.574 1.088-1.114 1.569-1.723 1.11-1.408 2.259-3.293 3.03-4.894.693-1.437 1.574-3.62 1.72-5.267.064-.723-.117-1.446-.175-2.17-.346-.695-.573-1.462-1.036-2.085-1-1.343-2.773-2.695-4.26-3.446-4.14-2.093-8.688-3.243-13.258-3.886-1.506-.068-3.011-.21-4.52-.203-5.133.022-10.329.952-14.885 3.406-.907.488-1.741 1.102-2.612 1.652-1.893 1.55-2.552 1.933-4.106 3.805-1.733 2.087-3.142 4.575-3.989 7.155-.293.893-.457 1.824-.686 2.736-.088.953-.258 1.902-.264 2.859-.03 3.965 1.225 7.978 3.645 11.134.638.833 1.419 1.548 2.128 2.322 2.077 1.696 2.307 2.074 5.039 3.301 1.17.526 2.392.938 3.623 1.3 4.8 1.41 9.797 1.925 14.77 2.22 1.892.043 3.784.14 5.677.128 3.656-.021 7.363-.237 10.992-.7 3.129-.4 5.453-.8 8.377-1.86 1.055-.382 2.051-.913 3.077-1.37.811-.55 1.668-1.04 2.434-1.651 3.497-2.793 6.22-6.88 8.096-10.897.543-1.163.952-2.384 1.428-3.576.673-2.978 1.154-4.12.956-7.22-.274-4.283-2.06-7.892-4.737-11.19-1.048-1.29-2.282-2.416-3.423-3.624-1.408-1.159-2.765-2.382-4.224-3.476-6.904-5.175-14.679-9.162-22.983-11.52-1.502-.391-2.998-.81-4.506-1.175-3.06-.74-6.511-1.43-9.595-2.024-5.158-.993-10.338-1.87-15.547-2.549-1.686-.201-3.368-.435-5.057-.604a138.103 138.103 0 0 0-22.544-.37c-3.586.315-4.531.364-8.037.801-2.665.333-5.301.807-7.953 1.219-.398.061-.796.113-1.194.17-.138.048-.818-1.898-.68-1.946z" style="opacity:1;fill:#ccc;fill-opacity:1;fill-rule:nonzero;stroke:none;stroke-width:.25025496;stroke-linecap:round;stroke-linejoin:round;stroke-miterlimit:4;stroke-dasharray:none;stroke-opacity:1;filter:url(#a)"/>
  <path style="opacity:1;fill:#ccc;fill-opacity:1;fill-rule:nonzero;stroke:none;stroke-width:1.5;stroke-linecap:round;stroke-linejoin:round;stroke-miterlimit:4;stroke-dasharray:none;stroke-opacity:1;filter:url(#b)" d="M859.937 485.905c5.678 1.948 11.41 3.387 17.1 4.495 1.844.36 3.682.658 5.524.986 7.835 1.229 15.582 1.881 23.206 2.202 4.79.202 7.647.168 12.42.19 10.637-.178 21.067-.93 31.167-2.29 1.853-.25 3.68-.548 5.519-.822 10.924-1.902 21.187-5.091 29.215-10.682 1.603-1.117 2.99-2.426 4.486-3.638 1.132-1.33 2.424-2.554 3.397-3.989 2.614-3.853 3.754-8.2 2.751-13.41-.739-3.835-1.754-5.262-3.66-9.036-.997-1.49-1.898-3.008-2.989-4.47-3.758-5.033-8.874-9.985-14.56-13.707-1.274-.834-2.627-1.55-3.94-2.326-1.56-.733-3.092-1.551-4.676-2.201-8.552-3.507-18.156-5.218-26.63-6.09-2.501-.256-4.964-.362-7.446-.543-8.263-.258-16.58-.081-23.54 2.285-3.981 1.355-4.294 1.942-7.584 4.198-.755.89-1.631 1.7-2.264 2.671-2.388 3.657-2.901 8.477-1.612 13.358.313 1.187.854 2.384 1.282 3.576.613 1.148 1.143 2.31 1.84 3.444 1.988 3.227 4.707 6.355 7.775 9.106 2.759 2.472 3.7 2.979 6.816 5.137 6.109 3.837 12.77 6.42 19.485 7.806 5.272 1.088 6.889 1.014 12.05 1.37 6.164.012 12.158-.633 17.102-2.777 2.868-1.244 5.081-2.457 6.404-4.954.463-.875.525-1.945.787-2.918-.164-1.064-.156-2.112-.492-3.193-1.389-4.47-5.592-9.653-9.732-13.294-.906-.797-1.912-1.509-2.869-2.263-3.636-2.503-7.638-4.265-11.77-5.204-3.144-.715-4.044-.662-7.128-.9-5.795-.046-11.253.978-15.208 3.723-.468.325-.784.778-1.177 1.167-.667 1.025-.942 2.1.026 3.504.583.845 1.154 1.178 1.999 1.812.165.127 1.67-1.36 1.504-1.487-.187-.123-1.256-.777-1.31-1.026-.107-.487.37-.806.607-1.086.391-.268.762-.554 1.173-.803 3.407-2.056 7.942-2.812 12.615-2.906 1.089.05 2.164.051 3.267.152 3.634.332 7.479 1.22 10.99 3.217.81.46 1.558 1.017 2.338 1.526.82.682 1.685 1.33 2.463 2.046 1.795 1.652 3.768 3.827 5.185 5.654 1.271 1.638 2.985 4.11 3.617 5.917.278.793.244 1.56.366 2.341-.25.719-.33 1.53-.752 2.156-.908 1.353-2.797 2.631-4.486 3.287-4.701 1.826-10.176 2.582-15.816 2.785-1.9-.09-3.776-.1-5.697-.27-6.54-.584-13.404-2.16-19.868-5.325-1.287-.63-2.515-1.389-3.772-2.083-2.83-1.89-3.772-2.38-6.259-4.586-2.772-2.46-5.24-5.32-7.018-8.218-.616-1.003-1.077-2.034-1.616-3.051-.37-1.047-.844-2.098-1.112-3.14-1.113-4.317-.606-8.546 1.616-11.717.587-.837 1.386-1.53 2.079-2.294 2.183-1.62 2.372-2.006 5.516-3.044 1.347-.444 2.79-.76 4.258-1.02 5.725-1.012 11.946-1.028 18.194-.81 2.396.16 4.778.261 7.19.48 4.658.42 9.434 1.058 14.179 1.957 4.09.775 7.156 1.463 11.164 2.934 1.448.532 2.86 1.217 4.288 1.825 1.182.688 2.405 1.314 3.546 2.063 5.208 3.418 9.783 8.16 13.26 12.735 1.008 1.325 1.86 2.698 2.79 4.047 1.664 3.312 2.586 4.608 3.175 7.958.814 4.631-.48 8.363-2.992 11.66-.982 1.29-2.248 2.38-3.372 3.57-1.477 1.108-2.871 2.292-4.431 3.323-7.382 4.879-16.194 8.37-26.122 10.032-1.806.263-3.595.557-5.416.79-3.693.47-7.897.847-11.661 1.158-6.295.519-12.648.909-19.093 1.081-2.09.036-4.168.108-6.271.107-9.327-.003-18.905-.706-28.59-2.049-4.648-.733-5.865-.889-10.445-1.746-3.482-.652-6.965-1.454-10.452-2.19-.523-.111-1.044-.21-1.566-.316-.188-.067-.526 1.975-.338 2.043z"/>
  <path d="M863.548 509.424c2.45-2.057 1.652-5.11 2.988-7.403.124-2.62-.817-6.218.841-8.803.297-2.615 1.623-5.314 1.237-8.33-.14-3.335.936-6.718-.648-10.137-2.612-.44-5.675-1.609-9.471-1.8-4.003-.142-8.63-1.88-12.921-2.595-4.33-1.064-8.469-2.685-11.878-2.733-4.145-1.65-8.39-2.095-12.657-3.827-5.295-1.507-10.69-1.051-15.827-2.746-4.751-1.454-9.85-2.81-14.559-3.645-4.382-1.289-8.412.369-7.13 3.615-1.364 1.765-4.587 3.298-4.25 6.517-.275 2.953-1.47 5.673-2.702 8.289.338 3.36-.66 6.475-.432 9.814-1.852 2.02-3.95 6.445 2.064 7.34 4.2 1.742 8.672 2.507 13.145 3.766 3.983.24 7.433-.006 12.16 1.162 4.093 1.363 8.318 1.386 12.5 2.28 4.375.4 7.964 2.547 12.3 2.715 5.21.437 10.199 1.234 15.303 2.992 3.335.808 7.39 1.806 10.452 2.131 3.11 1.734 7.59 2.65 9.485 1.398zm-18.66-3.36-.037.155zm-54.97-9.7c-.99-.287.07.634 0 0zm-2.53-.819c-.255.23.337 0 0 0zm0 .137c-.324.7.635-.12 0 0zm-.023.012v.137zm.005.142c.119.326.068.188 0 0zm-.043-.125-.004-.02zm-.004-.02-.006-.11zm-.553-.078c.43.345.308-.272 0 0zm-6.913-2.078c.085.213.57-.086 0 0zm.249.058c.278.11.415-.278 0 0zm-.993-.483c.03-.23-.323.126 0 0zm-3.313-7.04c.14-.158-.398-.005 0 0zm.446-1.581c-.283-.03.21.229 0 0zm-.088.019c-.321-.688-.572.246 0 0zm-.043-.545c-.418-.518.033.343 0 0zm7.313-22.637c.295-.64-1.369-.087 0 0zm.082-.785c-.193-.388-.605.195 0 0zm.11-.182-.026-.05zm23.67 1.345c.137.51.592-.257 0 0zm56.336 12.184c.165-.307-.234-.021 0 0zm-.036-.123-.117-.177zm.015-.03c.47.677.463-.363 0 0zm1.091.184c.048.808 1.015-.554 0 0zm.45.17c-.69.267.573-.094 0 0zm1.258.227c.2-.04-.417-.17 0 0zm-1.495 33.401c.044.172.352-.03 0 0zm.071.09-.075-.001zm-6.159-.527c-.997-.243 1.133-.84 0 0zm1.065-1.464-.14-.05zm-.188-.03c-.414.089.06-.203 0 0zm.026-.034c-.289-.062.245-.17 0 0zm-.44.225c-.305-.574.45-.307 0 0zm.135-.126c.947-.841-.672.231 0 0zm.172-.897c-1.993-.193-2.582-.544 0 0zm7.911-30.195c-.227.562-.657-.662 0 0zm-42.726 27.268c-.489-.079.1-.153 0 0zm-35.052-5.83c-.297.157-.11-.329 0 0z" style="fill:#006680;fill-opacity:1;fill-rule:evenodd;stroke:none;stroke-width:1px;stroke-linecap:butt;stroke-linejoin:miter;stroke-opacity:1"/>
  <path style="fill:#d4aa00;fill-opacity:1;fill-rule:evenodd;stroke:none;stroke-width:1px;stroke-linecap:butt;stroke-linejoin:miter;stroke-opacity:1;filter:url(#c)" d="M229.857 346.396c19.875-33.76 14.297-100.202 40.765-138.47 12.987-18.778 54.845-28.673 86.378-34.546 45.704-8.512 89.265-7.793 135.75-7.143 45.137.631 94.82-.542 138.536 10.715 10.629 2.736 22.175 5.875 30 13.571 17.085 16.804 21.603 42.836 30.714 65 17.66 31.305 20.377 74.538 39.964 99.704 31.143 22.19 65.801 30.997 89.322 58.867 14.6 17.301 33.477 49.174 25.714 62.858-9.076 15.996-55.29 7.402-85.454 8.484-97.869 3.513-195.168-8.911-293.067-11.428-114.257-2.938-259.628 9.189-347.908-2.77-13.995-1.897 6.569-40.545 15.715-58.572 7.739-15.254 21.734-31.439 35.173-42.02 22.768-17.928 50.775-11.301 58.398-24.25z"/>
  <ellipse style="opacity:1;fill:#c1573a;fill-opacity:1;fill-rule:nonzero;stroke:none;stroke-width:.30000001;stroke-linecap:round;stroke-linejoin:round;stroke-miterlimit:4;stroke-dasharray:none;stroke-opacity:1;filter:url(#d)" cx="60.398" cy="632.406" rx="75" ry="81.429" transform="rotate(-32.662 -40.89 51.02)"/>
  <ellipse transform="rotate(-32.662 -51.356 50.6)" ry="81.429" rx="75" cy="797.177" cx="285.668" style="opacity:1;fill:#c1573a;fill-opacity:1;fill-rule:nonzero;stroke:none;stroke-width:.30000001;stroke-linecap:round;stroke-linejoin:round;stroke-miterlimit:4;stroke-dasharray:none;stroke-opacity:1;filter:url(#e)"/>
  <ellipse style="opacity:1;fill:#ff7f2a;fill-opacity:1;fill-rule:nonzero;stroke:none;stroke-width:.30000001;stroke-linecap:round;stroke-linejoin:round;stroke-miterlimit:4;stroke-dasharray:none;stroke-opacity:1;filter:url(#f)" cx="-273.344" cy="706.086" rx="48.756" ry="52.935" transform="rotate(-32.662 -320.812 -457.18)"/>
  <ellipse transform="rotate(-32.662 -148.872 -962.686)" ry="52.935" rx="48.756" cy="706.086" cx="-273.344" style="opacity:1;fill:#ff7f2a;fill-opacity:1;fill-rule:nonzero;stroke:none;stroke-width:.30000001;stroke-linecap:round;stroke-linejoin:round;stroke-miterlimit:4;stroke-dasharray:none;stroke-opacity:1;filter:url(#f)"/>
  <path style="opacity:1;fill:#ffd42a;fill-opacity:1;fill-rule:nonzero;stroke:none;stroke-width:8;stroke-linecap:butt;stroke-linejoin:round;stroke-miterlimit:4;stroke-dasharray:none;stroke-dashoffset:0" d="M174.502 388.797c-5.935.231-11.893 1.077-17.737 1.714-4.64-.63-9.137 1.08-13.567 2.103-6.399 2.623-6.25 10.331-10.249 14.986-2.455 5.49-3.84 11.433-7.28 16.427-2.699 5.287-5.394 10.515-8.596 15.538-2.757 6.693 7.46 5.66 12.16 6.662 5.44.34 9.89-.222 15.27.517 4.669.642 10.389 2.136 15.116 2.851 4.077.618 9.069 1.175 12.125 1.802"/>
  <path style="opacity:1;fill:#d85454;fill-opacity:1;fill-rule:nonzero;stroke:none;stroke-width:8;stroke-linecap:butt;stroke-linejoin:round;stroke-miterlimit:4;stroke-dasharray:none;stroke-dashoffset:0" d="M806.148 460.278c7.268.7 8.217 2.255 14.896 1.942 3.812-.179 7.132.235 11.04.91 4.044.615 8.283-.28 11.043.135 3.04.456 6.28-.968 9.77.251-.04-2.691-1.265-6.825-2.384-9.906-2.96-4.896-2.734-10.041-4.867-15.874-1.08-2.952-3.687-8.498-5.39-12.486-1.08-5.916-3.606-11.356-6.233-16.723-1.32-3.836-1.359-7.782-5.943-9.34-1.038-.46-2.176-.67-3.308-.68-4.735-.085-8.787 3.018-13.502 2.99-6.217.967-3.012.833-9.133 2.33"/>
  <g>
    <path d="M369.183 191.593c-16.46-.012-45.264 6.896-60.216 11.232-21.06 9.321-19.41 22.284-31.155 36.175-5.973 15.571 5.963 33.326-3.674 47.92-6.918 15.116 2.75 26.755-6.047 41.343-6.458 18.894 14.505 21.283 31.35 22.27 19.112-1.056 34.347-4.16 53.44-4.124 16.565.031 37.193 1.965 53.997 2.174 8.844.11 34.196 9.634 43.1-9.276 5.687-12.082 4.075-41.701 1.958-74.277 2.261-38.066 9.488-58.908-2.729-63.966-16.09-6.662-71.142-11.159-80.024-9.471zM491.545 347.654c30.634 1.806 44.989 3.324 73.141 2.515 16.065-.462 30.06.605 46.532 2.35 17.045 1.588 34.909-.721 46.544.348 12.811 1.177 26.468-2.5 41.18.65-.165-6.951-5.335-17.625-10.05-25.58-12.476-12.644-10.097-27.358-19.085-42.419-4.55-7.623-3.347-25.81-10.524-36.107-4.553-15.277-4.537-25.456-15.608-39.315-11.014-6.144-37.014-15.065-58.992-14.443-19.957-.222-41.32-2.21-61.195-2.282-26.201 2.5-12.696 2.152-38.494 6.019" style="opacity:1;fill:#80b3ff;fill-opacity:1;fill-rule:nonzero;stroke:none;stroke-width:8;stroke-linecap:butt;stroke-linejoin:round;stroke-miterlimit:4;stroke-dasharray:none;stroke-dashoffset:0" transform="matrix(1 0 0 .91461 0 16.044)"/>
  </g>
</svg>
