<?xml version="1.0" encoding="UTF-8" standalone="no"?>
<svg
   xmlns:dc="http://purl.org/dc/elements/1.1/"
   xmlns:cc="http://creativecommons.org/ns#"
   xmlns:rdf="http://www.w3.org/1999/02/22-rdf-syntax-ns#"
   xmlns:svg="http://www.w3.org/2000/svg"
   xmlns="http://www.w3.org/2000/svg"
   xmlns:sodipodi="http://sodipodi.sourceforge.net/DTD/sodipodi-0.dtd"
   xmlns:inkscape="http://www.inkscape.org/namespaces/inkscape"
   version="1.1"
   id="Layer_1"
   x="0px"
   y="0px"
   width="985"
   height="449"
   viewBox="0 0 985.0000000000007 448.9999999999995"
   enable-background="new 0 0 578 462"
   xml:space="preserve"
   inkscape:version="0.91 r13725"
   sodipodi:docname="Car-4.svg"><metadata
     id="metadata8"><rdf:RDF><cc:Work
         rdf:about=""><dc:format>image/svg+xml</dc:format><dc:type
           rdf:resource="http://purl.org/dc/dcmitype/StillImage" /><dc:date>2016</dc:date><dc:creator><cc:Agent><dc:title>Lazur</dc:title></cc:Agent></dc:creator><dc:description>Original raster images of this series were uploaded by NicholasJudy456 to openclipart embedded in svg-s (416 in total).  This is one of the refixes upon request by the original author.</dc:description><dc:contributor><cc:Agent><dc:title /></cc:Agent></dc:contributor><dc:title></dc:title></cc:Work></rdf:RDF></metadata><defs
     id="defs6" /><sodipodi:namedview
     pagecolor="#ffffff"
     bordercolor="#666666"
     borderopacity="1"
     objecttolerance="10"
     gridtolerance="10"
     guidetolerance="10"
     inkscape:pageopacity="0"
     inkscape:pageshadow="2"
     inkscape:window-width="1366"
     inkscape:window-height="705"
     id="namedview4"
     showgrid="false"
     borderlayer="true"
     inkscape:showpageshadow="false"
     inkscape:zoom="1.236080178173719"
     inkscape:cx="492.5000000000001"
     inkscape:cy="224.5"
     inkscape:window-x="-8"
     inkscape:window-y="-8"
     inkscape:window-maximized="1"
     inkscape:current-layer="Layer_1"
     fit-margin-top="0"
     fit-margin-left="0"
     fit-margin-right="0"
     fit-margin-bottom="0"
     showguides="true"
     inkscape:guide-bbox="true"
     showborder="true" /><path
     style="fill:#4241b6"
     d="m 153.2114559269033,348.8765721777218 -7.7114559269033,-0.9736269241159 -59.41368074627258,-5.373586257327 -53.73236826180782,-4.8420746710258 15.04824747122972,-39.9191380901331 16.73236826180772,-41.5097206036067 22.59009463126442,-27.3338478302615 21.22466135622163,-25.4245778012516 3.7753386437785,-2.0553662891779 22.3167170505854,-12.7482500544377 18.541378406807,-10.6928837652598 18.958621593193,-7.3722204613606 30.9586215931931,-11.0870113575498 12,-3.7147908961891 1.1581024588459,-1.1647385880126 5.5671549368796,-11.6647385880125 4.4090524780336,-10.5 11.3423761232591,-16 11.3423761232591,-16 13.0904689398614,-13.87669472813886 25.0904689398613,-24.87120412138603 12,-10.9945093932472 21.2638719879727,-10.33649284292368 21.2638719879728,-10.33649284292364 37.1721807683143,-3.07440777980463 37.1721807683144,-3.07440777980458 10.733151035033,1.57970110706799 10.7331510350331,1.57970110706805 20.8307962086797,6.95299798578089 20.8307962086798,6.95299798578088 16,9.63797489161431 16,9.63797489161429 9.2891121696375,9.11143075965106 9.2891121696375,9.11143075965116 8.4262737877344,14.52990484448918 8.4262737877347,14.52990484448941 3.6065788376319,23.9700951555107 3.606578837632,23.9700951555107 -0.6573804140796,12.6555024650754 -0.6573804140799,12.6555024650755 1.8354156190758,0.5071787650135 5.5491374944246,1.1330047763707 3.7137218753493,0.6258260113569 20.2862781246507,9.2481472475574 20.2862781246507,9.2481472475574 14.6011425654633,10.2642874983216 14.6011425654632,10.2642874983216 7.9801597091455,10.1990580126751 9.5851809785822,12.6990580126751 9.1686977253918,20.4851246312045 7.5636764559545,17.9851246312046 -5e-13,29.2648753687954 0,29.2648753687955 -0.90190064285,0 -32.25,1.5474201159723 -31.34809935715,1.5474201159722 -24.9736461322195,-1.1043995815285 -25.229689126752,-1.360442576053 -3.7847849971879,-17.1930205344437 -3.5287420026558,-16.9369775399194 -5.0298534769466,-11 -5.029853476947,-11 -10.7292540714459,-6.2078859880972 -10.7292540714459,-6.2078859880971 -14.4568268119123,-3.0825018207664 -14.4568268119125,-3.0825018207663 -13.5256345102872,5.5822755431931 -13.5256345102872,5.5822755431929 -6.7388950548674,10.2383255385212 -6.7388950548673,10.2383255385213 -4.1306930413082,17.9697867271493 -4.1306930413081,17.9697867271493 -1.8487710808063,3.648140795904 -1.8487710808062,3.648140795904 -6.2816408230181,0.851859204096 -6.2816408230183,0.851859204096 -34,-0.4967027308833 -47,-0.5 -23.25,0.7517220682907 -10.25,0.755019337407 0,-2.7821267351458 -3.9242227438451,-20.8784691920629 -3.924222743845,-18.0963424569168 -3.8288788057674,-7.60970672808 -3.8288788057673,-7.6097067280798 -12.8849342743045,-8.958002191847 -12.8849342743047,-8.958002191847 -13.006728738284,-3.0720967175512 -13.0067287382841,-3.0720967175511 -24.105235437799,9.0568335844034 -24.1052354377989,9.0568335844036 -8,9.6611277272585 -12.3115587376019,14.882423860623 -4.3115587376017,5.2212961333644 -3.9791423112376,14.8239980471071 -4.9769853354949,18.573998047107 -0.9978430242573,3.75 z"
     id="path6084" /><path
     inkscape:connector-curvature="0"
     id="path6074"
     d="m 517.75,153.8389219912916 -77.1693585100501,-1.0026918433827 -58.2378372298506,-1.1600925544762 7.1681822050021,-54.74730815661724 7.4878372298506,-54.57733802273356 6.751176305048,-0.78886813986185 6.75,-0.64035955394376 10.3975229962908,2.01971875421702 10.3975229962909,2.01971875421708 20.1024770037091,6.45607845043696 29.6597658758284,9.50437000656109 9.5572888721192,3.04829155612413 12.8569525466642,16.76477937908368 13.7220181886875,17.90255537068002 10.3357585812164,27.97151681155212 9.4706929391936,27.1122240084036 z m -214.31017187525,-5.8389219912916 -55.5601718752499,0 7.3700021371844,-13.9859260205531 7.3700021371844,-13.9859260205531 15.4401697380656,-16.7576896893596 29.3316973342273,-31.00222334590782 13.8915275961619,-14.24453365654813 16.6084724038381,-8.95889149492438 16.6084724038383,-8.95889149492445 9.384376560419,-2.08524924486232 9.746609095645,-1.72301670963634 -7.1343765604191,55.72739072721788 -7.496609095645,55.67005757102166 z"
     style="fill:#c3c2fb"
     sodipodi:nodetypes="ccccccccccccccccccccccccccccccc" /><path
     inkscape:connector-curvature="0"
     id="path6072"
     d="m 804.5200994850921,392.9416637336987 c -0.011054716801,-0.032084946466 -4.6070924852347,-2.3718108463038 -10.2134172631863,-5.199390888529 l -10.1933177780942,-5.1410546222275 -5.0388614208773,-11.5506091114711 -5.0388614208773,-11.5506091114711 -1.4616158983129,-14.3604617639507 -1.9034841897712,-14.8023300554096 -18.8894937734192,9.1104617639508 -18.44762548196,9.5523300554096 -9.5543088377433,0 -9.5543088377434,0 -3.1312258825691,-7.7678527225415 -3.1312258825692,-7.7678527225414 4.0319403444996,-13.4452640309432 4.7688235910158,-14.1502185571923 10.7368832465154,-8.9372543693007 10,-8.2322998430513 7,-3.2130536702082 12.745932016751,-5.7924427662114 5.7459320167511,-2.5793890960032 -3.0433103071541,-8.2539020299047 -3.0433103071548,-8.2539020299046 0.6593795994295,-5.2774960376756 0.6593795994289,-5.2774960376755 5.3814806361006,-4.597542611844 5.3814806361006,-4.5975426118439 6.192354578188,-2.4267652345016 6.1923545781875,-2.4267652345015 9.0641634766861,1.5237467200993 c 4.9852899121772,0.8380606960547 10.254399720544,1.7627686147593 11.7091329074817,2.0549064860105 l 2.644969430796,0.5311597659113 5.355030569204,3.9877991334262 5.3550305692039,3.9877991334259 4.5,8.9243295188878 4.5,8.9243295188879 14.5,-11.5170592287775 14.5,-11.5170592287777 6.783605316056,-3.4809512078281 6.7836053160555,-3.480951207828 4.2163946839445,1.0890156018091 c 2.3190170761694,0.598958580995 4.9760919553323,1.308731585018 5.9046108425841,1.5772733422732 l 1.68821615864,0.4882577404641 1.1576901671199,3.5078356611326 1.1576901671194,3.5078356611325 -0.6677765157832,7.1943860977978 -0.6677765157839,7.1943860977977 -4.5495670738196,12 c -2.5022618906008,6.6 -4.9137208003269,13.2382428354683 -5.3587975771692,14.7516507454852 l -0.8092305033491,2.7516507454854 2.180667767193,-0.4848210906653 c 1.199367271956,-0.2666515998659 6.2306677671929,-1.1659567504951 11.1806677671926,-1.998455890287 l 9,-1.5136347996218 6.7785166948378,-0.0031948552 6.7785166948373,-0.0031948552 5.7904931032582,2.9230316185177 5.7904931032588,2.9230316185177 4.180990201904,5.4193398456129 4.1809902019039,5.4193398456128 0,6.4581857321277 0,6.4581857321276 -7.25,5.8747340730414 c -3.9874999999996,3.2311037401726 -7.7817565558208,6.2754383313207 -8.4316812351577,6.7651879803288 -0.649924679337,0.4897496490081 -7.8499246793372,2.6570147772486 -16,4.8161447294231 l -14.8183187648423,3.9256908221358 -16.143838076386,0.00856400128 -16.1438380763865,0.00856400128 -0.7258159084348,9.25 -0.7258159084347,9.25 -3.0152003501286,5.9886282417831 -3.015200350128,5.9886282417831 -7.9881617853556,10.2330278875244 -7.9881617853556,10.2330278875244 -1.6269838796951,0.4856366457937 c -0.8948411338323,0.2671001551865 -4.9929391114033,1.4048548969981 -9.1068843946025,2.5283438706925 -4.1139452831992,1.1234889736943 -7.4889452831992,2.0164559050632 -7.5,1.9843709585954 z"
     style="fill:#c2c2c2"
     sodipodi:nodetypes="ssccccccccccccccccccccccccccsscccccccccsscccccsscsscccccccccssscccccccccsss" /><path
     inkscape:connector-curvature="0"
     id="path6068"
     d="m 220,409.4612968317476 -7.5,0.4761157967266 -3,-0.8807209785309 -12.6085319702623,-3.0185676198385 -9.6085319702624,-2.1378466413077 -6.6606306293913,-9.7217621155629 -6.6606306293913,-9.7217621155628 -1.9768264593271,-11.5563352271957 -1.976826459327,-11.5563352271957 6.4959890589807,-22.3578875553951 6.4959890589807,-22.5045461564469 13.75,-11.6581871370445 13.75,-11.5115285359926 6.5,-3.5553493184653 6.5,-3.5553493184653 10.937132588948,-0.7096025381886 10.9371325889479,-0.7096025381888 7.6433648942126,3.7265660368602 7.6433648942125,3.7265660368601 5.1695025168395,10.3944411716371 5.1695025168395,10.3944411716371 0.00727815395,16.2379779889564 0.00727815395,16.2379779889563 -7.5475281189286,17 -7.5475281189286,17 -14.20975003502,14.7425905175105 -14.20975003502,14.7425905175105 z m 254,-10.5478944755011 -6.5,-0.048421753353 -9.1795764518751,-3.5378068902572 -9.1795764518751,-3.5378068902571 -4.1552502488651,-11.3286347473943 -4.1552502488651,-11.3286347473942 0.7260573695364,-10.2410850798689 0.7260573695364,-10.2410850798689 7.8918958803998,-18.0749635839266 7.8918958803999,-18.0749635839266 12.7168734508039,-12.8620340242984 12.716873450804,-12.8620340242985 7.3054010225694,-3.3879659757015 7.3054010225695,-3.3879659757016 5.8499415048413,0 5.8499415048413,0 5.0860039681639,6.8606411738851 5.0860039681644,6.8606411738849 2.0099455383296,13.889358826115 2.0099455383295,13.8893588261149 -4.9279732840054,18.2997271852419 -4.9279732840051,18.2997271852417 -7.1174450654615,12.8478497524401 -7.1174450654616,12.8478497524401 -9.7058736844376,7.5833351171176 -9.7058736844376,7.5833351171177 z"
     style="fill:#000000"
     sodipodi:nodetypes="ccccccccccccccccccccccccccccccccccccccccccccccccccccccc" /></svg>