<?xml version="1.0" encoding="UTF-8" standalone="no"?>
<!-- Created with Inkscape (http://www.inkscape.org/) -->

<svg
   xmlns:dc="http://purl.org/dc/elements/1.1/"
   xmlns:cc="http://creativecommons.org/ns#"
   xmlns:rdf="http://www.w3.org/1999/02/22-rdf-syntax-ns#"
   xmlns:svg="http://www.w3.org/2000/svg"
   xmlns="http://www.w3.org/2000/svg"
   xmlns:sodipodi="http://sodipodi.sourceforge.net/DTD/sodipodi-0.dtd"
   xmlns:inkscape="http://www.inkscape.org/namespaces/inkscape"
   width="210mm"
   height="297mm"
   viewBox="0 0 744.09448819 1052.3622047"
   id="svg2"
   version="1.1"
   inkscape:version="0.91 r13725"
   sodipodi:docname="Yellow Sun 01.svg">
  <defs
     id="defs4">
    <filter
       inkscape:collect="always"
       style="color-interpolation-filters:sRGB"
       id="filter4204"
       x="-0.034776983"
       width="1.069554"
       y="-0.037312173"
       height="1.0746243">
      <feGaussianBlur
         inkscape:collect="always"
         stdDeviation="8.5882106"
         id="feGaussianBlur4206" />
    </filter>
    <filter
       inkscape:collect="always"
       style="color-interpolation-filters:sRGB"
       id="filter4216"
       x="-0.035681931"
       width="1.0713639"
       y="-0.03632379"
       height="1.0726476">
      <feGaussianBlur
         inkscape:collect="always"
         stdDeviation="5.4628547"
         id="feGaussianBlur4218" />
    </filter>
  </defs>
  <sodipodi:namedview
     id="base"
     pagecolor="#ffffff"
     bordercolor="#666666"
     borderopacity="1.0"
     inkscape:pageopacity="0.0"
     inkscape:pageshadow="2"
     inkscape:zoom="0.7"
     inkscape:cx="126.7096"
     inkscape:cy="516.89566"
     inkscape:document-units="px"
     inkscape:current-layer="layer1"
     showgrid="false"
     inkscape:window-width="1920"
     inkscape:window-height="1017"
     inkscape:window-x="-8"
     inkscape:window-y="-8"
     inkscape:window-maximized="1" />
  <metadata
     id="metadata7">
    <rdf:RDF>
      <cc:Work
         rdf:about="">
        <dc:format>image/svg+xml</dc:format>
        <dc:type
           rdf:resource="http://purl.org/dc/dcmitype/StillImage" />
        <dc:title></dc:title>
      </cc:Work>
    </rdf:RDF>
  </metadata>
  <g
     inkscape:label="Capa 1"
     inkscape:groupmode="layer"
     id="layer1">
    <g
       id="g4220">
      <path
         inkscape:connector-curvature="0"
         id="path4136"
         d="m 354.93149,389.73703 c -9.77076,10.2414 -14.63122,24.8263 -7.06997,3.51165 -13.28918,-7.32181 -25.03442,30.97474 -36.64302,5.69258 -24.21669,-10.90478 -4.73502,5.45994 8.78015,3.09535 0.12944,-15.3974 -17.74819,-9.82495 -17.06131,-12.22143 -13.84217,-4.24723 -7.40692,17.42873 -19.35628,8.6131 -0.60136,14.41159 -22.78456,12.79651 -29.04607,26.99225 -21.11419,-8.14596 -1.87338,41.80657 -23.28115,33.61227 -2.47225,-2.95958 -6.46482,25.63808 -8.04683,32.71909 -4.23408,8.47496 3.04811,21.48294 -12.22421,24.5985 13.84375,-2.91493 13.4,-2.77935 6.6814,5.92468 27.82778,-6.397 22.67653,44.46616 53.84111,37.81486 29.57279,2.15459 55.88351,15.71105 86.82942,9.63701 22.98785,-4.81694 44.03035,3.42038 43.64738,29.80111 12.81636,22.72398 44.70259,-9.79027 56.96069,19.1856 14.44713,-4.43998 42.16858,23.10133 12.88422,17.30463 -21.93908,-14.6682 -42.54074,10.46645 -29.14834,14.19016 -0.0194,-28.45214 32.7526,-42.13962 34.25211,-71.25264 28.17148,-0.45836 26.17964,-41.24689 52.87742,-42.5777 -5.27576,12.93583 19.7058,-21.45328 15.57053,-30.5801 -25.99842,-14.76637 21.47903,-25.14379 8.57446,-30.13093 -18.27211,8.3547 -17.00304,-13.50555 -21.04356,-16.88068 -23.10095,13.32866 -31.48315,-5.20183 -32.52921,-24.2544 -10.61884,-8.90866 -57.80684,-35.69943 -37.90865,-3.94858 12.41186,16.26128 -16.84713,-19.46871 -22.78309,-25.47766 -11.45293,-11.43416 -32.59143,-10.22289 -46.68307,-20.37398 -14.93063,9.23173 -35.13404,-17.61141 -22.6179,-17.1537 -20.13295,0.0497 -34.00929,-5.5412 -39.94286,-16.35981 -29.2116,-14.36209 6.45934,-52.85446 10.00968,-75.94093 11.8922,-22.95736 18.22498,-61.89531 52.10541,-52.1658 25.50487,-10.32478 24.71632,31.19508 52.87419,20.56331 29.90125,9.73629 47.6399,42.38713 79.09513,48.32556 24.09245,-6.84693 37.02993,5.42189 47.66343,25.70426 26.14186,4.85692 39.84265,20.79322 44.31526,46.07347 24.64471,8.24602 37.01661,26.99439 37.28436,53.34254 3.61912,27.06803 26.77457,44.41565 33.93056,70.35499 14.1113,25.87797 2.23556,50.26646 -11.81966,71.48608 -2.64547,20.44072 34.19875,50.80354 -1.76399,50.12368 -38.49342,-3.14046 -33.05236,37.12532 -54.44264,55.09344 -19.8305,17.93846 -47.37612,24.78971 -65.87675,44.27726 -32.82154,-8.58226 -36.81053,32.13949 -65.52172,40.80131 -26.73705,11.41308 -54.77642,20.77516 -84.11498,20.93458 -39.723,4.73414 -84.10824,9.37693 -117.95497,-16.91585 C 259.57235,738.4935 231.151,726.22762 209.8112,703.6843 c -24.6694,-23.60527 -47.98481,-49.75584 -64.8119,-79.64937 1.35356,-16.99529 9.40619,-31.69533 -10.45407,-36.5801 3.12128,-22.59984 -26.56904,-26.32515 -18.85063,-48.70203 2.13657,-23.00427 -24.701639,-41.98181 -9.76342,-68.23481 3.36657,-24.51434 -0.14144,-49.31485 22.80343,-62.84078 4.40691,-15.6068 -5.57827,-34.9571 17.23852,-39.48552 7.54282,-15.24752 6.48214,-22.58385 26.90665,-23.63516 6.45135,-23.28527 27.42345,-37.17877 50.00825,-42.14126 14.05496,-5.58951 39.95238,12.46737 38.06139,-7.95927 14.4737,17.9836 10.68497,-11.97749 25.0886,-0.78041 20.58348,-15.70335 59.88549,-15.67637 82.02824,-1.24006 27.67268,-12.5911 27.60242,23.07113 15.1666,40.56962 -8.36995,18.89383 -14.23562,41.65185 -28.30137,56.73188 z"
         style="opacity:1;fill:#ffdd55;fill-opacity:1;fill-rule:nonzero;stroke:none;stroke-width:3;stroke-linecap:round;stroke-linejoin:round;stroke-miterlimit:4;stroke-dasharray:none;stroke-dashoffset:0;filter:url(#filter4204)" />
      <path
         inkscape:connector-curvature="0"
         id="path4138"
         d="m 346.4079,325.76799 c -5.8918,4.22556 -4.66781,15.93961 -16.60806,11.27775 -17.75009,4.07579 -33.35823,14.72716 -51.59685,17.57988 -17.57721,1.98708 -22.34076,19.19639 -28.8353,32.53559 -8.50833,15.63201 -28.00161,20.86396 -33.73439,38.96865 -10.20276,13.79842 -0.61903,30.48827 -6.17221,45.22055 -8.04868,15.71884 -10.39108,34.87647 2.05875,49.27935 7.16743,15.45481 -0.89359,34.9586 11.62522,49.34492 13.54916,15.69339 14.48563,40.64361 34.35753,50.61289 17.77437,3.54563 21.77485,31.5657 39.75642,25.65489 16.93945,4.50408 33.6391,11.83831 45.20145,25.48185 16.16162,13.76791 39.15775,12.89705 59.11774,14.93031 24.70565,0.56786 49.20122,-3.21829 73.73617,-5.48794 -0.39813,-23.07924 32.98699,-14.68551 37.65592,-34.56442 7.43081,-13.62253 -1.40422,-34.38336 11.07387,-42.85607 15.54975,0.53448 14.06833,-11.44146 9.65124,-19.67679 5.25841,-6.65967 11.63277,-12.83296 11.73555,-21.99227 3.82249,-19.16789 35.52706,-27.54503 20.64561,-50.56776 -0.96274,-9.88345 -2.41285,-27.12558 2.16451,-33.41418 2.66701,16.72287 0.67477,-22.05064 -6.17083,-27.61409 -11.34605,-10.1836 -21.18585,-22.18394 -19.41309,-38.3385 -5.33394,-20.0627 -22.15138,-33.98715 -39.85387,-42.95217 -5.76235,-5.45874 -9.60521,-14.80555 -19.09011,-13.06625 -15.39441,-3.65543 -16.31721,-29.70436 -37.39343,-22.79623 -13.8876,0.89502 -26.32492,3.21786 -36.64075,-6.23085 -13.53137,5.0921 -29.3054,-3.62076 -34.37897,12.96959 -11.52294,1.29988 -17.84469,-13.39027 -28.89212,-14.2987 z m 223.66588,159.71891 0.16608,1.03856 -0.16608,-1.03856 z"
         style="opacity:1;fill:#ffcc00;fill-opacity:1;fill-rule:nonzero;stroke:none;stroke-width:3;stroke-linecap:round;stroke-linejoin:round;stroke-miterlimit:4;stroke-dasharray:none;stroke-dashoffset:0;filter:url(#filter4216)" />
    </g>
  </g>
</svg>
