<?xml version="1.0" encoding="UTF-8" standalone="no"?>
<!-- Created with Inkscape (http://www.inkscape.org/) -->

<svg
   xmlns:dc="http://purl.org/dc/elements/1.1/"
   xmlns:cc="http://creativecommons.org/ns#"
   xmlns:rdf="http://www.w3.org/1999/02/22-rdf-syntax-ns#"
   xmlns:svg="http://www.w3.org/2000/svg"
   xmlns="http://www.w3.org/2000/svg"
   xmlns:sodipodi="http://sodipodi.sourceforge.net/DTD/sodipodi-0.dtd"
   xmlns:inkscape="http://www.inkscape.org/namespaces/inkscape"
   width="210mm"
   height="297mm"
   viewBox="0 0 744.09448819 1052.3622047"
   id="svg2"
   version="1.1"
   inkscape:version="0.91 r13725"
   sodipodi:docname="Short tree 01.svg">
  <defs
     id="defs4" />
  <sodipodi:namedview
     id="base"
     pagecolor="#ffffff"
     bordercolor="#666666"
     borderopacity="1.0"
     inkscape:pageopacity="0.0"
     inkscape:pageshadow="2"
     inkscape:zoom="0.49497475"
     inkscape:cx="444.09995"
     inkscape:cy="434.40836"
     inkscape:document-units="px"
     inkscape:current-layer="g4439"
     showgrid="false"
     inkscape:window-width="1920"
     inkscape:window-height="1017"
     inkscape:window-x="-8"
     inkscape:window-y="-8"
     inkscape:window-maximized="1">
    <inkscape:grid
       type="xygrid"
       id="grid4147" />
  </sodipodi:namedview>
  <metadata
     id="metadata7">
    <rdf:RDF>
      <cc:Work
         rdf:about="">
        <dc:format>image/svg+xml</dc:format>
        <dc:type
           rdf:resource="http://purl.org/dc/dcmitype/StillImage" />
        <dc:title></dc:title>
      </cc:Work>
    </rdf:RDF>
  </metadata>
  <g
     inkscape:groupmode="layer"
     id="layer2"
     inkscape:label="casa"
     style="display:inline">
    <g
       id="g4439"
       transform="translate(-80.000001,-30)">
      <path
         sodipodi:nodetypes="ccsscccccsssssssc"
         inkscape:connector-curvature="0"
         id="path4173"
         d="m 517.85169,661.01464 c -1.92136,18.2299 -4.25517,36.35876 -6.14813,51.82908 -1.09083,11.02964 -0.20243,16.9481 -2.48109,30.48576 -5.03848,29.93392 -6.31498,42.0198 -4.83702,52.24069 3.39636,23.48765 -0.3629,30.29202 -3.36589,53.65266 -1.73592,23.58493 3.13542,25.75416 -2.77482,49.71556 -27.30406,4.14479 -85.95656,11.6948 -84.86628,-3.9821 0.7709,-8.91111 6.76751,-44.8479 9.11937,-48.62986 3.14783,-18.27163 1.71505,-48.30655 8.74294,-76.7546 6.38351,-21.44651 2.56512,-56.15946 2.5942,-56.53694 0.76887,-9.97766 3.17588,-28.03088 3.93014,-40.66247 0.88847,-14.87932 0.37086,-26.11672 4.43674,-39.13875 5.22196,-16.72468 5.32177,-10.99041 11.92861,-11.27726 11.14366,-0.48382 22.24797,0.0838 33.2755,1.2142 8.74344,0.89626 17.12936,5.76296 25.98148,3.26742 4.63606,-1.30698 4.77808,7.49254 5.2086,8.27234 1.57031,2.84422 1.9375,8.61028 -0.74435,26.30427 z"
         style="opacity:1;fill:#c87137;fill-opacity:1;fill-rule:nonzero;stroke:none;stroke-width:8;stroke-linecap:butt;stroke-linejoin:round;stroke-miterlimit:4;stroke-dasharray:none;stroke-dashoffset:0" />
      <g
         transform="translate(1531.4286,97.142853)"
         id="g4435">
        <path
           style="opacity:1;fill:#abc837;fill-opacity:1;fill-rule:nonzero;stroke:none;stroke-width:8;stroke-linecap:butt;stroke-linejoin:round;stroke-miterlimit:4;stroke-dasharray:none;stroke-dashoffset:0"
           d="m -1077.5597,365.14402 c -10.3537,0.67274 -19.419,15.89258 -28.973,1.40036 -10.5564,-4.31781 -0.3597,9.7088 -9.6827,-3.10649 -5.0153,-10.5904 -2.5823,18.63914 -9.3998,0.43406 2.069,11.47414 21.2957,13.45343 6.5287,2.50857 -0.2993,5.03192 -11.3564,2.83294 -8.3016,11.99887 14.2132,-0.96211 -16.1919,-9.0918 -1.3679,-1.25906 -9.3386,3.49378 -17.7626,-12.94383 -10.047,-3.90666 8.4986,7.97304 8.3684,16.63082 -5.4691,15.77083 2.999,8.21704 3.6219,12.11206 -4.9685,16.76214 19.1107,6.89887 -21.488,2.45995 -3.9457,14.39202 -5.8052,4.17767 16.6215,1.78098 -0.054,7.89057 -11.3149,8.933 2.0895,14.57544 7.7475,19.25299 1.1127,5.74034 1.164,15.9427 -7.6616,12.04498 6.7985,-11.75253 12.1477,9.55855 21.7135,-0.12256 11.8998,0.25047 -6.7226,21.03283 12.3467,16.07158 18.5973,-3.61761 35.522,4.89559 51.9527,11.86976 3.2766,19.88317 19.9112,-1.62713 25.8611,5.62877 -6.012,3.01194 -35.3081,8.63096 -26.3904,9.94372 9.1395,-14.61639 33.1039,-8.86111 44.9525,-13.38515 9.4475,1.50328 -7.6743,12.41937 2.9794,10.59088 -3.1482,-14.66906 8.3234,-17.76864 16.8143,-13.61054 -7.2887,-14.55638 20.2682,-7.55664 19.55137,-21.04816 8.69275,7.09144 6.62145,10.48002 -2.73645,8.06632 1.05389,14.48919 5.14455,7.43374 1.4604,-3.3489 -3.19825,-3.27895 7.51344,-16.84322 2.11421,-9.76597 3.59514,-10.38324 7.61415,-20.68939 4.01118,-31.10268 8.04359,-0.54469 15.87286,-4.53835 8.09809,1.92229 -2.01553,8.95971 5.48294,32.67924 9.81653,12.97893 -2.73838,-11.08999 -17.70526,-11.25343 -13.10033,-22.54073 -15.13226,-3.95359 20.17177,-8.44859 -0.59359,-11.63411 -6.32036,-2.93548 9.59242,-4.34939 1.90592,-9.62554 17.98658,-3.99904 6.22533,6.19688 -2.27558,8.92708 6.4563,7.22662 -6.33403,4.12448 -10.50199,12.06475 10.7219,-4.7297 11.65259,-21.22452 -0.86397,-8.83047 -13.58578,15.76471 -14.26889,-7.16258 -9.49543,-14.84911 -7.67316,-0.39366 -12.23546,17.59726 -2.93742,6.70657 2.50108,-12.48508 -35.41614,-13.89461 -22.22624,-20.80872 -10.2708,4.90524 5.2676,6.71338 -6.6585,0.40503 -8.2308,3.2569 -13.5945,14.48151 -5.7033,0.46572 -11.7004,-0.15993 -25.5329,3.27178 -23.1186,-14.56222 -2.728,-13.70854 -9.8841,8.20541 -11.1433,-5.41729 -0.034,-8.92108 -8.4769,-10.68309 -4.0274,-1.96687 2.4943,-12.20868 5.1609,-4.39791 -1.7947,1.72677 3.848,-8.62334 -8.0983,-1.54031 -9.072,-11.27893 -7.8232,9.1312 -12.4714,-9.16284 -20.1746,0.15823 7.0179,-6.99692 5.4159,-7.50514 -2.3175,-10.11171 14.2009,-1.78825 -16.7893,9.80594 -7.0123,4.39088 0.068,8.53836 1.9699,-18.0349 12.4434,-8.16005 9.9787,-3.60578 18.5227,15.81365 6.7198,9.38975 0.1711,16.64672 -10.8479,-17.00984 -11.1046,0.6709 -6.6228,7.66742 -27.5475,11.36388 -36.4792,8.77726 -0.4151,-11.20122 -7.9475,-11.42637 5.5461,-9.68176 6.049,-2.47549 32.1226,8.5559 18.6858,0.0306 13.3002,-10.01447 32.7732,-17.318 23.6354,-38.68785 -3.3196,-19.3362 -11.4496,-37.39676 -15.7328,-56.49319 -6.0007,1.14593 -17.2504,8.98232 -10.5244,-1.59053 -2.291,-0.6767 4.3274,-2.84639 4.9935,-5.14049 13.3882,7.93004 21.158,-7.81477 36.0193,-9.38861 4.4977,-28.04916 21.2734,7.98702 34.887,-3.00853 13.1121,3.94883 29.8543,1.71972 45.94252,2.24686 14.11552,-3.11006 32.335,0.85823 22.84138,9.24619 -8.7702,-5.79749 -29.3168,-4.64085 -8.7702,-5.79749 15.21101,4.19851 47.29717,-1.45957 54.13378,8.73139 -13.02824,14.62163 12.88242,2.97443 10.6892,8.08791 19.21368,11.02306 13.89756,40.27532 34.08332,46.1123 7.30158,2.11135 -3.97815,27.79672 -1.64994,27.88432 24.33387,3.37086 8.19479,29.58222 14.0959,41.27706 -11.6781,3.22136 7.81736,11.9326 -9.1055,11.6965 -2.95155,2.76126 0.96658,5.86945 1.37361,7.57809 5.81782,0.503 -6.02455,0.68149 4.41886,2.31174 5.44819,12.10596 -0.8058,22.62369 0.88615,38.85105 3.4462,19.04824 -17.4082,26.50772 -28.98703,35.7357 -3.38115,11.32797 -25.45153,10.80937 -21.57845,2.69347 1.41974,17.83089 -11.99978,-1.25252 -20.3259,-3.66137 -22.77072,-17.10604 -44.88505,-35.68377 -63.1742,-57.60438 -2.1387,-6.51365 -5.6339,-21.8043 3.5796,-12.4722 12.39734,-6.20724 18.85944,-20.73397 32.86366,-12.22431 -6.52101,-18.37247 21.46926,5.88838 3.30845,2.11727 -18.07629,-2.31984 -5.46583,21.92975 -17.90112,27.16253 10.87125,-0.39529 9.74146,-8.57484 -0.83669,-5.42494 2.64953,-4.96924 -4.89718,6.05759 -5.05937,-5.91873 3.25335,-4.6482 17.94297,-6.77173 7.02886,-14.64474 9.36849,-3.60276 15.26067,-2.48603 2.44362,-4.84173 -3.2874,-5.53794 15.71139,-4.6162 -1.02546,-5.9253 -12.94691,1.63365 22.30063,-2.68629 2.44008,-3.93133 -7.58871,-1.47427 -10.08934,-7.33547 -0.4166,-7.25254 -7.30382,-4.08474 -12.15143,-6.62448 -4.39488,-15.84473 -10.60262,-8.89977 -23.54425,-21.34999 -10.87331,-31.53492 -15.56964,-0.32421 19.85168,12.42924 4.6402,25.48549 11.48183,-12.14038 -3.06244,-11.98544 -9.55344,-7.85522 -3.8056,-21.40387 14.17851,6.41254 23.96987,-1.4879 6.69905,-3.94035 28.70733,2.54122 16.12859,5.88188 -4.80064,-26.66444 -39.84726,9.75131 -47.25986,-1.34766 3.5825,-12.99029 -4.2156,-10.23332 -9.6247,-3.06841 4.1584,-7.84015 31.9583,8.43 32.32664,-3.73187 -13.28074,11.75849 -33.58454,14.59891 -48.56624,23.8242 -13.7801,2.63019 -34.0086,-14.98415 -43.8127,-3.19758 -19.968,8.18336 -42.1181,1.3156 -63.2152,-2.01398 -12.5896,-7.54428 -30.903,-2.27968 -31.3739,-21.74439 -6.4776,-18.66082 -15.7891,-37.63057 -14.0033,-57.8558 11.1549,-16.30495 39.4576,-19.64889 47.8833,-20.11655 16.4539,-6.67806 9.1636,-2.4317 14.9712,-4.89428 8.4298,-9.93724 16.33,4.96749 27.9778,-0.0106 10.5252,3.83459 18.3767,-8.68983 26.0754,1.99692 1.8581,-0.50605 -2.0827,20.31913 4.2039,4.77788 -0.05,-13.68539 6.272,-8.53559 8.8979,0.4764 7.8049,4.26004 17.2064,-9.97948 9.8733,5.08153 -4.7706,9.18583 11.9971,-15.2475 13.6027,2.58008 -2.3762,13.25852 11.6115,1.99972 8.215,3.56914 10.5393,-0.99379 14.5367,1.18583 17.2634,11.2312 10.44197,4.57828 12.84803,-16.6919 10.48431,2.25139 -4.90341,17.781 10.01841,-6.12262 11.76487,10.89058 -7.60046,10.60518 14.083,5.90995 -3.51069,4.87533 -5.434,-4.43676 9.89068,-9.16648 4.46836,0.36512 3.46242,-5.4132 -12.9316,1.35032 0.25145,-3.62235 11.04918,-15.58871 -1.31186,16.23167 13.23436,3.88598 12.29514,-5.81577 13.14772,13.01781 24.96836,3.04562 5.63,6.39988 -16.41821,24.8922 2.88628,23.56636 9.19593,-8.37025 15.84241,12.86234 4.43896,-1.03291 -8.65131,-6.57117 -10.6025,-18.34561 2.50979,-9.98036 -0.1198,19.56406 16.03196,3.24936 23.0983,6.33618 -5.27035,19.04246 17.88433,15.49687 24.67171,20.22864 2.98067,17.4357 27.04538,31.00124 18.55768,48.88656 1.18948,9.68244 10.83214,12.81362 3.91354,15.90442 0,0 -5.68029,-2.69672 -7.52172,8.59398 -6.38431,13.58554 12.26002,23.75467 13.28444,27.86497 -9.87203,2.24673 9.43212,8.83506 -2.86712,15.01964 1.82908,15.25284 3.04229,33.14574 -8.26575,46.31075 -7.76021,5.92963 3.09513,12.96288 -8.56403,13.65016 -4.5229,16.6756 -15.98243,33.41443 -28.2475,46.36074 -7.61886,3.66673 -30.80465,1.21743 -25.74381,14.58789 21.21002,-5.04265 -12.79262,7.86864 -19.66845,2.98834 0.0443,11.01336 -4.33784,17.8639 -16.55802,14.153 -6.45894,10.79671 -6.2838,7.20145 -14.41839,-1.43789 1.7464,20.99549 -28.25473,18.29505 -41.86893,16.83411 -7.0993,-4.1131 -18.8683,11.22148 -29.5491,1.02131 -18.2936,-3.47208 -39.6984,-11.99134 -56.0451,1.34506 -16.0223,6.68396 -23.1823,-18.51684 -41.5296,-14.60295 -15.9442,-7.29946 -3.7554,10.90733 -11.2512,3.09104 -20.3477,-5.25047 -17.2345,-23.50809 -24.1112,-38.76007 -10.5264,-5.36384 -28.4302,-0.0535 -26.5366,-18.46818 -11.7059,-6.56492 -32.4089,-9.42365 -25.7876,-28.0636 -5.5195,-5.10837 -24.7391,-14.63107 -7.6025,-7.73711 14.9683,-5.3093 -0.6118,-25.32157 -12.9956,-23.81649 -4.5037,-8.88637 18.3219,-19.0892 1.7362,-27.86581 7.6196,-8.4786 -8.4965,5.04506 -3.4163,-8.51002 11.0762,-2.19229 -6.6923,-14.01451 9.7756,-14.92945 -18.7396,6.24333 -5.9067,-6.9281 0.3823,-7.10284 -10.3566,-3.8041 -7.3998,-9.88606 1.9704,-8.81521 -17.9223,-2.24105 8.3565,-1.238 -2.9123,-10.51758 -12.2736,-5.95992 6.3511,-19.77582 -7.1783,-28.85579 -4.2038,-10.96984 15.8215,-13.57751 13.9603,-26.99786 2.5997,-7.33619 1.9063,-18.37347 8.8655,-19.61523 -7.6893,-16.10399 14.1075,-25.41018 27.5151,-19.92205 0.7795,-7.00277 9.3657,-5.2224 2.6604,-13.1759 10.1424,-6.66001 15.6457,-13.2806 23.7248,-19.1757 9.7314,-2.46637 15.3191,-8.10655 26.2762,-2.48449 5.6304,-6.80601 10.9495,-13.58012 15.9274,-9.55631 0.5383,-10.42127 9.7447,2.67895 15.7286,-4.12866 6.1752,8.33994 13.0052,14.91207 22.3062,6.32263 13.2413,11.4725 13.9491,32.70569 19.754,48.92816 3.1993,16.51797 10.5214,34.27999 7.4557,50.82441 z"
           id="path4185"
           inkscape:connector-curvature="0"
           sodipodi:nodetypes="cccccccccccccccccccccccccccccccccccccccccccccccccccccccccccccccccsccccccccccccccccccccccccccccccccccccccccccccccccccccccccccsccccccccccccccccccccccccccccccccccccccc" />
        <path
           style="opacity:1;fill:#89a02c;fill-opacity:1;fill-rule:nonzero;stroke:none;stroke-width:8;stroke-linecap:butt;stroke-linejoin:round;stroke-miterlimit:4;stroke-dasharray:none;stroke-dashoffset:0"
           d="m -1094.9016,408.61791 c 13.7168,0.39944 28.9414,9.2679 38.984,-4.90801 12.7619,0.41412 29.6309,-9.23533 20.1197,-23.26505 -12.0898,-2.42835 -26.8897,15.40479 -36.1988,4.20353 -1.1142,-10.51673 -18.1574,-3.57672 -18.5105,-12.30972 6.7737,10.96799 14.8723,28.26741 30.9494,22.82758 15.4908,-1.5757 31.3353,-2.65043 46.8537,-1.33107 -5.7804,1.68432 -24.905,-5.07727 -34.9908,-1.04165 -5.1338,5.54467 -3.1365,16.20739 0,3.28471 3.8626,-11.49943 1.8893,0.19298 -4.7822,-7.30152 -3.3537,-3.83765 -2.2723,-22.75936 -4.6373,-12.02027 -8.4719,-1.35689 -17.4741,-13.41071 -2.5745,-7.40541 6.0833,2.23936 17.5539,3.31722 6.2764,7.55524 6.7029,16.21346 20.6813,30.22316 36.0505,36.96934 1.3911,5.84833 11.2996,18.83763 2.8869,7.49019 -12.5107,-1.78608 -14.0243,-11.55418 -12.8959,-23.17465 11.7375,11.78448 -13.1726,4.35507 -8.6183,17.15177 -1.6494,10.30092 11.3229,-3.01938 8.5088,9.88312 1.6481,5.93309 -1.7308,19.18346 4.6717,8.58605 13.4609,1.69468 -3.6551,14.4048 -1.9031,2.78839 6.288,-4.29111 19.0289,-4.7339 4.9448,-3.18744 -5.6377,0.66667 -20.8003,2.23037 -6.3174,4.00734 3.7474,2.0133 -0.8215,5.97515 6.215,8.01466 0.5391,11.8312 -9.3033,-10.75851 2.5215,-8.69004 11.4494,1.03589 8.8263,-27.85246 6.7221,-14.71647 -9.104,5.4319 -10.3281,17.01274 -23.3304,17.15147 -2.712,3.74603 5.899,18.70373 -6.3985,11.71416 4.963,5.27771 9.9039,12.1273 -0.2791,4.84877 -3.0269,-2.59807 -13.0969,-0.32482 -6.2256,0.5823 7.0119,9.79005 20.129,-14.97636 32.053,-11.74291 50.23535,-10.80734 30.03532,-2.30041 -6.5296,-1.04854 -10.9281,-0.10942 -23.6955,-3.78369 -22.6743,11.3473 -11.8428,11.3147 -10.2497,-33.40667 -4.4397,-13.69192 10.0594,-0.61752 29.8147,13.97445 32.0299,0.97563 -3.6572,-2.02318 -7.988,13.44082 -9.5002,0.82282 -12.5479,-0.57147 -28.4476,-8.00628 -42.9224,-5.50004 -14.1114,16.64129 -22.4698,6.63348 -22.5959,10.69959 14.2996,6.11567 35.4991,-3.68194 44.5913,11.19262 1.1596,13.03266 22.7357,18.8723 25.3317,5.91625 -6.817,-2.90774 -28.4802,9.61845 -18.5066,-7.14159 10.92,-17.39759 -17.1742,-13.73634 -23.1917,-25.54597 -6.3683,3.38677 -24.2773,-4.96697 -24.5742,-4.01965 12.6907,2.32426 16.8455,23.97165 17.2263,29.01096 -3.0074,-8.53319 -11.5677,-11.46867 -7.0107,-16.31255 1.6985,-32.08748 -1.8772,8.45424 1.1189,8.89404 9.5828,0.8962 7.1406,2.89089 -0.2021,-0.1567 -0.064,-5.68634 1.4912,-24.03896 -4.8944,-10.44749 -2.7261,7.03547 16.6331,-2.95044 0.3723,2.5121 -2.8707,13.37615 19.8022,24.08972 19.0622,5.7362 5.4308,-0.69212 9.3503,4.78281 3.1433,6.95714 -4.721,8.54699 17.9982,15.60011 2.6811,7.96334 -12.8943,-7.24266 -28.8732,-10.00661 -40.724,-18.03146 -4.0543,-5.06053 -3.67,23.05289 2.7617,9.49695 10.4616,-14.7962 26.1599,5.09165 41.3999,-0.45616 14.824,3.97619 19.8456,-15.13658 34.1473,-10.2293 -2.8674,-2.86163 -13.9846,2.34531 -11.4981,-8.31717 0.576,-12.88012 -11.9445,-41.49113 -22.1518,-17.56506 -7.8322,8.48499 -10.402,36.79707 -23.752,32.04723 -2.989,-9.34961 -1.8625,-18.66018 -13.4692,-15.65777 -7.2153,-31.44362 -11.904,-8.10037 -8.9046,-17.97218 3.0538,-7.38032 15.4322,-11.19237 10.5019,-18.82337 2.9418,-9.65558 7.7018,-4.49226 4.8637,1.53929 -4.8783,-4.67223 -23.959,-17.30593 -12.604,-2.06094 4.0289,10.33314 7.3037,-6.81139 1.4338,0.8365 -10.1611,0.007 -5.7131,-14.9299 -0.5893,-3.40052 -7.2288,-4.25583 -11.7929,1.77481 -6.7513,9.65558 -4.3651,-7.23596 -9.3685,-22.56904 -8.5615,-7.26108 5.3449,33.04862 18.1436,64.46393 30.459,95.44557 3.7858,9.7714 13.8338,34.63375 24.4786,21.79172 4.0806,-1.39589 9.6537,8.19842 4.9301,-1.73259 -8.9675,-12.90001 9.4279,-3.57952 13.4127,0.25455 1.087,-7.83583 7.5021,-5.47443 14.7395,-5.10498 -3.7573,-12.02175 22.75492,-6.89518 7.5461,-18.51835 5.5704,-0.158 15.35475,15.67597 21.9495,1.87106 3.08154,-7.77394 15.26198,-19.39536 4.66757,-11.60378 2.10012,-34.09863 19.98734,-51.15945 16.69839,-53.1968 -11.83845,-2.36743 18.67623,-15.048 1.15902,-22.61903 -13.18044,-9.89811 -2.30378,-30.58292 -17.21103,-41.17514 -4.18574,-6.23074 -7.92076,-11.03954 -1.17802,-1.87709 7.05665,7.51101 -4.89706,-12.00971 -6.54391,-15.16772 -6.85602,-11.71565 -26.21402,-8.06881 -32.22622,-18.57578 18.4422,0.73304 -20.3493,-0.54828 -25.8131,-2.13984 -12.9547,-3.00896 -26.5211,-3.59875 -31.778,11.08229 -2.2958,7.30345 -4.8857,-18.32771 7.1726,-13.5836 12.5416,2.28553 36.0198,1.9094 41.1227,12.28485 -6.4478,11.45592 4.1614,-10.4407 -5.2243,-1.62786 -9.2018,5.98803 -20.0323,-10.47142 -31.7219,-9.51956 -13.4824,-0.0441 -31.9659,-17.3191 -42.067,-5.26646 -1.3527,9.97799 -1.0522,20.02097 -13.4769,12.42124 -9.3071,-0.92364 -38.1177,0.39795 -45.5077,6.91396 -5.2426,4.62253 -7.347,14.12054 -11.1791,18.9412 -3.0967,14.59855 -2.4367,22.84002 -4.9901,35.51922 3.1882,12.50949 -22.2484,28.24601 -7.1585,34.29004 -6.7578,10.05866 -22.1536,22.72289 -5.2026,31.8374 -0.3919,12.64401 2.3685,25.83706 15.8506,32.49236 2.9213,8.90324 -20.7534,4.31377 -3.278,4.19991 18.5848,1.06531 -8.0581,-6.16875 -1.3089,4.48088 5.3268,19.4177 23.1718,29.94847 39.1615,39.73089 13.8106,-4.18874 6.9631,17.58975 20.7378,17.746 -9.3123,-5.73742 1.777,-13.03766 -1.0846,-12.42953 -11.5587,-11.23371 14.1588,-0.0606 12.5976,8.55679 4.1959,16.85381 17.6632,27.32451 34.5955,18.71367 13.6317,-2.92907 31.8562,-7.18277 33.7834,11.87715 9.9349,-4.75993 -15.472,-10.09318 -20.8578,-13.43401 -11.9459,-4.85591 1.3699,19.15163 3.354,6.00107 4.6291,-15.34976 20.4507,0.7075 19.4998,2.17531 14.3369,-3.75753 31.6208,-14.2219 45.4676,-4.73895 4.1676,9.95731 17.12387,9.86929 11.20862,-2.83976 -6.224,-14.26327 3.68443,-10.75307 10.26425,-7.34618 3.82268,13.73117 -23.04257,0.66263 -33.32647,1.70471 -9.2503,-4.93677 -7.1597,5.24582 -11.3125,6.06313 2.0377,-9.44356 1.2972,3.64952 8.1534,-1.26172 23.40319,-3.87613 46.88773,-7.41822 69.40094,-15.08456 16.88935,-1.6429 -4.82644,-22.65294 13.36639,-26.32577 9.7801,-4.31157 15.17672,-10.21662 13.57246,-20.69952 4.67056,-7.02104 20.01539,1.2304 4.88258,-2.75409 -19.2363,-4.1797 8.20969,9.30562 -2.75051,12.56512 0.25744,-16.17159 26.8967,-25.43457 18.58261,-42.54766 -4.05143,-8.92198 15.16851,-17.93421 -0.53461,-19.2644 -4.11957,-4.4546 9.28466,-6.36771 2.86081,-13.9314 9.17828,-11.6121 -8.22403,-24.89487 4.77124,-35.38196 -9.01999,-2.90163 -7.11796,-28.0368 -15.80057,-15.40287 -0.17765,-13.80812 9.38657,-2.82411 2.84904,0.93651 -12.47454,-10.41567 10.24936,-28.16923 -11.14441,-32.98608 10.72631,-4.67493 5.60858,-18.61772 -4.5875,-14.40567 -5.88176,15.75851 7.43837,-17.26899 -5.59386,-5.36052 -0.49019,-15.83346 -11.0227,-25.84061 -22.42868,-35.38854 -5.05109,-2.96986 -7.80022,-19.56759 -7.92614,-4.93414 -0.006,14.8393 16.98244,16.54366 23.66753,28.46962 14.1364,12.59421 -28.17157,7.81858 -4.46108,2.97713 4.05497,-9.60346 -2.96838,-18.49736 -5.35902,-13.02133 -2.76298,-10.30106 -19.99324,-17.53498 -15.88603,-32.57319 -3.01244,-11.22812 -17.84886,5.62267 -20.40179,-9.91332 -6.86836,-8.13873 -19.6626,-5.40157 -7.58999,3.64829 -8.63155,-14.43033 -21.49311,-19.78263 -37.43761,-13.83304 -4.9951,1.2906 -27.467,3.444 -22.6896,-0.62569 10.3297,-0.20203 24.303,11.36435 32.015,2.12049 10.5229,21.05737 21.01105,22.3012 4.8021,0.33306 -11.4614,-10.67989 -29.7434,0.33971 -44.0885,-1.49378 -31.8818,-13.91861 -53.2424,17.97137 -69.3589,3.57542 -16.685,-4.28858 -18.9081,26.45147 -38.0972,19.30898 -5.1394,2.89889 -10.9654,25.10006 -1.8703,33.11943 -27.3682,9.23615 39.6485,58.68876 64.2893,83.9533 4.0374,1.83516 4.4864,5.10471 7.6703,4.35545 z"
           id="path4187"
           inkscape:connector-curvature="0"
           sodipodi:nodetypes="cccccccccccccccccccccccccccccccccccccccccccccccccccccccccccccccccccccccccccccccccccccccccscccccccccccccccccccccccccccccccccccccccccccccccccccccc" />
      </g>
    </g>
  </g>
</svg>
