<svg xmlns="http://www.w3.org/2000/svg" width="210mm" height="297mm" viewBox="0 0 744.094 1052.362">
  <path d="M1039.998 170.882c-10.354.673-19.42 15.893-28.973 1.4-10.557-4.317-.36 9.71-9.683-3.106-5.015-10.59-2.582 18.64-9.4.434 2.07 11.475 21.296 13.454 6.529 2.509-.3 5.032-11.357 2.833-8.302 11.999 14.213-.962-16.192-9.092-1.368-1.26-9.338 3.495-17.762-12.943-10.047-3.906 8.499 7.973 8.369 16.63-5.469 15.771 3 8.217 3.622 12.112-4.968 16.762 19.11 6.899-21.488 2.46-3.946 14.392-5.805 4.178 16.621 1.781-.054 7.89-11.315 8.934 2.09 14.576 7.747 19.254 1.113 5.74 1.164 15.942-7.661 12.045 6.798-11.753 12.148 9.558 21.713-.123 11.9.25-6.722 21.033 12.347 16.072 18.597-3.618 35.522 4.895 51.953 11.87 3.276 19.883 19.911-1.628 25.86 5.628-6.011 3.012-35.307 8.631-26.39 9.944 9.14-14.616 33.104-8.861 44.953-13.385 9.448 1.503-7.674 12.42 2.98 10.59-3.149-14.668 8.323-17.768 16.814-13.61-7.289-14.556 20.268-7.557 19.551-21.048 8.693 7.091 6.622 10.48-2.736 8.066 1.054 14.49 5.144 7.434 1.46-3.349-3.198-3.279 7.514-16.843 2.114-9.766 3.595-10.383 7.614-20.689 4.011-31.102 8.044-.545 15.873-4.539 8.099 1.922-2.016 8.96 5.482 32.68 9.816 12.979-2.738-11.09-17.705-11.253-13.1-22.54-15.133-3.954 20.171-8.45-.594-11.635-6.32-2.935 9.592-4.35 1.906-9.625 17.987-4 6.225 6.196-2.276 8.927 6.457 7.226-6.334 4.124-10.502 12.064 10.722-4.73 11.653-21.224-.864-8.83-13.585 15.765-14.268-7.163-9.495-14.85-7.673-.393-12.235 17.598-2.937 6.707 2.5-12.485-35.417-13.894-22.227-20.808-10.27 4.905 5.268 6.713-6.658.405-8.23 3.257-13.595 14.481-5.703.465-11.7-.16-25.533 3.272-23.119-14.562-2.728-13.708-9.884 8.206-11.143-5.417-.034-8.921-8.477-10.683-4.028-1.967 2.495-12.209 5.161-4.398-1.794 1.727 3.848-8.624-8.099-1.54-9.072-11.28-7.824 9.132-12.472-9.162-20.175.16 7.018-6.998 5.416-7.506-2.317-10.113 14.2-1.788-16.79 9.806-7.013 4.391.068 8.539 1.97-18.035 12.444-8.16 9.978-3.606 18.522 15.814 6.72 9.39.17 16.647-10.848-17.01-11.105.67-6.623 7.668-27.548 11.365-36.48 8.778-.415-11.201-7.947-11.426 5.547-9.682 6.049-2.475 32.122 8.556 18.686.031 13.3-10.014 32.773-17.318 23.635-38.688-3.32-19.336-11.45-37.397-15.733-56.493-6 1.146-17.25 8.982-10.524-1.59-2.291-.677 4.327-2.847 4.993-5.141 13.388 7.93 21.158-7.815 36.02-9.389 4.497-28.049 21.273 7.987 34.887-3.008 13.112 3.949 29.854 1.72 45.942 2.247 14.116-3.11 32.335.858 22.841 9.246-8.77-5.798-29.316-4.641-8.77-5.798 15.211 4.199 47.297-1.46 54.134 8.732-13.028 14.621 12.882 2.974 10.69 8.088 19.213 11.023 13.897 40.275 34.083 46.112 7.301 2.111-3.979 27.797-1.65 27.884 24.333 3.371 8.194 29.582 14.096 41.277-11.679 3.222 7.817 11.933-9.106 11.697-2.952 2.761.967 5.87 1.374 7.578 5.817.503-6.025.681 4.418 2.312 5.449 12.106-.805 22.623.887 38.85 3.446 19.049-17.409 26.508-28.987 35.736-3.382 11.328-25.452 10.81-21.579 2.694 1.42 17.83-12-1.253-20.326-3.662-22.77-17.106-44.885-35.683-63.174-57.604-2.139-6.514-5.634-21.804 3.58-12.472 12.397-6.207 18.859-20.734 32.863-12.224-6.52-18.373 21.47 5.888 3.309 2.117-18.077-2.32-5.466 21.93-17.901 27.162 10.87-.395 9.741-8.574-.837-5.425 2.65-4.969-4.897 6.058-5.06-5.918 3.254-4.648 17.944-6.772 7.03-14.645 9.368-3.603 15.26-2.486 2.443-4.842-3.287-5.538 15.711-4.616-1.026-5.925-12.946 1.634 22.301-2.686 2.44-3.931-7.588-1.475-10.089-7.336-.416-7.253-7.304-4.085-12.151-6.624-4.395-15.845-10.602-8.9-23.544-21.35-10.873-31.535-15.57-.324 19.852 12.43 4.64 25.486 11.482-12.14-3.062-11.986-9.553-7.855-3.806-21.404 14.178 6.412 23.97-1.488 6.699-3.94 28.707 2.541 16.128 5.882-4.8-26.665-39.847 9.751-47.26-1.348 3.583-12.99-4.215-10.233-9.624-3.068 4.158-7.84 31.958 8.43 32.326-3.732-13.28 11.758-33.584 14.599-48.566 23.824-13.78 2.63-34.009-14.984-43.813-3.198-19.968 8.184-42.118 1.316-63.215-2.014-12.59-7.544-30.903-2.28-31.374-21.744-6.478-18.66-15.789-37.63-14.003-57.856 11.155-16.305 39.457-19.649 47.883-20.116 16.454-6.678 9.164-2.432 14.971-4.895 8.43-9.937 16.33 4.968 27.978-.01 10.525 3.834 18.377-8.69 26.076 1.997 1.858-.506-2.083 20.319 4.203 4.778-.05-13.686 6.272-8.536 8.898.476 7.805 4.26 17.207-9.98 9.874 5.082-4.771 9.185 11.997-15.248 13.602 2.58-2.376 13.258 11.612 2 8.215 3.569 10.54-.994 14.537 1.186 17.264 11.23 10.442 4.58 12.848-16.691 10.484 2.252-4.903 17.781 10.018-6.122 11.765 10.89-7.6 10.606 14.083 5.91-3.51 4.876-5.435-4.437 9.89-9.166 4.467.365 3.463-5.413-12.931 1.35.252-3.622 11.05-15.589-1.312 16.232 13.234 3.886 12.296-5.816 13.148 13.018 24.969 3.046 5.63 6.4-16.418 24.892 2.886 23.566 9.196-8.37 15.842 12.862 4.439-1.033-8.651-6.571-10.602-18.346 2.51-9.98-.12 19.564 16.032 3.249 23.098 6.336-5.27 19.042 17.884 15.497 24.672 20.229 2.98 17.435 27.045 31 18.557 48.886 1.19 9.683 10.833 12.814 3.914 15.904 0 0-5.68-2.696-7.522 8.594-6.384 13.586 12.26 23.755 13.285 27.865-9.872 2.247 9.432 8.835-2.867 15.02 1.829 15.253 3.042 33.146-8.266 46.31-7.76 5.93 3.095 12.964-8.564 13.651-4.523 16.676-15.983 33.414-28.248 46.36-7.619 3.667-30.804 1.218-25.743 14.589 21.21-5.043-12.793 7.868-19.669 2.988.044 11.013-4.338 17.864-16.558 14.153-6.459 10.797-6.284 7.201-14.418-1.438 1.746 20.996-28.255 18.295-41.87 16.834-7.099-4.113-18.868 11.222-29.548 1.021-18.294-3.472-39.699-11.99-56.045 1.346-16.023 6.684-23.183-18.517-41.53-14.603-15.944-7.3-3.756 10.907-11.251 3.09-20.348-5.25-17.235-23.507-24.112-38.76-10.526-5.363-28.43-.053-26.536-18.468-11.706-6.565-32.409-9.423-25.788-28.063-5.52-5.109-24.739-14.631-7.602-7.737 14.968-5.31-.612-25.322-12.996-23.817-4.504-8.886 18.322-19.089 1.736-27.866 7.62-8.478-8.496 5.045-3.416-8.51 11.076-2.192-6.692-14.014 9.776-14.93-18.74 6.244-5.907-6.927.382-7.102-10.357-3.804-7.4-9.886 1.97-8.815-17.922-2.241 8.357-1.238-2.912-10.518-12.274-5.96 6.351-19.776-7.178-28.856-4.204-10.97 15.821-13.577 13.96-26.997 2.6-7.337 1.906-18.374 8.866-19.616-7.69-16.104 14.107-25.41 27.515-19.922.78-7.002 9.365-5.222 2.66-13.176 10.142-6.66 15.646-13.28 23.725-19.175 9.731-2.467 15.319-8.107 26.276-2.485 5.63-6.806 10.95-13.58 15.927-9.556.539-10.421 9.745 2.679 15.73-4.129 6.174 8.34 13.004 14.912 22.305 6.323 13.242 11.472 13.95 32.706 19.754 48.928 3.2 16.518 10.522 34.28 7.456 50.824z" style="opacity:1;fill:#abc837;fill-opacity:1;fill-rule:nonzero;stroke:none;stroke-width:8;stroke-linecap:butt;stroke-linejoin:round;stroke-miterlimit:4;stroke-dasharray:none;stroke-dashoffset:0" transform="matrix(-.93708 0 0 -.93708 1450.203 697.315)"/>
  <path d="M1022.656 214.356c13.717.4 28.941 9.268 38.984-4.908 12.762.414 29.63-9.235 20.12-23.265-12.09-2.428-26.89 15.405-36.2 4.204-1.114-10.517-18.157-3.577-18.51-12.31 6.774 10.968 14.872 28.268 30.95 22.828 15.49-1.576 31.335-2.65 46.853-1.331-5.78 1.684-24.905-5.078-34.99-1.042-5.134 5.545-3.137 16.207 0 3.285 3.862-11.5 1.889.193-4.783-7.302-3.354-3.837-2.272-22.76-4.637-12.02-8.472-1.357-17.474-13.41-2.575-7.406 6.084 2.24 17.554 3.318 6.277 7.556 6.703 16.213 20.681 30.223 36.05 36.97 1.391 5.847 11.3 18.837 2.887 7.49-12.51-1.787-14.024-11.555-12.896-23.175 11.738 11.784-13.172 4.355-8.618 17.151-1.65 10.301 11.323-3.019 8.509 9.883 1.648 5.934-1.731 19.184 4.671 8.587 13.461 1.694-3.655 14.404-1.903 2.788 6.288-4.291 19.03-4.734 4.945-3.188-5.638.667-20.8 2.23-6.317 4.008 3.747 2.013-.822 5.975 6.215 8.014.539 11.832-9.304-10.758 2.521-8.69 11.45 1.036 8.827-27.852 6.722-14.716-9.104 5.432-10.328 17.013-23.33 17.151-2.712 3.746 5.899 18.704-6.399 11.715 4.963 5.277 9.904 12.127-.279 4.848-3.027-2.598-13.097-.324-6.225.583 7.012 9.79 20.129-14.977 32.053-11.743 50.235-10.808 30.035-2.3-6.53-1.049-10.928-.11-23.695-3.783-22.674 11.348-11.843 11.314-10.25-33.407-4.44-13.692 10.06-.618 29.815 13.974 32.03.975-3.657-2.023-7.988 13.441-9.5.823-12.548-.571-28.448-8.006-42.922-5.5-14.112 16.641-22.47 6.634-22.596 10.7 14.3 6.115 35.499-3.682 44.59 11.192 1.16 13.033 22.737 18.873 25.333 5.916-6.817-2.907-28.48 9.619-18.507-7.141 10.92-17.398-17.174-13.736-23.192-25.546-6.368 3.387-24.277-4.967-24.574-4.02 12.69 2.325 16.846 23.972 17.226 29.011-3.007-8.533-11.567-11.468-7.01-16.312 1.698-32.088-1.877 8.454 1.119 8.894 9.582.896 7.14 2.89-.203-.157-.064-5.686 1.492-24.039-4.894-10.447-2.726 7.035 16.633-2.95.372 2.512-2.87 13.376 19.803 24.09 19.063 5.736 5.43-.692 9.35 4.783 3.143 6.957-4.721 8.547 17.998 15.6 2.681 7.963-12.894-7.242-28.873-10.006-40.724-18.031-4.054-5.06-3.67 23.053 2.762 9.497 10.461-14.796 26.16 5.091 41.4-.456 14.824 3.976 19.845-15.137 34.147-10.23-2.867-2.861-13.985 2.346-11.498-8.317.576-12.88-11.945-41.491-22.152-17.565-7.832 8.485-10.402 36.797-23.752 32.047-2.989-9.35-1.863-18.66-13.47-15.657-7.214-31.444-11.903-8.1-8.904-17.973 3.054-7.38 15.432-11.192 10.502-18.823 2.942-9.656 7.702-4.492 4.864 1.54-4.878-4.673-23.96-17.307-12.604-2.062 4.029 10.334 7.304-6.811 1.434.837-10.161.007-5.713-14.93-.59-3.4-7.228-4.256-11.793 1.774-6.751 9.655-4.365-7.236-9.368-22.57-8.561-7.261 5.344 33.048 18.143 64.464 30.459 95.445 3.785 9.772 13.833 34.634 24.478 21.792 4.08-1.396 9.654 8.199 4.93-1.732-8.967-12.9 9.428-3.58 13.413.254 1.087-7.836 7.502-5.474 14.74-5.105-3.758-12.022 22.754-6.895 7.546-18.518 5.57-.158 15.354 15.676 21.949 1.87 3.082-7.773 15.262-19.395 4.668-11.603 2.1-34.099 19.987-51.16 16.698-53.197-11.838-2.367 18.676-15.048 1.159-22.619-13.18-9.898-2.304-30.583-17.211-41.175-4.186-6.23-7.92-11.04-1.178-1.877 7.057 7.511-4.897-12.01-6.544-15.168-6.856-11.715-26.214-8.069-32.226-18.576 18.442.734-20.35-.548-25.813-2.14-12.955-3.008-26.521-3.598-31.778 11.083-2.296 7.303-4.886-18.328 7.172-13.584 12.542 2.286 36.02 1.91 41.123 12.285-6.448 11.456 4.161-10.44-5.224-1.628-9.202 5.988-20.033-10.471-31.722-9.52-13.483-.043-31.966-17.318-42.067-5.266-1.353 9.978-1.052 20.021-13.477 12.422-9.307-.924-38.118.398-45.508 6.914-5.242 4.622-7.347 14.12-11.179 18.94-3.097 14.6-2.437 22.84-4.99 35.52 3.188 12.51-22.248 28.246-7.159 34.29-6.757 10.059-22.153 22.723-5.202 31.837-.392 12.644 2.368 25.837 15.85 32.493 2.922 8.903-20.753 4.314-3.278 4.2 18.585 1.065-8.058-6.17-1.308 4.48 5.326 19.418 23.171 29.949 39.161 39.731 13.81-4.188 6.963 17.59 20.738 17.746-9.312-5.737 1.777-13.037-1.085-12.43-11.558-11.233 14.16-.06 12.598 8.558 4.196 16.853 17.663 27.324 34.595 18.713 13.632-2.929 31.857-7.182 33.784 11.877 9.935-4.76-15.472-10.093-20.858-13.434-11.946-4.855 1.37 19.152 3.354 6.002 4.63-15.35 20.45.707 19.5 2.175 14.337-3.758 31.62-14.222 45.467-4.74 4.168 9.958 17.124 9.87 11.209-2.839-6.224-14.263 3.684-10.753 10.264-7.346 3.823 13.731-23.042.663-33.326 1.705-9.25-4.937-7.16 5.246-11.313 6.063 2.038-9.444 1.298 3.65 8.154-1.262 23.403-3.876 46.887-7.418 69.4-15.084 16.89-1.643-4.826-22.653 13.367-26.326 9.78-4.312 15.177-10.217 13.573-20.7 4.67-7.02 20.015 1.23 4.882-2.754-19.236-4.18 8.21 9.306-2.75 12.565.257-16.171 26.896-25.434 18.582-42.547-4.051-8.922 15.169-17.935-.534-19.265-4.12-4.454 9.284-6.367 2.86-13.931 9.179-11.612-8.224-24.895 4.772-35.382-9.02-2.902-7.118-28.037-15.801-15.403-.178-13.808 9.387-2.824 2.85.936-12.476-10.415 10.248-28.169-11.145-32.986 10.726-4.675 5.608-18.617-4.588-14.405-5.882 15.758 7.438-17.27-5.594-5.36-.49-15.834-11.022-25.841-22.428-35.39-5.051-2.97-7.8-19.567-7.926-4.933-.01 14.839 16.982 16.543 23.667 28.47 14.136 12.593-28.172 7.818-4.461 2.976 4.055-9.603-2.968-18.497-5.36-13.021-2.762-10.301-19.992-17.535-15.885-32.573-3.013-11.228-17.849 5.622-20.402-9.914-6.868-8.138-19.662-5.401-7.59 3.649-8.631-14.43-21.493-19.783-37.437-13.833-4.996 1.29-27.467 3.444-22.69-.626 10.33-.202 24.303 11.364 32.015 2.12 10.523 21.058 21.01 22.302 4.802.334-11.461-10.68-29.743.34-44.088-1.494-31.882-13.919-53.243 17.971-69.36 3.575-16.684-4.288-18.908 26.452-38.097 19.31-5.139 2.898-10.965 25.1-1.87 33.119-27.368 9.236 39.649 58.688 64.29 83.953 4.037 1.835 4.486 5.105 7.67 4.355z" style="opacity:1;fill:#89a02c;fill-opacity:1;fill-rule:nonzero;stroke:none;stroke-width:8;stroke-linecap:butt;stroke-linejoin:round;stroke-miterlimit:4;stroke-dasharray:none;stroke-dashoffset:0" transform="matrix(-.93708 0 0 -.93708 1450.203 697.315)"/>
  <path style="opacity:1;fill:#abc837;fill-opacity:1;fill-rule:nonzero;stroke:none;stroke-width:8;stroke-linecap:butt;stroke-linejoin:round;stroke-miterlimit:4;stroke-dasharray:none;stroke-dashoffset:0" d="M283.106 535.643c-6.483.421-12.16 9.951-18.142.877-6.61-2.704-.225 6.08-6.063-1.945-3.14-6.632-1.617 11.67-5.886.271 1.296 7.185 13.335 8.425 4.088 1.571-.187 3.151-7.111 1.774-5.198 7.514 8.9-.603-10.14-5.694-.857-.789-5.847 2.188-11.122-8.105-6.29-2.446 5.32 4.992 5.24 10.414-3.426 9.875 1.878 5.146 2.268 7.585-3.11 10.496 11.966 4.32-13.456 1.54-2.471 9.012-3.636 2.616 10.408 1.116-.034 4.941-7.085 5.594 1.308 9.127 4.851 12.056.697 3.595.729 9.983-4.797 7.542 4.257-7.359 7.606 5.986 13.596-.076 7.451.157-4.21 13.17 7.731 10.063 11.646-2.265 22.243 3.066 32.532 7.433 2.052 12.45 12.468-1.019 16.194 3.525-3.765 1.886-22.11 5.404-16.525 6.226 5.723-9.152 20.729-5.548 28.148-8.381 5.916.941-4.806 7.776 1.866 6.631-1.972-9.185 5.211-11.126 10.528-8.522-4.564-9.115 12.692-4.732 12.243-13.18 5.443 4.44 4.146 6.562-1.714 5.05.66 9.074 3.222 4.656.915-2.096-2.003-2.053 4.705-10.547 1.324-6.115 2.251-6.502 4.768-12.956 2.512-19.476 5.036-.341 9.939-2.842 5.07 1.203-1.262 5.61 3.434 20.464 6.147 8.128-1.714-6.945-11.086-7.047-8.203-14.115-9.475-2.476 12.631-5.29-.372-7.285-3.957-1.838 6.007-2.724 1.194-6.027 11.263-2.504 3.898 3.88-1.425 5.59 4.043 4.525-3.966 2.582-6.576 7.554 6.714-2.961 7.296-13.29-.541-5.53-8.507 9.872-8.935-4.484-5.946-9.297-4.805-.247-7.662 11.019-1.84 4.2 1.567-7.819-22.176-8.701-13.917-13.03-6.431 3.07 3.299 4.203-4.17.253-5.153 2.04-8.512 9.068-3.57.291-7.327-.1-15.989 2.05-14.477-9.118-1.708-8.584-6.19 5.138-6.978-3.392-.021-5.587-5.308-6.69-2.522-1.232 1.562-7.645 3.232-2.754-1.123 1.081 2.41-5.4-5.071-.964-5.681-7.062-4.899 5.717-7.81-5.738-12.633.099 4.394-4.382 3.391-4.7-1.451-6.332 8.892-1.12-10.513 6.14-4.391 2.75.042 5.346 1.233-11.294 7.792-5.11 6.248-2.258 11.598 9.902 4.207 5.88.108 10.423-6.792-10.652-6.953.42-4.147 4.8-17.25 7.115-22.843 5.496-.26-7.014-4.976-7.155 3.473-6.063 3.788-1.55 20.115 5.358 11.7.02 8.33-6.271 20.523-10.845 14.8-24.226-2.078-12.108-7.169-23.417-9.85-35.375-3.758.718-10.802 5.625-6.59-.996-1.435-.424 2.709-1.782 3.126-3.219 8.383 4.966 13.249-4.893 22.555-5.879 2.816-17.564 13.32 5.002 21.845-1.884 8.21 2.473 18.694 1.077 28.768 1.407 8.84-1.947 20.248.538 14.303 5.79-5.492-3.63-18.357-2.906-5.492-3.63 9.525 2.629 29.617-.914 33.898 5.467-8.158 9.156 8.067 1.863 6.693 5.065 12.031 6.902 8.703 25.22 21.343 28.874 4.572 1.322-2.492 17.406-1.034 17.46 15.238 2.112 5.132 18.525 8.827 25.848-7.313 2.017 4.895 7.472-5.702 7.324-1.848 1.729.606 3.675.86 4.745 3.643.315-3.772.427 2.767 1.448 3.412 7.58-.504 14.166.555 24.327 2.158 11.928-10.9 16.599-18.15 22.377-2.118 7.094-15.938 6.769-13.513 1.687.89 11.165-7.514-.784-12.727-2.293-14.259-10.711-28.107-22.344-39.559-36.07-1.339-4.08-3.528-13.654 2.242-7.81 7.763-3.887 11.809-12.984 20.578-7.655-4.083-11.504 13.444 3.687 2.072 1.326-11.32-1.453-3.423 13.732-11.21 17.008 6.808-.247 6.1-5.369-.523-3.397 1.659-3.111-3.067 3.794-3.168-3.706 2.037-2.91 11.235-4.24 4.4-9.17 5.867-2.256 9.557-1.557 1.531-3.032-2.058-3.467 9.838-2.89-.642-3.71-8.107 1.023 13.964-1.682 1.528-2.462-4.752-.923-6.318-4.593-.261-4.541-4.574-2.558-7.609-4.148-2.752-9.922-6.64-5.573-14.743-13.369-6.809-19.746-9.749-.203 12.431 7.783 2.906 15.958 7.19-7.602-1.918-7.505-5.982-4.919-2.383-13.402 8.878 4.016 15.01-.931 4.194-2.468 17.975 1.591 10.099 3.683-3.006-16.697-24.952 6.106-29.594-.844 2.244-8.134-2.64-6.408-6.026-1.921 2.604-4.91 20.011 5.278 20.242-2.337-8.316 7.363-21.03 9.141-30.411 14.918-8.629 1.647-21.296-9.383-27.435-2.002-12.503 5.124-26.373.824-39.584-1.261-7.883-4.724-19.35-1.428-19.646-13.616-4.056-11.685-9.886-23.564-8.768-36.228 6.985-10.21 24.707-12.304 29.983-12.597 10.303-4.182 5.738-1.523 9.375-3.065 5.279-6.222 10.226 3.11 17.52-.006 6.59 2.401 11.506-5.441 16.327 1.25 1.164-.316-1.304 12.724 2.632 2.993-.03-8.57 3.928-5.345 5.572.298 4.887 2.667 10.774-6.25 6.183 3.182-2.988 5.752 7.512-9.548 8.517 1.615-1.488 8.303 7.271 1.253 5.144 2.235 6.6-.622 9.103.743 10.81 7.033 6.539 2.867 8.046-10.452 6.565 1.41-3.07 11.134 6.274-3.834 7.367 6.82-4.759 6.64 8.819 3.7-2.198 3.052-3.403-2.778 6.193-5.74 2.798.229 2.168-3.39-8.097.845.157-2.268 6.92-9.762-.821 10.163 8.288 2.433 7.698-3.642 8.232 8.151 15.634 1.907 3.526 4.007-10.28 15.587 1.808 14.757 5.758-5.242 9.92 8.054 2.78-.647-5.418-4.115-6.64-11.488 1.57-6.25-.074 12.251 10.04 2.035 14.464 3.968-3.3 11.924 11.2 9.704 15.45 12.667 1.866 10.918 16.935 19.412 11.62 30.612.745 6.062 6.783 8.023 2.45 9.959 0 0-3.557-1.69-4.71 5.38-3.997 8.508 7.677 14.876 8.319 17.45-6.182 1.406 5.906 5.532-1.796 9.404 1.146 9.551 1.905 20.756-5.175 29-4.86 3.712 1.938 8.116-5.363 8.547-2.832 10.442-10.008 20.923-17.688 29.03-4.77 2.296-19.29.762-16.12 9.134 13.281-3.157-8.01 4.928-12.316 1.872.027 6.896-2.716 11.186-10.369 8.862-4.044 6.76-3.934 4.51-9.028-.9 1.094 13.147-17.693 11.456-26.217 10.54-4.446-2.575-11.815 7.027-18.503.64-11.456-2.174-24.859-7.508-35.095.843-10.033 4.185-14.516-11.595-26.005-9.145-9.984-4.57-2.351 6.83-7.045 1.936-12.741-3.288-10.792-14.72-15.098-24.27-6.591-3.36-17.802-.034-16.617-11.565-7.33-4.11-20.293-5.901-16.147-17.573-3.456-3.199-15.491-9.162-4.76-4.845 9.372-3.324-.384-15.856-8.138-14.913-2.82-5.565 11.472-11.953 1.087-17.45 4.771-5.308-5.32 3.16-2.14-5.328 6.936-1.373-4.19-8.776 6.122-9.348-11.734 3.909-3.699-4.339.24-4.448-6.486-2.382-4.634-6.19 1.233-5.52-11.223-1.403 5.233-.775-1.824-6.586-7.685-3.732 3.977-12.383-4.494-18.069-2.633-6.869 9.907-8.502 8.741-16.905 1.628-4.594 1.194-11.505 5.552-12.283-4.815-10.084 8.833-15.911 17.229-12.475.488-4.385 5.865-3.27 1.666-8.25 6.35-4.17 9.797-8.316 14.856-12.008 6.093-1.544 9.592-5.076 16.453-1.555 3.526-4.262 6.857-8.504 9.974-5.984.337-6.526 6.102 1.677 9.849-2.586 3.867 5.223 8.143 9.338 13.967 3.96 8.292 7.183 8.735 20.48 12.37 30.637 2.003 10.343 6.588 21.466 4.669 31.825z"/>
  <path style="opacity:1;fill:#89a02c;fill-opacity:1;fill-rule:nonzero;stroke:none;stroke-width:8;stroke-linecap:butt;stroke-linejoin:round;stroke-miterlimit:4;stroke-dasharray:none;stroke-dashoffset:0" d="M272.247 562.865c8.59.25 18.123 5.804 24.411-3.073 7.991.26 18.554-5.783 12.599-14.568-7.57-1.52-16.838 9.646-22.667 2.632-.698-6.585-11.37-2.24-11.591-7.708 4.241 6.868 9.313 17.7 19.38 14.294 9.7-.987 19.621-1.66 29.339-.833-3.62 1.054-15.595-3.18-21.91-.653-3.216 3.472-1.965 10.15 0 2.057 2.418-7.2 1.182.121-2.995-4.572-2.1-2.403-1.423-14.251-2.904-7.527-5.305-.85-10.942-8.397-1.612-4.637 3.809 1.402 10.992 2.077 3.93 4.731 4.197 10.153 12.95 18.925 22.574 23.15.871 3.662 7.075 11.795 1.808 4.69-7.834-1.119-8.782-7.235-8.076-14.512 7.35 7.38-8.248 2.727-5.396 10.74-1.033 6.45 7.09-1.89 5.328 6.189 1.032 3.715-1.084 12.012 2.925 5.376 8.43 1.062-2.289 9.02-1.191 1.746 3.937-2.687 11.915-2.964 3.096-1.996-3.53.418-13.025 1.397-3.956 2.51 2.347 1.26-.514 3.741 3.892 5.018.337 7.409-5.826-6.736 1.579-5.441 7.169.649 5.527-17.44 4.209-9.215-5.7 3.401-6.467 10.653-14.61 10.74-1.697 2.345 3.695 11.712-4.006 7.335 3.108 3.305 6.202 7.594-.174 3.036-1.896-1.627-8.201-.203-3.899.365 4.39 6.13 12.605-9.378 20.071-7.354 31.456-6.767 18.808-1.44-4.089-.656-6.843-.069-14.837-2.37-14.198 7.105-7.415 7.085-6.418-20.918-2.78-8.573 6.3-.387 18.67 8.75 20.057.61-2.29-1.266-5.002 8.417-5.95.516-7.856-.358-17.812-5.013-26.876-3.444-8.837 10.42-14.07 4.154-14.15 6.7 8.955 3.83 22.23-2.306 27.923 7.008.726 8.161 14.236 11.818 15.862 3.705-4.269-1.82-17.834 6.023-11.589-4.472 6.838-10.894-10.754-8.601-14.522-15.996-3.987 2.12-15.202-3.11-15.388-2.517 7.947 1.455 10.549 15.01 10.787 18.166-1.883-5.344-7.243-7.182-4.39-10.215 1.064-20.092-1.175 5.294.7 5.57 6.001.56 4.472 1.81-.126-.099-.04-3.56.934-15.052-3.064-6.542-1.707 4.406 10.415-1.847.233 1.573-1.798 8.376 12.4 15.085 11.936 3.592 3.4-.433 5.855 2.995 1.968 4.357-2.956 5.352 11.27 9.768 1.68 4.986-8.075-4.535-18.08-6.266-25.501-11.29-2.54-3.17-2.298 14.434 1.729 5.946 6.55-9.265 16.38 3.188 25.924-.286 9.282 2.49 12.427-9.478 21.382-6.405-1.795-1.792-8.757 1.469-7.2-5.208.36-8.065-7.48-25.981-13.87-10.999-4.905 5.313-6.514 23.042-14.874 20.067-1.871-5.854-1.166-11.684-8.434-9.804-4.518-19.69-7.454-5.073-5.576-11.254 1.912-4.621 9.663-7.008 6.576-11.787 1.842-6.046 4.823-2.813 3.046.964-3.055-2.926-15.003-10.837-7.893-1.29 2.523 6.47 4.574-4.266.898.523-6.362.005-3.577-9.348-.369-2.129-4.526-2.665-7.384 1.111-4.227 6.046-2.734-4.53-5.867-14.132-5.361-4.547 3.347 20.695 11.36 40.366 19.072 59.766 2.371 6.12 8.663 21.687 15.328 13.646 2.556-.874 6.045 5.134 3.088-1.085-5.616-8.078 5.903-2.241 8.398.16.681-4.907 4.698-3.429 9.23-3.197-2.353-7.528 14.249-4.318 4.725-11.596 3.488-.099 9.615 9.816 13.744 1.172 1.93-4.868 9.557-12.145 2.923-7.266 1.315-21.352 12.516-32.035 10.456-33.311-7.413-1.483 11.695-9.423.726-14.164-8.253-6.198-1.442-19.15-10.777-25.783-2.621-3.901-4.96-6.912-.738-1.175 4.419 4.703-3.066-7.52-4.097-9.498-4.293-7.336-16.415-5.052-20.18-11.632 11.548.46-12.742-.343-16.163-1.34-8.112-1.884-16.607-2.253-19.9 6.94-1.437 4.573-3.058-11.476 4.492-8.506 7.853 1.431 22.555 1.196 25.75 7.693-4.037 7.173 2.606-6.538-3.271-1.02-5.762 3.75-12.544-6.557-19.864-5.96-8.442-.028-20.016-10.845-26.341-3.298-.847 6.248-.659 12.536-8.439 7.778-5.828-.579-23.869.249-28.496 4.329-3.283 2.894-4.6 8.842-7 11.86-1.94 9.142-1.526 14.302-3.125 22.242 1.997 7.833-13.931 17.687-4.482 21.472-4.232 6.298-13.872 14.228-3.258 19.936-.245 7.917 1.483 16.178 9.925 20.346 1.83 5.575-12.995 2.7-2.052 2.63 11.637.667-5.046-3.863-.82 2.805 3.336 12.16 14.51 18.753 24.522 24.879 8.648-2.623 4.36 11.014 12.986 11.112-5.831-3.592 1.112-8.164-.68-7.783-7.237-7.034 8.867-.038 7.889 5.358 2.627 10.554 11.06 17.11 21.663 11.718 8.536-1.834 19.948-4.497 21.154 7.437 6.221-2.98-9.688-6.32-13.06-8.412-7.48-3.04.857 11.993 2.1 3.758 2.899-9.612 12.806.443 12.21 1.362 8.978-2.353 19.8-8.905 28.471-2.967 2.61 6.235 10.723 6.18 7.019-1.778-3.898-8.932 2.307-6.734 6.427-4.6 2.394 8.598-14.429.415-20.868 1.067-5.793-3.091-4.484 3.285-7.084 3.797 1.276-5.914.812 2.285 5.105-.79 14.655-2.428 29.36-4.646 43.458-9.446 10.576-1.029-3.022-14.185 8.37-16.485 6.124-2.7 9.503-6.397 8.498-12.961 2.925-4.397 12.534.77 3.058-1.725-12.046-2.617 5.14 5.827-1.722 7.868.16-10.126 16.842-15.926 11.636-26.642-2.537-5.587 9.498-11.23-.335-12.063-2.58-2.79 5.814-3.988 1.791-8.724 5.747-7.271-5.15-15.588 2.988-22.155-5.648-1.817-4.457-17.556-9.894-9.645-.111-8.647 5.878-1.769 1.784.586-7.811-6.522 6.418-17.639-6.979-20.655 6.717-2.927 3.512-11.658-2.872-9.02-3.683 9.867 4.658-10.814-3.503-3.357-.307-9.915-6.902-16.181-14.044-22.16-3.163-1.86-4.885-12.253-4.963-3.09-.004 9.293 10.634 10.36 14.82 17.828 8.852 7.886-17.64 4.896-2.794 1.864 2.54-6.014-1.859-11.583-3.356-8.154-1.73-6.45-12.519-10.98-9.947-20.396-1.886-7.031-11.177 3.52-12.775-6.208-4.301-5.096-12.312-3.382-4.753 2.285-5.405-9.036-13.458-12.388-23.443-8.662-3.127.808-17.199 2.156-14.207-.392 6.468-.127 15.218 7.116 20.047 1.328 6.59 13.185 13.157 13.964 3.007.208-7.177-6.687-18.625.213-27.607-.935-19.964-8.716-33.34 11.253-43.432 2.239-10.447-2.686-11.84 16.563-23.855 12.09-3.218 1.816-6.867 15.718-1.171 20.74-17.138 5.783 24.827 36.749 40.256 52.569 2.528 1.15 2.81 3.196 4.803 2.727z"/>
  <path d="M431.219 593.864c-1.922 18.23-4.255 36.359-6.148 51.83-1.091 11.029-.203 16.947-2.481 30.485-5.039 29.934-6.315 42.02-4.837 52.24 3.396 23.488-.363 30.293-3.366 53.653-1.736 23.585 3.135 25.754-2.775 49.716-27.304 4.145-85.957 11.695-84.866-3.982.77-8.911 6.767-44.848 9.119-48.63 3.148-18.272 1.715-48.307 8.743-76.755 6.383-21.446 2.565-56.16 2.594-56.537.769-9.977 3.176-28.03 3.93-40.662.889-14.88.371-26.117 4.437-39.139 5.222-16.725 5.322-10.99 11.929-11.277 11.143-.484 22.248.084 33.275 1.214 8.743.896 17.13 5.763 25.982 3.268 4.636-1.307 4.778 7.492 5.208 8.272 1.57 2.844 1.938 8.61-.744 26.304z" style="opacity:1;fill:#c87137;fill-opacity:1;fill-rule:nonzero;stroke:none;stroke-width:8;stroke-linecap:butt;stroke-linejoin:round;stroke-miterlimit:4;stroke-dasharray:none;stroke-dashoffset:0"/>
  <path d="M367.236 395.136c-10.354.673-19.419 15.893-28.973 1.4-10.556-4.317-.36 9.71-9.683-3.106-5.015-10.59-2.582 18.64-9.4.434 2.07 11.474 21.296 13.454 6.53 2.509-.3 5.032-11.357 2.833-8.302 11.999 14.213-.962-16.192-9.092-1.368-1.26-9.339 3.494-17.763-12.943-10.047-3.906 8.498 7.973 8.368 16.63-5.47 15.77 3 8.218 3.622 12.113-4.968 16.763 19.11 6.899-21.488 2.46-3.946 14.392-5.805 4.178 16.622 1.781-.054 7.89-11.315 8.934 2.09 14.576 7.748 19.254 1.113 5.74 1.164 15.942-7.662 12.045 6.799-11.753 12.148 9.558 21.714-.123 11.9.25-6.723 21.033 12.346 16.072 18.598-3.618 35.522 4.895 51.953 11.87 3.277 19.882 19.911-1.628 25.861 5.628-6.012 3.012-35.308 8.631-26.39 9.944 9.14-14.617 33.104-8.861 44.952-13.385 9.448 1.503-7.674 12.419 2.98 10.59-3.148-14.669 8.323-17.768 16.814-13.61-7.289-14.556 20.268-7.557 19.551-21.048 8.693 7.091 6.622 10.48-2.736 8.066 1.054 14.49 5.145 7.434 1.46-3.349-3.198-3.279 7.514-16.843 2.115-9.766 3.595-10.383 7.614-20.69 4.01-31.102 8.044-.545 15.874-4.539 8.099 1.922-2.016 8.96 5.483 32.68 9.816 12.979-2.738-11.09-17.705-11.254-13.1-22.54-15.132-3.955 20.172-8.45-.593-11.635-6.32-2.936 9.592-4.35 1.905-9.626 17.987-3.999 6.226 6.197-2.275 8.928 6.456 7.226-6.334 4.124-10.502 12.064 10.722-4.73 11.652-21.224-.864-8.83-13.586 15.765-14.269-7.163-9.496-14.85-7.673-.393-12.235 17.598-2.937 6.707 2.501-12.485-35.416-13.894-22.226-20.808-10.271 4.905 5.267 6.713-6.659.405-8.23 3.256-13.594 14.481-5.703.465-11.7-.16-25.533 3.272-23.119-14.562-2.728-13.708-9.884 8.205-11.143-5.417-.034-8.921-8.477-10.683-4.027-1.967 2.494-12.209 5.16-4.398-1.795 1.727 3.848-8.624-8.098-1.54-9.072-11.28-7.823 9.132-12.471-9.162-20.175.159 7.018-6.997 5.416-7.505-2.317-10.112 14.2-1.788-16.79 9.806-7.012 4.391.068 8.539 1.97-18.035 12.443-8.16 9.979-3.606 18.523 15.814 6.72 9.39.17 16.647-10.848-17.01-11.105.67-6.623 7.668-27.547 11.365-36.479 8.778-.415-11.201-7.947-11.426 5.546-9.682 6.05-2.475 32.123 8.556 18.686.03 13.3-10.014 32.773-17.317 23.635-38.687-3.32-19.336-11.45-37.397-15.732-56.493-6.001 1.146-17.25 8.982-10.525-1.59-2.29-.677 4.328-2.847 4.994-5.141 13.388 7.93 21.158-7.815 36.019-9.389 4.498-28.049 21.273 7.987 34.887-3.008 13.112 3.948 29.854 1.72 45.942 2.246 14.116-3.11 32.335.859 22.842 9.247-8.77-5.798-29.317-4.641-8.77-5.798 15.21 4.199 47.297-1.46 54.133 8.732-13.028 14.621 12.883 2.974 10.69 8.088 19.213 11.023 13.897 40.275 34.083 46.112 7.301 2.111-3.978 27.797-1.65 27.884 24.334 3.371 8.195 29.582 14.096 41.277-11.678 3.222 7.817 11.933-9.106 11.697-2.951 2.76.967 5.87 1.374 7.578 5.818.503-6.025.681 4.419 2.312 5.448 12.105-.806 22.623.886 38.85 3.446 19.049-17.408 26.508-28.987 35.736-3.381 11.328-25.452 10.81-21.578 2.694 1.42 17.83-12-1.253-20.326-3.662-22.771-17.106-44.885-35.683-63.175-57.604-2.138-6.514-5.633-21.804 3.58-12.472 12.397-6.207 18.86-20.734 32.864-12.225-6.521-18.372 21.469 5.889 3.308 2.118-18.076-2.32-5.466 21.93-17.901 27.162 10.871-.395 9.741-8.575-.837-5.425 2.65-4.969-4.897 6.058-5.06-5.918 3.254-4.649 17.944-6.772 7.03-14.645 9.368-3.603 15.26-2.486 2.443-4.842-3.287-5.538 15.712-4.616-1.025-5.925-12.947 1.633 22.3-2.686 2.44-3.931-7.589-1.475-10.09-7.336-.417-7.253-7.303-4.085-12.151-6.625-4.394-15.845-10.603-8.9-23.545-21.35-10.874-31.535-15.57-.324 19.852 12.43 4.64 25.486 11.482-12.14-3.062-11.986-9.553-7.855-3.806-21.404 14.179 6.412 23.97-1.488 6.699-3.94 28.707 2.54 16.128 5.882-4.8-26.665-39.847 9.75-47.26-1.348 3.583-12.99-4.215-10.233-9.624-3.069 4.158-7.84 31.958 8.43 32.327-3.731-13.281 11.758-33.585 14.599-48.567 23.824-13.78 2.63-34.008-14.984-43.812-3.198-19.968 8.184-42.118 1.316-63.216-2.014-12.59-7.544-30.903-2.28-31.373-21.744-6.478-18.66-15.79-37.63-14.004-57.856 11.155-16.305 39.458-19.649 47.884-20.116 16.453-6.679 9.163-2.432 14.97-4.895 8.43-9.937 16.33 4.968 27.979-.01 10.525 3.834 18.376-8.69 26.075 1.997 1.858-.506-2.083 20.319 4.204 4.777-.05-13.685 6.272-8.535 8.898.477 7.805 4.26 17.206-9.98 9.873 5.081-4.77 9.186 11.997-15.247 13.603 2.58-2.376 13.259 11.611 2 8.215 3.57 10.539-.994 14.536 1.185 17.263 11.23 10.442 4.58 12.848-16.691 10.484 2.252-4.903 17.781 10.019-6.122 11.765 10.89-7.6 10.606 14.083 5.91-3.51 4.876-5.434-4.437 9.89-9.166 4.468.365 3.462-5.413-12.932 1.35.251-3.622 11.05-15.589-1.311 16.232 13.235 3.886 12.295-5.816 13.147 13.018 24.968 3.045 5.63 6.4-16.418 24.893 2.886 23.567 9.196-8.37 15.843 12.862 4.44-1.033-8.652-6.571-10.603-18.346 2.51-9.98-.12 19.564 16.031 3.249 23.097 6.336-5.27 19.042 17.885 15.497 24.672 20.228 2.98 17.436 27.046 31.002 18.558 48.887 1.19 9.682 10.832 12.814 3.913 15.904 0 0-5.68-2.696-7.521 8.594-6.385 13.586 12.26 23.755 13.284 27.865-9.872 2.247 9.432 8.835-2.867 15.02 1.83 15.253 3.042 33.146-8.266 46.31-7.76 5.93 3.095 12.964-8.564 13.65-4.523 16.676-15.982 33.415-28.247 46.362-7.62 3.666-30.805 1.217-25.744 14.587 21.21-5.042-12.793 7.87-19.669 2.989.045 11.013-4.337 17.864-16.558 14.153-6.459 10.797-6.283 7.201-14.418-1.438 1.746 20.995-28.255 18.295-41.869 16.834-7.1-4.113-18.868 11.222-29.549 1.021-18.294-3.472-39.698-11.991-56.045 1.345-16.022 6.684-23.182-18.516-41.53-14.603-15.944-7.299-3.755 10.908-11.25 3.092-20.349-5.251-17.235-23.509-24.112-38.76-10.526-5.364-28.43-.054-26.537-18.469-11.706-6.565-32.409-9.423-25.787-28.063-5.52-5.109-24.74-14.631-7.603-7.737 14.969-5.31-.612-25.322-12.995-23.817-4.504-8.886 18.322-19.09 1.736-27.866 7.62-8.478-8.497 5.045-3.416-8.51 11.076-2.192-6.693-14.014 9.775-14.93-18.74 6.244-5.907-6.927.382-7.102-10.356-3.804-7.4-9.886 1.97-8.815-17.921-2.241 8.357-1.238-2.911-10.518-12.274-5.96 6.35-19.776-7.179-28.856-4.204-10.97 15.822-13.577 13.96-26.998 2.6-7.336 1.907-18.373 8.866-19.615-7.69-16.104 14.108-25.41 27.515-19.922.78-7.003 9.366-5.222 2.66-13.176 10.143-6.66 15.646-13.28 23.725-19.175 9.732-2.467 15.32-8.107 26.277-2.485 5.63-6.806 10.949-13.58 15.927-9.556.538-10.421 9.745 2.679 15.729-4.129 6.175 8.34 13.005 14.912 22.306 6.323 13.241 11.472 13.949 32.705 19.754 48.928 3.199 16.518 10.521 34.28 7.455 50.824z" style="opacity:1;fill:#abc837;fill-opacity:1;fill-rule:nonzero;stroke:none;stroke-width:8;stroke-linecap:butt;stroke-linejoin:round;stroke-miterlimit:4;stroke-dasharray:none;stroke-dashoffset:0"/>
  <path d="M349.894 438.61c13.717.4 28.941 9.268 38.984-4.908 12.762.414 29.631-9.235 20.12-23.265-12.09-2.428-26.89 15.405-36.199 4.204-1.114-10.517-18.157-3.577-18.51-12.31 6.773 10.968 14.872 28.267 30.949 22.828 15.49-1.576 31.335-2.65 46.854-1.332-5.78 1.685-24.905-5.077-34.991-1.041-5.134 5.545-3.137 16.207 0 3.285 3.862-11.5 1.89.193-4.782-7.302-3.354-3.838-2.273-22.76-4.638-12.02-8.472-1.357-17.474-13.41-2.574-7.406 6.083 2.24 17.554 3.318 6.276 7.556 6.703 16.213 20.682 30.223 36.05 36.969 1.392 5.848 11.3 18.838 2.888 7.49-12.511-1.786-14.025-11.554-12.896-23.175 11.737 11.785-13.173 4.356-8.619 17.152-1.649 10.301 11.323-3.02 8.51 9.883 1.647 5.933-1.732 19.184 4.67 8.586 13.462 1.695-3.654 14.405-1.902 2.789 6.288-4.291 19.029-4.734 4.945-3.188-5.638.667-20.8 2.23-6.318 4.008 3.748 2.013-.821 5.975 6.215 8.014.54 11.832-9.303-10.758 2.522-8.69 11.45 1.036 8.826-27.852 6.722-14.716-9.104 5.432-10.328 17.013-23.33 17.151-2.713 3.746 5.898 18.704-6.4 11.714 4.964 5.278 9.905 12.128-.278 4.85-3.027-2.599-13.097-.326-6.226.582 7.012 9.79 20.13-14.977 32.053-11.743 50.236-10.808 30.036-2.3-6.53-1.049-10.927-.11-23.695-3.784-22.674 11.347-11.842 11.315-10.25-33.406-4.44-13.692 10.06-.617 29.815 13.975 32.03.976-3.657-2.023-7.987 13.44-9.5.823-12.548-.572-28.447-8.006-42.922-5.5-14.111 16.641-22.47 6.633-22.596 10.7 14.3 6.115 35.5-3.682 44.591 11.192 1.16 13.033 22.736 18.872 25.332 5.916-6.817-2.907-28.48 9.619-18.507-7.141 10.92-17.398-17.174-13.737-23.191-25.546-6.369 3.387-24.278-4.967-24.574-4.02 12.69 2.324 16.845 23.972 17.226 29.011-3.008-8.533-11.568-11.469-7.01-16.312 1.698-32.088-1.878 8.454 1.118 8.894 9.583.896 7.14 2.89-.202-.157-.064-5.686 1.491-24.04-4.894-10.448-2.727 7.036 16.633-2.95.372 2.513-2.87 13.376 19.802 24.09 19.062 5.736 5.43-.692 9.35 4.783 3.143 6.957-4.72 8.547 17.999 15.6 2.681 7.963-12.894-7.242-28.873-10.006-40.724-18.031-4.054-5.06-3.67 23.053 2.762 9.497 10.462-14.797 26.16 5.091 41.4-.456 14.824 3.976 19.846-15.137 34.147-10.23-2.867-2.861-13.984 2.346-11.498-8.317.576-12.88-11.944-41.491-22.152-17.565-7.832 8.485-10.402 36.797-23.752 32.047-2.989-9.35-1.862-18.66-13.469-15.658-7.215-31.443-11.904-8.1-8.904-17.972 3.053-7.38 15.432-11.192 10.502-18.823 2.941-9.656 7.701-4.492 4.863 1.54-4.878-4.673-23.959-17.307-12.604-2.062 4.03 10.333 7.304-6.811 1.434.837-10.161.007-5.713-14.93-.59-3.4-7.228-4.257-11.792 1.774-6.75 9.655-4.366-7.236-9.37-22.57-8.562-7.261 5.345 33.048 18.144 64.464 30.459 95.445 3.786 9.772 13.834 34.634 24.479 21.792 4.08-1.396 9.653 8.198 4.93-1.733-8.968-12.9 9.428-3.58 13.412.255 1.087-7.836 7.502-5.474 14.74-5.105-3.757-12.022 22.755-6.895 7.546-18.518 5.57-.158 15.355 15.676 21.95 1.87 3.08-7.773 15.261-19.395 4.667-11.603 2.1-34.099 19.987-51.16 16.698-53.197-11.838-2.367 18.677-15.048 1.16-22.619-13.181-9.898-2.304-30.583-17.212-41.175-4.185-6.23-7.92-11.04-1.178-1.877 7.057 7.51-4.897-12.01-6.544-15.168-6.856-11.716-26.214-8.069-32.226-18.576 18.442.733-20.35-.548-25.813-2.14-12.955-3.008-26.521-3.598-31.778 11.083-2.296 7.303-4.886-18.328 7.173-13.584 12.541 2.286 36.02 1.91 41.122 12.285-6.447 11.456 4.162-10.44-5.224-1.628-9.202 5.988-20.032-10.471-31.722-9.52-13.482-.043-31.966-17.318-42.067-5.266-1.352 9.978-1.052 20.021-13.477 12.421-9.307-.923-38.117.398-45.507 6.914-5.243 4.623-7.347 14.12-11.18 18.942-3.096 14.598-2.436 22.84-4.99 35.519 3.189 12.51-22.248 28.246-7.158 34.29-6.758 10.059-22.154 22.723-5.203 31.837-.392 12.644 2.369 25.837 15.85 32.493 2.922 8.903-20.752 4.313-3.277 4.2 18.585 1.065-8.058-6.17-1.309 4.48 5.327 19.418 23.172 29.949 39.162 39.731 13.81-4.188 6.963 17.59 20.737 17.746-9.312-5.737 1.777-13.037-1.084-12.43-11.559-11.233 14.159-.06 12.597 8.558 4.196 16.853 17.664 27.324 34.596 18.713 13.632-2.929 31.856-7.183 33.783 11.877 9.935-4.76-15.472-10.093-20.858-13.434-11.945-4.856 1.37 19.152 3.354 6.001 4.63-15.35 20.451.708 19.5 2.176 14.337-3.758 31.621-14.222 45.468-4.74 4.167 9.958 17.124 9.87 11.208-2.839-6.224-14.263 3.685-10.753 10.265-7.346 3.822 13.731-23.043.662-33.327 1.705-9.25-4.937-7.16 5.245-11.312 6.063 2.037-9.444 1.297 3.65 8.153-1.262 23.403-3.876 46.888-7.418 69.401-15.085 16.89-1.642-4.826-22.653 13.366-26.325 9.78-4.312 15.177-10.217 13.573-20.7 4.67-7.02 20.015 1.23 4.882-2.754-19.236-4.18 8.21 9.306-2.75 12.565.257-16.171 26.897-25.434 18.583-42.548-4.052-8.921 15.168-17.934-.535-19.264-4.12-4.455 9.285-6.368 2.86-13.931 9.18-11.612-8.223-24.895 4.772-35.382-9.02-2.902-7.118-28.037-15.8-15.403-.178-13.808 9.386-2.824 2.848.936-12.474-10.415 10.25-28.169-11.144-32.986 10.726-4.675 5.609-18.617-4.587-14.405-5.882 15.758 7.438-17.27-5.594-5.36-.49-15.834-11.023-25.842-22.429-35.39-5.051-2.97-7.8-19.567-7.926-4.934-.006 14.84 16.982 16.544 23.667 28.47 14.137 12.594-28.171 7.819-4.46 2.977 4.054-9.603-2.969-18.497-5.36-13.021-2.763-10.301-19.993-17.535-15.886-32.573-3.012-11.228-17.849 5.622-20.401-9.914-6.869-8.138-19.663-5.401-7.59 3.649-8.632-14.43-21.494-19.783-37.438-13.833-4.995 1.29-27.467 3.444-22.69-.626 10.33-.202 24.303 11.364 32.015 2.12 10.523 21.058 21.011 22.302 4.802.333-11.461-10.68-29.743.34-44.088-1.493-31.882-13.919-53.242 17.971-69.359 3.575-16.685-4.289-18.908 26.452-38.097 19.31-5.14 2.898-10.966 25.1-1.87 33.118-27.369 9.237 39.648 58.69 64.289 83.954 4.037 1.835 4.486 5.104 7.67 4.355z" style="opacity:1;fill:#89a02c;fill-opacity:1;fill-rule:nonzero;stroke:none;stroke-width:8;stroke-linecap:butt;stroke-linejoin:round;stroke-miterlimit:4;stroke-dasharray:none;stroke-dashoffset:0"/>
</svg>
